<svg width="69" height="81" viewBox="0 0 69 81" fill="none" xmlns="http://www.w3.org/2000/svg">
<path d="M24.2987 29.7646H58.6512C63.8561 29.7646 68.0748 34.9558 68.0748 41.3942V59.2936C68.0748 65.6983 63.8561 70.9232 58.6512 70.9232H30.1063L23.1207 79.4853V70.7884C18.4637 70.0805 14.8477 65.1927 14.8477 59.2599V41.3605C14.8751 34.9558 19.0938 29.7646 24.2987 29.7646Z" fill="#F1F2F2"/>
<path d="M23.1208 80.2269C23.0386 80.2269 22.9565 80.1932 22.9017 80.1595C22.6825 80.0583 22.5455 79.7887 22.5455 79.4853V71.4289C17.8063 70.3839 14.2725 65.2939 14.2725 59.2937V41.3943C14.2725 34.5851 18.7651 29.0569 24.2988 29.0569H58.6512C64.1849 29.0569 68.6775 34.5851 68.6775 41.3943V59.2937C68.6775 66.1029 64.1849 71.6311 58.6512 71.6311H30.3529L23.5591 80.0246C23.4222 80.1258 23.2852 80.2269 23.1208 80.2269ZM24.2988 30.5064C19.4226 30.5064 15.4504 35.3942 15.4504 41.3943V59.2937C15.4504 64.7545 18.7925 69.4063 23.203 70.0805C23.5043 70.1142 23.7235 70.4176 23.7235 70.7884V77.7324L29.6954 70.3839C29.805 70.2491 29.942 70.1816 30.1064 70.1816H58.6512C63.5274 70.1816 67.4996 65.2939 67.4996 59.2937V41.3943C67.4996 35.3942 63.5274 30.5064 58.6512 30.5064H24.2988Z" fill="black"/>
<path d="M51.725 59.5432H46.6786C46.3633 59.5432 46.1267 59.2539 46.1267 58.9357C46.1267 58.5885 46.3895 58.3281 46.6786 58.3281H51.725C52.0403 58.3281 52.2769 58.6174 52.2769 58.9357C52.2769 59.2539 52.0403 59.5432 51.725 59.5432Z" fill="black"/>
<path d="M35.2869 59.5432H22.6278C22.291 59.5432 22.0383 59.2539 22.0383 58.9357C22.0383 58.5885 22.319 58.3281 22.6278 58.3281H35.2869C35.6237 58.3281 35.8764 58.6174 35.8764 58.9357C35.8764 59.2539 35.6237 59.5432 35.2869 59.5432Z" fill="black"/>
<path d="M60.4152 43.1383H46.6993C46.3721 43.1383 46.1267 42.849 46.1267 42.5308C46.1267 42.1836 46.3994 41.9232 46.6993 41.9232H60.4152C60.7425 41.9232 60.9879 42.2125 60.9879 42.5308C61.0151 42.849 60.7425 43.1383 60.4152 43.1383Z" fill="black"/>
<path d="M60.4099 51.6446H22.6164C22.2861 51.6446 22.0383 51.2106 22.0383 50.7332C22.0383 50.2124 22.3136 49.8218 22.6164 49.8218H60.4099C60.7402 49.8218 60.9879 50.2558 60.9879 50.7332C61.0154 51.2106 60.7402 51.6446 60.4099 51.6446Z" fill="black"/>
<path d="M40.5403 0.607666H10.7378C5.10538 0.607666 0.511963 6.25173 0.511963 13.2477V32.7147C0.511963 39.6768 5.07804 45.3547 10.7378 45.3547H34.2517L41.798 54.6826V45.2195C46.8289 44.4422 50.7388 39.1361 50.7388 32.7147V13.2477C50.7388 6.25173 46.1727 0.607666 40.5403 0.607666Z" fill="#FF6C64"/>
<path d="M41.7376 55.2901C41.574 55.2901 41.4377 55.2228 41.3287 55.0881L33.968 45.9965H10.7684C4.82531 45.9965 0 40.0365 0 32.6959V13.3006C0 5.96002 4.82531 0 10.7684 0H40.4836C46.4266 0 51.2519 5.96002 51.2519 13.3006V32.6959C51.2519 39.161 47.4625 44.6833 42.3373 45.7945V54.583C42.3373 54.886 42.201 55.1554 41.9829 55.2564C41.9012 55.2901 41.8194 55.2901 41.7376 55.2901ZM10.7684 1.44793C5.47959 1.44793 1.17225 6.76815 1.17225 13.3006V32.6959C1.17225 39.2284 5.47959 44.5486 10.7684 44.5486H34.2134C34.3769 44.5486 34.5133 44.616 34.6223 44.7506L41.1651 52.832V45.1547C41.1651 44.7843 41.3832 44.4813 41.6831 44.4476C46.4811 43.7068 50.0797 38.6559 50.0797 32.6959V13.3006C50.0797 6.76815 45.7723 1.44793 40.4836 1.44793H10.7684Z" fill="black"/>
<path d="M8.20032 13.9746H43.5642V19.4427H8.20032V13.9746Z" fill="white"/>
<path d="M43.5038 20.0502H8.26058C7.93325 20.0502 7.68774 19.7364 7.68774 19.3913V14.0258C7.68774 13.6492 7.96052 13.3668 8.26058 13.3668H43.5038C43.8311 13.3668 44.0766 13.6806 44.0766 14.0258V19.3913C44.0766 19.7364 43.8311 20.0502 43.5038 20.0502ZM8.83342 18.701H42.9037V14.6847H8.83342V18.701Z" fill="black"/>
<path d="M8.20032 26.126H43.5642V31.5943H8.20032V26.126Z" fill="white"/>
<path d="M43.5038 32.2018H8.26058C7.93325 32.2018 7.68774 31.8595 7.68774 31.483V25.6297C7.68774 25.2189 7.96052 24.9109 8.26058 24.9109H43.5038C43.8311 24.9109 44.0766 25.2532 44.0766 25.6297V31.483C44.0766 31.8595 43.8311 32.2018 43.5038 32.2018ZM8.83342 30.73H42.9037V26.3485H8.83342V30.73Z" fill="black"/>
<path d="M55.0488 7.41968C61.1858 7.41968 66.1665 13.5485 66.1665 21.1C66.1665 28.6515 61.1858 34.7803 55.0488 34.7803C48.9119 34.7803 43.9312 28.6515 43.9312 21.1C43.9312 13.5485 48.9119 7.41968 55.0488 7.41968Z" fill="#333333"/>
<path d="M47.1517 26.0162V25.6473C47.5634 25.1352 47.9971 24.5519 48.4528 23.8974C48.9102 23.243 49.1994 22.8131 49.3202 22.6078C49.4411 22.4005 49.5971 22.119 49.7882 21.7633C49.9794 21.4056 50.119 21.1038 50.2072 20.8579C50.4506 20.1994 50.5723 19.6283 50.5723 19.1446C50.5723 18.6588 50.4343 18.295 50.1582 18.0531C49.8822 17.8113 49.5073 17.6903 49.0336 17.6903C48.5582 17.6903 48.0967 17.7818 47.6491 17.9647L47.4825 17.2086C48.0347 16.9424 48.6268 16.8093 49.259 16.8093C49.8912 16.8093 50.409 17.0135 50.8125 17.4221C51.2176 17.8285 51.4201 18.4301 51.4201 19.2269C51.4201 20.7349 50.4498 22.7186 48.5092 25.1778L51.5745 25.1382L51.6186 26.0162H47.1517ZM53.2597 23.3395V22.9706L55.0019 16.8093L55.7541 16.9769L54.2202 22.492H56.3593V19.5683H57.1753V22.492H58.0133L57.9128 23.3395H57.1753V26.0162H56.3593V23.3395H53.2597ZM60.3405 19.7055C60.3405 20.1913 60.3103 20.5978 60.2498 20.925H60.316C60.6182 19.9108 61.1809 19.4037 62.0042 19.4037C62.5841 19.4037 62.9852 19.5846 63.2073 19.9464C63.4262 20.3081 63.5357 20.8498 63.5357 21.5713C63.5357 21.5977 63.5308 22.0642 63.521 22.9706C63.5095 23.8751 63.5038 24.4512 63.5038 24.6992C63.5038 24.9472 63.5275 25.1301 63.5749 25.248C63.6239 25.3679 63.7799 25.4278 64.0429 25.4278L64.0649 26.0437C63.962 26.0985 63.8117 26.126 63.6141 26.126C63.2612 26.126 63.0203 26.0254 62.8912 25.8242C62.7638 25.623 62.7001 25.3028 62.7001 24.8638C62.7001 24.8455 62.7066 24.3517 62.7197 23.3822C62.7344 22.4127 62.7418 21.9097 62.7418 21.8731C62.7418 21.3426 62.687 20.929 62.5776 20.6323C62.4681 20.3335 62.2256 20.1841 61.8499 20.1841C61.4758 20.1841 61.1654 20.3904 60.9187 20.803C60.6721 21.2156 60.5104 21.6749 60.4336 22.181C60.3552 22.6891 60.316 23.2409 60.316 23.8364V26.0162H59.5564V15.9618L60.3405 15.7971V19.7055Z" fill="#EAE7DC"/>
</svg>
