<svg width="115" height="103" viewBox="0 0 115 103" fill="none" xmlns="http://www.w3.org/2000/svg">
<path d="M43.8303 25.7047H75.6987C80.5272 25.7047 84.4409 30.0791 84.4409 35.5044V50.5874C84.4409 55.9844 80.5272 60.3871 75.6987 60.3871H49.218L42.7376 67.602V60.2735C38.4173 59.677 35.0627 55.5583 35.0627 50.559V35.476C35.0882 30.0791 39.0018 25.7047 43.8303 25.7047Z" fill="#F1F2F2"/>
<path d="M42.7375 68.2269C42.6613 68.2269 42.5851 68.1985 42.5342 68.1701C42.3309 68.0849 42.2039 67.8576 42.2039 67.602V60.8132C37.8074 59.9326 34.5291 55.6435 34.5291 50.5874V35.5045C34.5291 29.7667 38.6968 25.1083 43.8303 25.1083H75.6986C80.8321 25.1083 84.9999 29.7667 84.9999 35.5045V50.5874C84.9999 56.3252 80.8321 60.9836 75.6986 60.9836H49.4467L43.1442 68.0564C43.0171 68.1417 42.89 68.2269 42.7375 68.2269ZM43.8303 26.3297C39.3068 26.3297 35.6218 30.4484 35.6218 35.5045V50.5874C35.6218 55.189 38.7222 59.1089 42.8138 59.677C43.0933 59.7054 43.2966 59.961 43.2966 60.2735V66.1249L48.8367 59.9327C48.9384 59.819 49.0655 59.7622 49.2179 59.7622H75.6986C80.2222 59.7622 83.9071 55.6435 83.9071 50.5874V35.5045C83.9071 30.4484 80.2222 26.3297 75.6986 26.3297H43.8303V26.3297Z" fill="black"/>
<path d="M69.2732 50.7977H64.5919C64.2993 50.7977 64.0798 50.5539 64.0798 50.2857C64.0798 49.9932 64.3237 49.7738 64.5919 49.7738H69.2732C69.5658 49.7738 69.7853 50.0176 69.7853 50.2857C69.7853 50.5539 69.5658 50.7977 69.2732 50.7977Z" fill="black"/>
<path d="M54.0239 50.7977H42.2802C41.9678 50.7977 41.7334 50.5539 41.7334 50.2857C41.7334 49.9932 41.9938 49.7738 42.2802 49.7738H54.0239C54.3364 49.7738 54.5708 50.0176 54.5708 50.2857C54.5708 50.5539 54.3364 50.7977 54.0239 50.7977Z" fill="black"/>
<path d="M77.3351 36.9741H64.6111C64.3075 36.9741 64.0798 36.7303 64.0798 36.4621C64.0798 36.1696 64.3328 35.9502 64.6111 35.9502H77.3351C77.6387 35.9502 77.8663 36.194 77.8663 36.4621C77.8916 36.7303 77.6387 36.9741 77.3351 36.9741Z" fill="black"/>
<path d="M77.3301 44.142H42.2696C41.9632 44.142 41.7334 43.7763 41.7334 43.374C41.7334 42.9351 41.9888 42.606 42.2696 42.606H77.3301C77.6366 42.606 77.8664 42.9717 77.8664 43.374C77.8919 43.7763 77.6366 44.142 77.3301 44.142Z" fill="black"/>
<path d="M58.8977 1.1355H31.2503C26.0252 1.1355 21.7639 5.89149 21.7639 11.7866V28.1906C21.7639 34.0573 25.9998 38.8417 31.2503 38.8417H53.0638L60.0644 46.702V38.7278C64.7315 38.0728 68.3587 33.6016 68.3587 28.1906V11.7866C68.3587 5.89149 64.1228 1.1355 58.8977 1.1355Z" fill="#FF6C64"/>
<path d="M60.0082 47.2138C59.8565 47.2138 59.73 47.1571 59.6289 47.0436L52.8005 39.3826H31.2785C25.7652 39.3826 21.2888 34.3603 21.2888 28.1748V11.8312C21.2888 5.64564 25.7652 0.623413 31.2785 0.623413H58.8449C64.3581 0.623413 68.8345 5.64564 68.8345 11.8312V28.1748C68.8345 33.6226 65.3192 38.276 60.5646 39.2123V46.618C60.5646 46.8733 60.4381 47.1003 60.2358 47.1855C60.16 47.2138 60.0841 47.2138 60.0082 47.2138ZM31.2785 1.84352C26.3722 1.84352 22.3763 6.32662 22.3763 11.8312V28.1748C22.3763 33.6794 26.3722 38.1625 31.2785 38.1625H53.0281C53.1798 38.1625 53.3063 38.2192 53.4075 38.3327L59.4771 45.1425V38.6732C59.4771 38.3611 59.6794 38.1057 59.9576 38.0773C64.4087 37.4531 67.747 33.197 67.747 28.1748V11.8312C67.747 6.32662 63.7512 1.84352 58.8449 1.84352H31.2785V1.84352Z" fill="black"/>
<path d="M28.8962 12.3992H61.7028V17.0069H28.8962V12.3992Z" fill="white"/>
<path d="M61.6467 17.5188H28.9521C28.6484 17.5188 28.4207 17.2544 28.4207 16.9635V12.4422C28.4207 12.1249 28.6737 11.887 28.9521 11.887H61.6467C61.9504 11.887 62.1781 12.1514 62.1781 12.4422V16.9635C62.1781 17.2544 61.9504 17.5188 61.6467 17.5188ZM29.4835 16.3818H61.09V12.9975H29.4835V16.3818Z" fill="black"/>
<path d="M28.8962 22.6385H61.7028V27.2465H28.8962V22.6385Z" fill="white"/>
<path d="M61.6467 27.7584H28.9521C28.6484 27.7584 28.4207 27.4699 28.4207 27.1526V22.2203C28.4207 21.8742 28.6737 21.6146 28.9521 21.6146H61.6467C61.9504 21.6146 62.1781 21.9031 62.1781 22.2203V27.1526C62.1781 27.4699 61.9504 27.7584 61.6467 27.7584ZM29.4835 26.5181H61.09V22.8261H29.4835V26.5181Z" fill="black"/>
<path d="M72.3569 6.87561C78.0501 6.87561 82.6707 12.0401 82.6707 18.4034C82.6707 24.7667 78.0501 29.9312 72.3569 29.9312C66.6638 29.9312 62.0432 24.7667 62.0432 18.4034C62.0432 12.0401 66.6638 6.87561 72.3569 6.87561Z" fill="#333333"/>
<path d="M65.031 22.5461V22.2353C65.4129 21.8037 65.8152 21.3121 66.238 20.7607C66.6623 20.2092 66.9306 19.847 67.0427 19.674C67.1548 19.4993 67.2996 19.2621 67.4769 18.9624C67.6542 18.661 67.7837 18.4066 67.8656 18.1994C68.0914 17.6445 68.2043 17.1633 68.2043 16.7557C68.2043 16.3463 68.0762 16.0398 67.8201 15.836C67.564 15.6322 67.2162 15.5303 66.7767 15.5303C66.3358 15.5303 65.9077 15.6073 65.4924 15.7615L65.3379 15.1244C65.8501 14.9 66.3994 14.7878 66.9859 14.7878C67.5723 14.7878 68.0527 14.96 68.427 15.3042C68.8028 15.6467 68.9907 16.1537 68.9907 16.825C68.9907 18.0958 68.0906 19.7674 66.2903 21.8396L69.134 21.8062L69.1749 22.5461H65.031ZM70.6973 20.2906V19.9797L72.3135 14.7878L73.0113 14.9291L71.5884 19.5764H73.5728V17.1127H74.3297V19.5764H75.1071L75.0139 20.2906H74.3297V22.5461H73.5728V20.2906H70.6973ZM77.266 17.2284C77.266 17.6377 77.238 17.9802 77.1819 18.2559H77.2433C77.5236 17.4013 78.0457 16.974 78.8095 16.974C79.3474 16.974 79.7195 17.1264 79.9255 17.4313C80.1286 17.7362 80.2301 18.1926 80.2301 18.8006C80.2301 18.8228 80.2256 19.2159 80.2165 19.9797C80.2059 20.7418 80.2006 21.2274 80.2006 21.4363C80.2006 21.6453 80.2226 21.7994 80.2665 21.8987C80.312 21.9998 80.4567 22.0503 80.7007 22.0503L80.7211 22.5692C80.6257 22.6155 80.4862 22.6386 80.3029 22.6386C79.9756 22.6386 79.752 22.5538 79.6323 22.3843C79.5141 22.2147 79.455 21.945 79.455 21.575C79.455 21.5596 79.4611 21.1434 79.4732 20.3265C79.4868 19.5096 79.4937 19.0857 79.4937 19.0549C79.4937 18.6079 79.4429 18.2594 79.3414 18.0093C79.2398 17.7576 79.0148 17.6317 78.6662 17.6317C78.3192 17.6317 78.0313 17.8055 77.8025 18.1532C77.5736 18.5009 77.4236 18.8879 77.3524 19.3143C77.2797 19.7425 77.2433 20.2075 77.2433 20.7093V22.5461H76.5386V14.0737L77.266 13.9349V17.2284Z" fill="#EAE7DC"/>
<path d="M1.43 94V93.406C2.25133 92.5847 3.11667 91.6533 4.026 90.612C4.93533 89.556 5.50733 88.8667 5.742 88.544C5.99133 88.2067 6.30667 87.752 6.688 87.18C7.06933 86.608 7.348 86.124 7.524 85.728C8.008 84.672 8.25 83.7553 8.25 82.978C8.25 82.2007 7.97133 81.6213 7.414 81.24C6.87133 80.844 6.12333 80.646 5.17 80.646C4.23133 80.646 3.31467 80.7927 2.42 81.086L2.09 79.876C3.19 79.4507 4.37067 79.238 5.632 79.238C6.89333 79.238 7.92733 79.568 8.734 80.228C9.54067 80.8733 9.944 81.834 9.944 83.11C9.944 85.53 8.008 88.7127 4.136 92.658L10.252 92.592L10.34 94H1.43ZM13.6137 89.71V89.116L17.0897 79.238L18.5857 79.502L15.5277 88.346H19.7957V83.66H21.4237V88.346H23.0957L22.8977 89.71H21.4237V94H19.7957V89.71H13.6137ZM27.7334 83.88C27.7334 84.6573 27.6747 85.31 27.5574 85.838H27.6894C28.2907 84.21 29.4127 83.396 31.0554 83.396C32.2141 83.396 33.0134 83.6893 33.4534 84.276C33.8934 84.848 34.1134 85.7133 34.1134 86.872C34.1134 86.916 34.0987 87.664 34.0694 89.116C34.0547 90.568 34.0474 91.492 34.0474 91.888C34.0474 92.284 34.0914 92.5773 34.1794 92.768C34.2821 92.9587 34.5974 93.054 35.1254 93.054L35.1694 94.044C34.9641 94.132 34.6634 94.176 34.2674 94.176C33.5634 94.176 33.0794 94.0147 32.8154 93.692C32.5661 93.3693 32.4414 92.856 32.4414 92.152C32.4414 92.1227 32.4561 91.3307 32.4854 89.776C32.5147 88.2213 32.5294 87.4147 32.5294 87.356C32.5294 86.5053 32.4194 85.8453 32.1994 85.376C31.9794 84.892 31.4954 84.65 30.7474 84.65C29.9994 84.65 29.3761 84.98 28.8774 85.64C28.3934 86.3 28.0707 87.0407 27.9094 87.862C27.7627 88.6687 27.6894 89.5487 27.6894 90.502V94H26.1714V77.874L27.7334 77.61V83.88ZM41.9648 91.646C43.1235 92.438 44.2382 92.834 45.3088 92.834C46.3942 92.834 47.2375 92.5847 47.8388 92.086C48.4548 91.5873 48.7628 90.898 48.7628 90.018C48.7628 89.2993 48.5428 88.7347 48.1028 88.324C47.6335 87.8693 46.9002 87.4147 45.9028 86.96C45.6095 86.8133 45.4042 86.7107 45.2868 86.652C44.2895 86.1827 43.5122 85.64 42.9548 85.024C42.4122 84.408 42.1408 83.5353 42.1408 82.406C42.1408 81.2767 42.5588 80.3527 43.3948 79.634C44.2455 78.9153 45.2648 78.556 46.4528 78.556C47.6408 78.556 48.7262 78.7687 49.7088 79.194L49.3788 80.404C48.4988 80.1107 47.6408 79.964 46.8048 79.964C45.9688 79.964 45.2648 80.184 44.6928 80.624C44.1208 81.0493 43.8348 81.614 43.8348 82.318C43.8348 83.022 44.0328 83.5867 44.4288 84.012C44.8835 84.4813 45.6902 84.98 46.8488 85.508C47.9048 86.0067 48.6235 86.4247 49.0048 86.762C49.5328 87.246 49.8628 87.6347 49.9948 87.928C50.2735 88.632 50.4128 89.2993 50.4128 89.93C50.4128 91.2647 49.9508 92.3207 49.0268 93.098C48.1175 93.8753 46.9442 94.264 45.5068 94.264C44.0842 94.264 42.7862 93.78 41.6128 92.812L41.9648 91.646ZM53.3491 85.178C53.3491 84.474 53.2611 83.9533 53.0851 83.616L54.3391 83.396C54.5885 83.4547 54.7425 83.6013 54.8011 83.836C54.8745 84.0707 54.9111 84.3127 54.9111 84.562C54.9111 84.738 54.8818 85.75 54.8231 87.598C54.7645 89.4313 54.7351 90.4507 54.7351 90.656C54.7351 90.8613 54.7425 91.096 54.7571 91.36C54.7865 91.6093 54.8598 91.8733 54.9771 92.152C55.1825 92.724 55.6811 93.01 56.4731 93.01C57.0598 93.01 57.5585 92.8047 57.9691 92.394C58.3945 91.9687 58.7025 91.4113 58.8931 90.722C59.2598 89.4753 59.4431 88.1113 59.4431 86.63V83.66H60.9171V89.666C60.9171 90.9713 61.0125 91.8733 61.2031 92.372C61.3938 92.856 61.8191 93.098 62.4791 93.098L62.5231 94.088C62.2885 94.1467 61.9951 94.176 61.6431 94.176C60.9098 94.176 60.3965 93.9633 60.1031 93.538C59.8245 93.098 59.6851 92.592 59.6851 92.02C59.6851 91.8587 59.6925 91.69 59.7071 91.514H59.5751C59.3405 92.4087 58.9078 93.0907 58.2771 93.56C57.6611 94.0293 56.8471 94.264 55.8351 94.264C54.8378 94.264 54.1411 93.956 53.7451 93.34C53.3491 92.724 53.1511 91.8807 53.1511 90.81C53.1511 90.678 53.1805 89.732 53.2391 87.972C53.3125 86.212 53.3491 85.2807 53.3491 85.178ZM66.2236 83.462C66.5169 83.5793 66.6636 83.924 66.6636 84.496C66.6636 85.0533 66.6123 85.6033 66.5096 86.146H66.6416C67.1403 84.3127 68.2476 83.396 69.9636 83.396C71.2396 83.396 72.1343 83.814 72.6476 84.65C73.1609 85.4713 73.4176 86.7107 73.4176 88.368C73.4176 90.0253 73.0069 91.426 72.1856 92.57C71.3789 93.6993 70.1543 94.264 68.5116 94.264C67.8809 94.264 67.2429 94.132 66.5976 93.868V99.016H65.1236V86.894C65.1236 85.4127 65.0429 84.32 64.8816 83.616L66.2236 83.462ZM66.5976 90.502V92.768C67.0229 92.988 67.6609 93.098 68.5116 93.098C70.6823 93.098 71.7676 91.382 71.7676 87.95C71.7676 85.75 71.0783 84.65 69.6996 84.65C69.1276 84.65 68.6289 84.8407 68.2036 85.222C67.7783 85.5887 67.4556 86.08 67.2356 86.696C66.8103 87.8693 66.5976 89.138 66.5976 90.502ZM77.8252 83.462C78.1185 83.5793 78.2652 83.924 78.2652 84.496C78.2652 85.0533 78.2138 85.6033 78.1112 86.146H78.2432C78.7418 84.3127 79.8492 83.396 81.5652 83.396C82.8412 83.396 83.7358 83.814 84.2492 84.65C84.7625 85.4713 85.0192 86.7107 85.0192 88.368C85.0192 90.0253 84.6085 91.426 83.7872 92.57C82.9805 93.6993 81.7558 94.264 80.1132 94.264C79.4825 94.264 78.8445 94.132 78.1992 93.868V99.016H76.7252V86.894C76.7252 85.4127 76.6445 84.32 76.4832 83.616L77.8252 83.462ZM78.1992 90.502V92.768C78.6245 92.988 79.2625 93.098 80.1132 93.098C82.2838 93.098 83.3692 91.382 83.3692 87.95C83.3692 85.75 82.6798 84.65 81.3012 84.65C80.7292 84.65 80.2305 84.8407 79.8052 85.222C79.3798 85.5887 79.0572 86.08 78.8372 86.696C78.4118 87.8693 78.1992 89.138 78.1992 90.502ZM91.8467 93.098C92.5801 93.098 93.1814 92.8707 93.6507 92.416C94.1201 91.9613 94.4354 91.4113 94.5967 90.766C94.7727 90.1207 94.8607 89.38 94.8607 88.544C94.8607 85.9187 93.9294 84.606 92.0667 84.606C91.3774 84.606 90.8054 84.826 90.3507 85.266C89.5294 86.0433 89.1187 87.2827 89.1187 88.984C89.1187 91.7267 90.0281 93.098 91.8467 93.098ZM96.5107 88.566C96.5107 90.1793 96.1001 91.536 95.2787 92.636C94.4721 93.7213 93.2987 94.264 91.7587 94.264C90.2334 94.264 89.1481 93.824 88.5027 92.944C87.8574 92.0493 87.5347 90.744 87.5347 89.028C87.5347 87.312 87.9087 85.948 88.6567 84.936C89.4047 83.9093 90.5341 83.396 92.0447 83.396C93.5554 83.396 94.6774 83.858 95.4107 84.782C96.1441 85.6913 96.5107 86.9527 96.5107 88.566ZM100.856 83.462C101.15 83.5793 101.296 83.9607 101.296 84.606C101.296 85.2367 101.245 85.8233 101.142 86.366H101.274C101.597 85.3247 101.971 84.5693 102.396 84.1C102.822 83.6307 103.489 83.396 104.398 83.396L105.08 83.484L104.882 85.002C104.692 84.958 104.457 84.936 104.178 84.936C103.606 84.936 103.115 85.1267 102.704 85.508C102.308 85.8747 102.015 86.3733 101.824 87.004C101.458 88.1333 101.274 89.402 101.274 90.81V94H99.7564V86.894C99.7564 85.4127 99.6758 84.32 99.5144 83.616L100.856 83.462ZM112.764 92.9L112.984 93.868C112.441 94.132 111.789 94.264 111.026 94.264C109.941 94.264 109.222 93.9707 108.87 93.384C108.518 92.7973 108.342 91.866 108.342 90.59V84.826H106.582V83.88L108.342 83.66V81.372L109.926 81.108V83.66H112.764V84.826H109.926V90.106C109.926 91.47 110.043 92.2987 110.278 92.592C110.571 92.9293 110.967 93.098 111.466 93.098C111.965 93.098 112.397 93.032 112.764 92.9Z" fill="black"/>
</svg>
