<svg width="1136" height="1180" viewBox="0 0 1136 1180" fill="none" xmlns="http://www.w3.org/2000/svg">
<path d="M1136 747H-1V1181H1136V747Z" fill="#A4A4A1"/>
<path d="M386 534.5C426.365 534.5 494.5 518 494.5 518L517.5 504.5L534 490L541.161 481L548.555 472L550.73 468.5L552.47 464.5L553.992 460L555.515 455.5L561 437L1136 454.683V595.198V749H-1V463C-1 463 19 451.5 87 469.5C105.367 474.362 157.878 503.478 218.5 514.5C268 523.5 311.033 534.5 386 534.5Z" fill="#A4A4A1"/>
<path d="M1136.21 472.905H573.506C568.132 460.629 564.046 448.676 561.135 437.113C539.429 350.954 583.044 286.143 648.26 266.604C722.237 244.448 721.418 133.16 811.695 44.1469C884.185 -27.333 977.843 -2.98768 1012.81 53.2475C1021.38 67.0398 1026.43 82.7513 1026.76 99.4426C1028.45 184.161 1064.34 259.157 1108.04 312.666C1151.72 366.181 1136.21 472.905 1136.21 472.905Z" fill="#C4C4C3"/>
<path d="M1136.32 473H573.377C568 460.714 563.913 448.751 561 437.179C578.576 393.046 617.475 325.649 696.292 300.8C817.547 262.573 932.058 265.527 953.136 188.999C966.353 141.001 978.26 87.252 1012.87 53C1021.45 66.8035 1026.5 82.5278 1026.83 99.2328C1028.52 184.021 1064.43 259.078 1108.14 312.63C1151.85 366.189 1136.32 473 1136.32 473Z" fill="#A4A4A1"/>
<path d="M733.698 481.998H610.857V450.729H725.398L733.698 481.998Z" fill="#E85A4F"/>
<path d="M661.065 194.118C646.466 200.954 635.499 200.343 628.309 196.459C620.539 192.257 617.169 184.24 618.369 177.635C620.68 164.915 637.372 161.508 640.779 149.169C644.186 136.823 658.816 128.737 674.042 138.529C674.944 139.105 675.811 139.855 676.625 140.748C686.1 151.105 689.017 181.035 661.065 194.118Z" fill="#8E8D8A" fill-opacity="0.46"/>
<path d="M898.82 481.998H773.283V356.573H887.823L898.82 481.998Z" fill="#E8594F"/>
<path d="M1091.6 481.998H949.801V259.157H1064.34L1091.6 481.998Z" fill="#E8594F"/>
<path d="M694.849 209.061C694.849 209.061 704.883 212.247 701.815 225.199C701.814 225.199 690.471 216.841 694.849 209.061Z" fill="#E98074"/>
<path d="M684.434 206.423C684.434 206.423 668.976 204.434 662.643 225.068C656.31 245.703 625.962 245.469 616.896 262.739C598.141 298.463 641.116 347.137 678.825 302.099C716.535 257.06 695.664 210.412 684.434 206.423Z" fill="#E98074"/>
<path d="M729.516 319.762C729.516 319.762 733.902 328.834 739.861 329.226C739.861 329.226 742.407 330.424 738.139 325.25C738.139 325.25 741.192 321.307 747.781 329.613C747.781 329.613 753.659 317.21 735.019 315.391L732.768 312.668L728.178 317.981L729.516 319.762Z" fill="#F9CCC6"/>
<path d="M701.76 292.201L689.71 257.651C687.988 252.711 692.07 247.699 696.699 249.072C699.797 249.991 702.31 252.489 703.463 255.795L714.298 286.865C715.633 290.69 713.907 294.985 710.444 296.459C706.982 297.933 703.093 296.026 701.76 292.201Z" fill="#2B2B2B"/>
<path d="M728.468 320.468L734.122 314.267L713.939 287.947C711.559 285.055 707.476 284.94 704.966 287.695C702.401 290.51 702.547 295.14 705.282 297.75L728.468 320.468Z" fill="#2B2B2B"/>
<path d="M710.391 285.808C708.484 285.448 706.45 286.065 704.966 287.694C702.401 290.509 702.547 295.139 705.282 297.75L724.376 315.984C719.37 309.576 714.461 297.686 710.391 285.808Z" fill="#171717"/>
<path d="M700.276 251.047C699.229 250.143 698.018 249.463 696.699 249.072C694.053 248.287 691.588 249.59 690.281 251.771C690.086 253.621 690.133 256.021 690.201 259.06L701.759 292.201C703.093 296.026 706.982 297.932 710.444 296.459C711.646 295.947 712.632 295.091 713.361 294.037C705.856 274.362 700.276 251.047 700.276 251.047Z" fill="#171717"/>
<path d="M670.674 376.016C665.576 376.016 661.621 371.729 662.217 366.85L661.175 340.539C660.921 334.12 661.971 327.721 664.249 321.808L666.493 315.985L691.423 312.668L679.129 368.78C678.619 372.908 674.987 376.016 670.674 376.016Z" fill="#2B2B2B"/>
<path d="M640.752 430.628L676.875 374.867C679.925 371.037 679.358 365.145 675.647 362.11C671.974 359.107 666.767 360.168 664.307 364.422L649.813 384.064C647.364 387.34 645.246 390.9 643.493 394.682L639.567 404.663C637.277 411.062 636.155 418.647 632.502 424.22L640.752 430.628Z" fill="#2B2B2B"/>
<path d="M638.321 428.939C638.321 428.939 637.61 434.606 648.635 448.3C648.635 448.3 648.571 452.32 644.115 447.685C639.659 443.052 627.627 430.539 627.627 430.539L632.501 424.22L638.321 428.939Z" fill="#384349"/>
<path d="M701.111 379.262C706.208 379.262 710.164 374.974 709.568 370.094L702.884 315.374H678.533L692.655 372.026C693.166 376.153 696.798 379.262 701.111 379.262Z" fill="#2B2B2B"/>
<path d="M715.615 440.918L710.132 372.356C709.977 367.258 705.908 363.398 701.322 363.998C696.785 364.591 693.652 369.307 694.5 374.267L696.135 399.543C696.386 403.782 697.052 407.979 698.124 412.059L701.458 422.299C703.761 428.693 705.523 435.064 706.321 441.888L715.615 440.918Z" fill="#2B2B2B"/>
<path d="M715.615 440.918C715.615 440.918 718.615 445.583 735.139 447.206C735.139 447.206 737.587 450.18 731.467 450.18C725.346 450.18 708.821 450.18 708.821 450.18L708.449 441.888L715.615 440.918Z" fill="#384349"/>
<path d="M694.193 248.849C694.193 248.849 696.105 251.457 704.704 264.67C706.496 267.423 706.468 271.146 704.617 273.852C703.877 274.934 702.95 276.109 701.799 277.303C701.799 277.303 702.36 309.099 704.731 323.01C705.018 324.694 703.95 326.286 702.407 326.454C696.628 327.085 682.813 327.693 665.232 322.382C663.96 321.998 663.269 320.48 663.75 319.124C666.348 311.788 673.11 289.206 668.411 263.854C668.411 263.854 664.757 247.91 683.669 248.847L694.193 248.849Z" fill="#343435"/>
<path d="M680.004 256.302C676.032 251.764 672.952 252.948 669.158 255.811C669.032 255.907 668.93 256.045 668.874 256.203C667.529 260.007 668.411 263.854 668.411 263.854C673.208 289.735 666.061 312.729 663.593 319.563C663.318 320.325 664.103 321.012 664.718 320.552C677.019 311.338 679.961 261.639 680.214 256.926C680.226 256.695 680.15 256.468 680.004 256.302Z" fill="#171717"/>
<path d="M681.778 235.073C681.778 235.073 680.381 244.848 680.232 248.872C680.232 248.872 687.031 252.723 693.053 249.298C693.053 249.298 692.464 241.364 694.175 236.619L681.778 235.073Z" fill="#F9CCC6"/>
<path d="M657.033 288.674L678.947 260.657C682.081 256.651 679.772 250.41 674.995 249.973C671.799 249.682 668.669 251.094 666.572 253.775L646.866 278.97C644.44 282.072 644.749 286.758 647.558 289.438C650.365 292.118 654.608 291.775 657.033 288.674Z" fill="#343435"/>
<path d="M660.789 342.847H658.148C658.148 337.806 652.343 333.706 645.207 333.706C638.072 333.706 632.266 337.806 632.266 342.847H629.625C629.625 336.198 636.615 330.789 645.207 330.789C653.799 330.789 660.789 336.198 660.789 342.847Z" fill="#EAE7DC"/>
<path d="M670.165 341.583H617.345C614.209 341.583 611.667 344.391 611.667 347.855V383.737C611.667 387.201 614.209 390.009 617.345 390.009H670.165C673.301 390.009 675.843 387.201 675.843 383.737V347.855C675.843 344.391 673.301 341.583 670.165 341.583Z" fill="#EAE7DC"/>
<path d="M675.843 383.737V347.855C675.843 344.391 673.3 341.583 670.165 341.583H622.627C619.491 341.583 616.949 344.391 616.949 347.855V383.737C616.949 387.201 619.491 390.009 622.627 390.009H670.165C673.301 390.009 675.843 387.201 675.843 383.737Z" fill="#E85A4F"/>
<path d="M619.59 346.251L639.1 363.449C643.377 367.219 649.437 367.251 653.746 363.526L673.73 346.251" stroke="white" stroke-miterlimit="10"/>
<path d="M648.262 361.952C648.262 362.498 648.066 363.023 647.716 363.409C647.366 363.796 646.891 364.013 646.396 364.013C645.901 364.013 645.426 363.796 645.076 363.409C644.726 363.023 644.53 362.498 644.53 361.952C644.53 361.405 644.726 360.881 645.076 360.494C645.426 360.107 645.901 359.89 646.396 359.89C646.891 359.89 647.366 360.107 647.716 360.494C648.066 360.881 648.262 361.405 648.262 361.952Z" fill="#EAE7DC"/>
<path d="M621.087 380.479H672.146V383.202H621.087V380.479Z" fill="#EAE7DC"/>
<path d="M650.752 320.986C650.752 320.986 651.442 326.062 651.077 331.678C651.077 331.678 650.501 331.816 647.357 331.319C647.357 331.319 647.173 333.414 649.743 334.285C649.743 334.285 633.554 338.877 643.995 321.558L644.129 317.873L650.738 318.671L650.752 320.986Z" fill="#F9CCC6"/>
<path d="M652.152 320.34L643.997 319.55L644.114 285.568C644.247 281.662 647.304 278.669 650.83 278.99C654.433 279.317 657.021 282.962 656.453 286.905L652.152 320.34Z" fill="#343435"/>
<path d="M692.295 211.115C696.517 212.319 699.559 216.086 700.582 220.675L700.587 220.668C700.587 220.668 701.888 225.789 705.492 226.188C705.492 226.188 704.104 230.506 702.122 230.464C702.122 230.464 700.47 246.192 686.024 237.955C679.74 236.163 676.049 228.703 677.781 221.291C679.513 213.88 686.011 209.324 692.295 211.115Z" fill="#F9CCC6"/>
<path d="M696.902 230.68C696.902 230.68 697.004 233.544 699.919 233.961" stroke="black" stroke-miterlimit="10"/>
<path d="M697.713 214.718C697.713 214.718 688.203 213.619 687.498 225.997C686.792 238.375 679.164 247.055 679.164 247.055C679.164 247.055 665.434 236.362 667.478 221.287C669.781 204.294 699.726 199.467 697.713 214.718Z" fill="#E98074"/>
<path d="M680.232 248.872C683.321 251.975 694.456 260.747 694.886 260.51C695.408 260.222 694.194 248.849 694.194 248.849L683.669 248.846C682.428 248.784 681.286 248.798 680.232 248.872Z" fill="#F9CCC6"/>
<path d="M694.886 260.51L682.749 248.814L680.232 248.873C680.232 248.872 691.973 259.939 694.886 260.51Z" fill="#DAEBF8"/>
<path d="M694.193 248.849L693.023 248.806C693.023 248.806 693.973 260.035 694.886 260.51C694.886 260.51 695.538 260.182 694.193 248.849Z" fill="#DAEBF8"/>
<path d="M691.825 258.784C691.825 258.784 693.985 258.378 695.251 257.352C695.251 257.352 695.334 261.875 694.653 261.658L693.539 261.666L691.825 258.784Z" fill="#E98074"/>
<path d="M694.653 261.658C694.653 261.658 700.439 286.069 692.363 306.182L687.203 310.505L685.448 303.877C685.448 303.877 693.823 278.316 693.539 261.666L694.653 261.658Z" fill="#E98074"/>
<path d="M692.363 258.079L690.142 260.986C690.142 260.986 677.945 251.055 678.554 249.055C678.554 249.055 679.137 247.107 680.381 246.65C680.381 246.65 690.835 256.046 692.363 258.079Z" fill="#C0D2DD"/>
<path d="M694.175 258.295L694.894 256.668L696.284 259.336C696.284 259.336 696.327 252.081 694.193 248.849L693.023 248.806L694.175 258.295Z" fill="#C0D2DD"/>
<path d="M953.202 277.693C953.202 277.693 952.623 283.548 938.502 294.157C938.502 294.157 937.651 298.187 943.153 294.798C948.656 291.409 963.513 282.258 963.513 282.258L960.085 274.597L953.202 277.693Z" fill="#2B2B2B"/>
<path d="M952.601 324.933C952.601 324.933 950.767 330.464 934.755 337.024C934.755 337.024 933.054 340.711 939.132 338.878C945.21 337.046 961.62 332.097 961.62 332.097L959.955 323.752L952.601 324.933Z" fill="#2B2B2B"/>
<path d="M930.834 214.266C932.381 208.728 937.4 205.73 941.564 207.859L988.264 231.726L983.759 260.871L934.712 225.649C931.192 223.841 929.526 218.952 930.834 214.266Z" fill="#2B2B2B"/>
<path d="M953.256 277.801L930.881 220.671C928.99 216.563 931.111 211.263 935.473 209.197C939.789 207.153 944.484 209.139 945.697 213.522L954.293 234.369C955.756 237.853 956.828 241.533 957.49 245.345L958.57 255.27C959.045 261.589 959.133 267.851 961.133 273.677L953.256 277.801Z" fill="#2B2B2B"/>
<path d="M939.691 189.353L973.912 184.484C978.806 183.788 980.914 177.25 977.522 173.293C975.251 170.645 971.973 169.355 968.698 169.821L937.924 174.2C934.136 174.739 931.46 178.568 931.949 182.753C932.436 186.937 935.902 189.892 939.691 189.353Z" fill="#464547"/>
<path d="M944.995 258.946C941.935 254.238 942.805 248.01 946.856 245.63L1009.6 234.02L1010.47 242.874C1011.44 252.763 1004.65 261.501 995.652 261.93L955.943 263.827C950.935 264.132 947.585 262.929 944.995 258.946Z" fill="#343435"/>
<path d="M952.734 325.529L942.68 255.553C941.681 250.42 944.87 245.44 949.584 244.772C954.25 244.111 958.446 247.954 958.722 253.141L962.814 278.832C963.524 283.134 963.809 287.509 963.664 291.879L962.654 303.025C961.802 310.045 959.36 317.483 960.109 324.518L952.734 325.529Z" fill="#343435"/>
<path d="M912.064 157.292C912.064 157.292 906.264 148.864 900.151 149.542C900.151 149.542 897.386 148.784 902.488 153.272C902.488 153.272 899.969 157.83 892.043 150.578C892.043 150.578 887.903 164.245 907.118 162.728L909.809 165.089L913.688 158.86L912.064 157.292Z" fill="#F9CCC6"/>
<path d="M908.577 167.212L912.152 157.182L940.728 176.577C943.765 178.798 944.51 183.37 942.366 186.621C940.175 189.944 935.887 190.505 933.054 187.84L908.577 167.212Z" fill="#464547"/>
<path d="M972.907 169.035C972.907 169.035 987.386 161.784 999.26 165.336C999.26 165.336 1010.38 195.434 1009.03 224.774C1009.03 224.774 1011.74 234.29 1012.27 238.284C1012.27 238.284 979.959 254.525 970.843 226.567C970.843 226.567 975.235 214.682 967.845 190.347C967.845 190.346 965.046 171.977 972.907 169.035Z" fill="#4D4B50"/>
<path d="M984.769 154.976C984.769 154.976 984.469 165.374 988.3 167.829C988.3 167.829 980.551 173.525 974.14 170.497C974.14 170.497 974.217 162.304 972.144 157.571L984.769 154.976Z" fill="#F9CCC6"/>
<path d="M999.731 208.942L990.217 172.306C988.857 167.068 993.455 162.338 998.089 164.211C1001.19 165.464 1003.56 168.278 1004.47 171.783L1013.03 204.729C1014.08 208.785 1011.96 213.016 1008.29 214.179C1004.61 215.342 1000.79 212.997 999.731 208.942Z" fill="#464547"/>
<path d="M983.758 234.291L978.332 225.449L1002.37 202.525C1005.2 200 1009.37 200.597 1011.53 203.839C1013.74 207.151 1012.92 211.834 1009.77 214.012L983.758 234.291Z" fill="#464547"/>
<path d="M979.067 224.797C979.067 224.797 969.992 228.204 968.638 234.824C968.638 234.824 967.111 237.48 972.582 233.556C972.582 233.556 975.698 237.639 966.96 243.647C966.96 243.647 977.384 252.313 982.169 231.701L985.048 229.63L980.928 223.593L979.067 224.797Z" fill="#F9CCC6"/>
<path d="M978.18 130.319C973.703 130.685 969.998 133.887 968.203 138.328L968.198 138.32C968.198 138.32 965.516 145.407 961.798 145.083C961.798 145.083 963.006 147.575 965.02 147.934C965.02 147.934 961.798 168.252 980.088 158.773C986.75 158.228 991.724 151.416 991.197 143.559C990.67 135.701 984.843 129.773 978.18 130.319Z" fill="#F9CCC6"/>
<path d="M978.495 136.229C978.495 136.229 972.499 144.773 977.176 148.541C977.176 148.541 980.147 159.026 985.118 160.601C985.118 160.601 1000.01 150.854 993.03 135.115C993.03 135.115 994.032 131.834 984.572 128.888C975.113 125.941 977.149 122.314 977.149 122.314C977.149 122.314 973.231 124.816 974.589 126.24C972.016 125.891 967.865 130.029 970.75 134.188C970.749 134.188 976.006 133.61 978.495 136.229Z" fill="#4E4F53"/>
<path d="M969.869 152.239C968.33 152.426 966.438 152.216 964.815 151.961C964.844 152.819 964.924 153.746 965.091 154.672C968.395 154.212 969.869 152.239 969.869 152.239Z" fill="#EE293D"/>
<path d="M977.483 145.355C977.483 145.355 983.443 141.209 983.921 144.66C984.857 151.413 980.426 154.344 978.364 153.701C976.303 153.059 977.483 145.355 977.483 145.355Z" fill="#F9CCC6"/>
<path d="M986.915 164.751L982.331 211.64L972.907 169.035C972.907 169.035 979.214 165.879 986.915 164.751Z" fill="white"/>
<path d="M986.883 164.756L979.494 172.896L972.907 169.035C972.907 169.035 979.196 165.887 986.883 164.756Z" fill="#F9CCC6"/>
<path d="M980.927 173.473L977.984 174.028L979.674 176.956L980.927 173.473Z" fill="#EE293D"/>
<path d="M979.939 175.777L983.424 203.665L982.331 211.64L979.895 201.786L979.431 175.379L979.939 175.777Z" fill="#EE293D"/>
<path d="M982.331 211.64L988.675 180.202L986.422 175.543L991.285 168.132C991.285 168.132 989.909 164.13 986.922 164.712L982.331 211.64Z" fill="#353338"/>
<path d="M972.908 169.035C972.908 169.035 969.357 168.244 968.471 170.916L973.113 178.475L971.809 182.722L982.331 211.64L972.908 169.035Z" fill="#353338"/>
<path d="M979.494 172.895L983.149 175.454L987.798 166.243L986.55 164.783C986.55 164.783 979.66 169.829 979.494 172.895Z" fill="#C8C6CC"/>
<path d="M972.907 169.035C972.907 169.035 978.096 170.053 979.494 172.895L977.487 176.239C977.487 176.239 973.381 173.233 972.907 169.035Z" fill="#C8C6CC"/>
<path d="M731.835 481.998H634.788L623.878 450.729H738.419L743.038 463.966C746.069 472.654 740.264 481.998 731.835 481.998Z" fill="#E98074"/>
<path d="M909.158 481.998H816.062L786.305 356.573H900.845L925.166 459.083C927.915 470.67 920.001 481.998 909.158 481.998Z" fill="#E98074"/>
<path d="M1099.74 482H1007.07L962.821 259.157H1077.37L1116.93 458.398C1119.33 470.525 1110.98 482 1099.74 482Z" fill="#E98074"/>
<path d="M901.161 124.7L901.181 124.769H901.18L901.161 124.7Z" fill="#344C75"/>
<path d="M901.18 124.766L888.409 127.698L888.389 127.631L901.161 124.7L901.18 124.766Z" fill="#364D78"/>
<path d="M902.526 152.542L889.754 155.474C889.439 155.546 889.112 155.585 888.777 155.586C888.425 155.587 888.063 155.547 887.694 155.461L900.466 152.53C900.835 152.615 901.197 152.655 901.549 152.654C901.884 152.653 902.21 152.615 902.526 152.542Z" fill="#364E78"/>
<path d="M900.466 152.53L887.694 155.461L872.348 151.931L885.119 148.999L900.466 152.53Z" fill="#E8594F"/>
<path d="M885.119 148.999L872.348 151.931L867.939 131.733L880.71 128.801L885.119 148.999Z" fill="#E8594F"/>
<path d="M880.711 128.801L867.939 131.733C867.48 129.635 867.778 127.639 868.568 126.085L881.34 123.153C880.55 124.707 880.252 126.704 880.711 128.801Z" fill="#E8594F"/>
<path d="M881.34 123.154L868.568 126.086C869.351 124.547 870.617 123.441 872.108 123.099L884.879 120.167C883.389 120.509 882.123 121.615 881.34 123.154Z" fill="#E8594F"/>
<path d="M906.537 143.335C907.896 148.059 905.256 152.643 901.548 152.654C901.196 152.655 900.834 152.615 900.465 152.53L885.119 148.999L880.711 128.802C879.701 124.186 882.355 120.065 885.852 120.055C886.333 120.053 886.829 120.129 887.334 120.292L901.179 124.766L906.537 143.335Z" fill="#E8594F" fill-opacity="0.79"/>
<path d="M857.891 92.6289C857.032 92.0981 856.153 91.856 855.307 91.8583C854.979 91.8589 854.656 91.8969 854.34 91.9695L841.568 94.9015C841.884 94.8294 842.207 94.7914 842.535 94.7902C843.381 94.7879 844.26 95.03 845.119 95.5602L858.162 103.551L870.934 100.62L857.891 92.6289Z" fill="#E8594F"/>
<path d="M843.416 52.1542C843.482 52.0435 843.55 51.9352 843.62 51.8309C843.676 51.749 843.732 51.6695 843.79 51.5922C843.863 51.4943 843.939 51.3997 844.016 51.3081C844.077 51.2366 844.137 51.1663 844.2 51.0989C844.281 51.0124 844.364 50.9306 844.449 50.851C844.514 50.7905 844.577 50.73 844.643 50.673C844.732 50.5975 844.824 50.5283 844.916 50.4603C844.982 50.4113 845.047 50.36 845.115 50.3145C845.213 50.2488 845.314 50.1917 845.416 50.1341C845.481 50.0972 845.545 50.0563 845.611 50.0228C845.725 49.9652 845.841 49.9174 845.958 49.8701C846.015 49.8465 846.07 49.8188 846.128 49.798C846.303 49.7346 846.48 49.681 846.66 49.6401L833.888 52.5715C833.708 52.613 833.531 52.6666 833.355 52.73C833.298 52.7507 833.243 52.7784 833.186 52.802C833.069 52.8499 832.953 52.8971 832.839 52.9548C832.773 52.9888 832.708 53.0291 832.643 53.0671C832.542 53.1242 832.441 53.1813 832.344 53.247C832.275 53.2925 832.21 53.3438 832.143 53.3934C832.051 53.4614 831.96 53.53 831.871 53.6055C831.805 53.6619 831.741 53.723 831.677 53.7836C831.592 53.8631 831.509 53.9444 831.428 54.0314C831.365 54.0982 831.305 54.1691 831.244 54.2406C831.167 54.3317 831.091 54.4262 831.018 54.5242C830.96 54.602 830.904 54.6815 830.848 54.7634C830.778 54.8671 830.711 54.9749 830.644 55.0855C830.593 55.1732 830.541 55.2608 830.492 55.3524C830.468 55.3974 830.441 55.4371 830.418 55.4832C830.349 55.6181 830.284 55.7582 830.221 55.9022L824.057 70.1446C823.982 70.3187 823.898 70.4847 823.812 70.6478C823.77 70.7273 823.726 70.804 823.681 70.8806C823.622 70.9821 823.562 71.0823 823.499 71.1792C823.451 71.2529 823.4 71.325 823.349 71.3959C823.284 71.4881 823.215 71.5786 823.145 71.6656C823.092 71.7325 823.037 71.7982 822.981 71.8622C822.908 71.9463 822.832 72.0264 822.755 72.1042C822.697 72.1636 822.639 72.2224 822.579 72.2783C822.498 72.3538 822.414 72.4241 822.329 72.4938C822.268 72.544 822.208 72.5953 822.145 72.642C822.054 72.71 821.96 72.7716 821.866 72.8327C821.805 72.8725 821.745 72.9146 821.683 72.9515C821.577 73.0137 821.467 73.0673 821.358 73.1209C821.303 73.148 821.25 73.1791 821.194 73.2033C821.028 73.2765 820.857 73.3417 820.684 73.3953L833.456 70.4633C833.629 70.4103 833.799 70.3452 833.966 70.2714C834.022 70.2472 834.075 70.2161 834.13 70.1896C834.239 70.136 834.349 70.0818 834.455 70.0195C834.517 69.9832 834.577 69.9406 834.638 69.9008C834.733 69.8397 834.826 69.7786 834.917 69.7106C834.98 69.6639 835.04 69.6126 835.101 69.5625C835.186 69.4927 835.269 69.4224 835.351 69.3469C835.411 69.291 835.469 69.2317 835.527 69.1729C835.604 69.0945 835.679 69.0144 835.753 68.9308C835.809 68.8668 835.864 68.8005 835.917 68.7337C835.987 68.6461 836.056 68.5562 836.122 68.4634C836.172 68.3925 836.222 68.321 836.271 68.2472C836.334 68.1498 836.395 68.049 836.454 67.947C836.499 67.8709 836.543 67.7948 836.585 67.7158C836.602 67.6824 836.622 67.6524 836.639 67.6184C836.706 67.4864 836.77 67.351 836.83 67.2121L842.994 52.9697C843.078 52.7772 843.17 52.5974 843.265 52.4199C843.313 52.3288 843.365 52.2412 843.416 52.1542Z" fill="#E8594F"/>
<path d="M834.853 128.009C831.712 128.018 828.79 124.64 828.871 120.306L829.171 103.718C829.208 101.813 828.632 99.9314 827.578 98.4841L814.806 101.415C815.86 102.863 816.436 104.745 816.399 106.649L816.099 123.238C816.018 127.572 818.94 130.95 822.081 130.941C822.401 130.94 822.724 130.904 823.045 130.83L835.817 127.899C835.496 127.972 835.173 128.008 834.853 128.009Z" fill="#E8594F"/>
<path d="M847.656 49.526C849.518 49.5202 851.434 50.6579 852.64 52.9403L860.153 67.1418C861.015 68.7752 862.341 69.9377 863.838 70.3717L876.845 74.1468C881.028 75.3572 882.949 81.6585 880.378 85.7172L870.934 100.62L857.89 92.6277C857.031 92.0975 856.152 91.8549 855.307 91.8577C852.348 91.8664 849.805 94.8744 850 99.0051L850.763 115.069C850.899 117.938 849.656 120.533 847.617 121.649L837.013 127.44C836.304 127.826 835.572 128.006 834.853 128.009C831.712 128.018 828.79 124.64 828.871 120.306L829.171 103.717C829.208 101.813 828.632 99.9308 827.578 98.4835L818.376 85.9022C815.421 81.8597 816.744 75.5491 820.806 74.314L833.456 70.4622C834.907 70.019 836.122 68.8489 836.83 67.2109L842.993 52.9686C843.984 50.6804 845.793 49.5317 847.656 49.526Z" fill="#E98074" fill-opacity="0.45"/>
<path d="M817.927 85.206C817.894 85.1489 817.861 85.0925 817.83 85.0354C817.699 84.7979 817.578 84.5564 817.472 84.3092C817.463 84.2873 817.455 84.2648 817.447 84.2435C817.35 84.0118 817.266 83.7755 817.191 83.538C817.172 83.4781 817.153 83.4181 817.135 83.3582C817.06 83.104 816.996 82.8475 816.945 82.5899C816.938 82.553 816.933 82.515 816.926 82.4781C816.884 82.2464 816.851 82.0136 816.828 81.7807C816.821 81.7219 816.815 81.6631 816.809 81.6038C816.788 81.345 816.777 81.0868 816.777 80.8297C816.777 80.7825 816.78 80.7358 816.781 80.6885C816.785 80.4626 816.798 80.2378 816.819 80.0147C816.825 79.9623 816.828 79.9087 816.834 79.8563C816.863 79.6044 816.902 79.356 816.951 79.1116C816.962 79.0603 816.974 79.0102 816.985 78.9594C817.033 78.7456 817.089 78.5352 817.152 78.3289C817.165 78.2857 817.177 78.2413 817.191 78.1981C817.267 77.9658 817.354 77.7399 817.45 77.5197C817.472 77.4701 817.495 77.4217 817.518 77.3727C817.604 77.1866 817.698 77.0062 817.798 76.8321C817.823 76.7895 817.845 76.7451 817.871 76.703C817.993 76.5007 818.126 76.3076 818.267 76.1238C818.3 76.0811 818.336 76.0408 818.37 75.9993C818.489 75.8529 818.615 75.7128 818.746 75.5803C818.787 75.5393 818.827 75.4967 818.869 75.4569C819.035 75.3002 819.209 75.1526 819.394 75.02C819.424 74.9981 819.456 74.9808 819.487 74.9595C819.648 74.8489 819.816 74.7486 819.99 74.6575C820.044 74.6287 820.099 74.6004 820.156 74.5739C820.365 74.4748 820.58 74.3843 820.807 74.3157L833.457 70.4639L820.685 73.3959L808.035 77.2477C807.808 77.3168 807.593 77.4067 807.384 77.5059C807.328 77.5324 807.273 77.5612 807.217 77.59C807.043 77.6811 806.875 77.7814 806.714 77.8915C806.684 77.9128 806.652 77.9306 806.621 77.952C806.437 78.0851 806.263 78.2321 806.097 78.3894C806.055 78.4292 806.015 78.4713 805.974 78.5128C805.842 78.6453 805.717 78.7848 805.597 78.9312C805.563 78.9733 805.528 79.013 805.494 79.0563C805.353 79.2401 805.221 79.4326 805.098 79.6349C805.073 79.677 805.05 79.7214 805.026 79.7646C804.968 79.8655 804.908 79.9646 804.855 80.0689C804.815 80.1456 804.782 80.2263 804.746 80.3047C804.723 80.3537 804.699 80.4021 804.678 80.4522C804.582 80.6718 804.495 80.8977 804.418 81.1306C804.404 81.1732 804.393 81.2176 804.38 81.2608C804.316 81.4672 804.261 81.6775 804.213 81.8914C804.202 81.9421 804.189 81.9928 804.179 82.0441C804.129 82.2885 804.09 82.5369 804.062 82.7888C804.055 82.8418 804.052 82.8948 804.047 82.9478C804.026 83.1703 804.013 83.3945 804.009 83.6204C804.008 83.6677 804.005 83.715 804.005 83.7622C804.004 84.0193 804.016 84.2775 804.037 84.5363C804.042 84.5956 804.049 84.6539 804.055 84.7132C804.079 84.9461 804.112 85.1783 804.154 85.41C804.161 85.4475 804.165 85.4855 804.173 85.523C804.224 85.7812 804.289 86.0371 804.363 86.2913C804.381 86.3518 804.4 86.4117 804.419 86.4717C804.495 86.7091 804.578 86.9443 804.675 87.1754C804.684 87.1979 804.691 87.2204 804.701 87.2428C804.806 87.4895 804.928 87.731 805.058 87.9685C805.09 88.0261 805.122 88.0826 805.156 88.1397C805.294 88.3777 805.441 88.6123 805.605 88.8371L814.807 101.418L827.578 98.4864L818.376 85.9051C818.211 85.6786 818.065 85.444 817.927 85.206Z" fill="#E8594F"/>
<path d="M1010.85 259.349L1046.65 259.165L1046.64 255.478L1010.83 255.661C1009.91 255.666 1009.17 256.495 1009.17 257.514C1009.18 258.532 1009.93 259.354 1010.85 259.349Z" fill="#772D18"/>
<path d="M1028.77 259.257L1071.76 259.036C1073.4 259.027 1074.86 257.878 1075.4 256.165L1083.2 231.442C1083.83 229.432 1082.48 227.333 1080.55 227.343L1040.84 227.547C1039.6 227.554 1038.5 228.42 1038.09 229.709L1028.77 259.257Z" fill="#772D18"/>
<path d="M1080.55 227.343C1082.48 227.333 1083.83 229.432 1083.2 231.442L1075.24 256.662C1074.79 258.076 1073.59 259.027 1072.23 259.033L1032.7 259.237L1042.7 227.537L1080.55 227.343Z" fill="#CF582B"/>
<path d="M1057.64 243.995C1057.84 243.073 1058.3 242.258 1058.92 241.731C1059.54 241.204 1060.26 241.007 1060.94 241.184C1061.62 241.361 1062.19 241.896 1062.53 242.674C1062.87 243.451 1062.95 244.406 1062.75 245.328C1062.55 246.25 1062.09 247.065 1061.48 247.592C1060.86 248.119 1060.13 248.316 1059.45 248.139C1058.78 247.962 1058.2 247.427 1057.86 246.649C1057.53 245.872 1057.45 244.917 1057.64 243.995Z" fill="#F47944"/>
<path d="M697.399 211.926C697.399 211.926 695.774 203.543 689.308 202.39C682.841 201.237 680.381 202.39 680.381 202.39C680.381 202.39 682.842 202.942 684.233 204.491C684.233 204.491 678.539 204.782 676.081 209.062C676.081 209.061 693.105 207.757 697.399 211.926Z" fill="#E98074"/>
<path d="M881.73 276.723C880.074 270.782 874.695 267.564 870.227 269.844L820.133 295.407L824.948 326.665L877.566 288.926C881.342 286.991 883.131 281.749 881.73 276.723Z" fill="#2B2B2B"/>
<path d="M883.202 346.736L881.94 279.997C882.124 275.059 877.914 270.937 872.826 271.073C867.792 271.207 864.016 275.458 864.605 280.33L864.644 304.897C864.625 309.015 865.067 313.132 865.961 317.176L868.918 327.387C871.008 333.784 873.451 339.934 873.855 346.6L883.202 346.736Z" fill="#2B2B2B"/>
<path d="M854.013 353.041C859.066 350.305 861.1 343.932 858.363 339.415L818.388 285.55L797.256 305.487C796.906 311.08 795.438 324.805 803.978 328.467L841.428 351.528C846.019 354.619 849.737 355.356 854.013 353.041Z" fill="#343435"/>
<path d="M782.17 357.447L850.936 355.665C856.032 355.841 860.172 351.164 859.9 345.541C859.632 339.977 855.153 335.829 850.146 336.508L824.822 336.694C820.576 336.696 816.343 337.209 812.198 338.22L801.747 341.547C795.208 343.894 788.575 348.173 781.713 348.657L782.17 357.447Z" fill="#343435"/>
<path d="M833.049 273.703L822.14 234.646C820.58 229.061 825.419 223.882 830.423 225.781C833.772 227.051 836.369 230.012 837.413 233.75L847.223 268.872C848.431 273.196 846.237 277.782 842.323 279.116C838.409 280.45 834.256 278.026 833.049 273.703Z" fill="#464547"/>
<path d="M874.141 268.563L873.444 257.029L838.53 266.572C834.772 267.751 832.664 272.153 833.897 276.247C835.157 280.43 839.372 282.545 843.053 280.841L874.141 268.563Z" fill="#464547"/>
<path d="M827.151 225.52C827.151 225.52 810.665 220.728 798.688 226.841C798.688 226.841 791.832 260.868 798.032 291.621C798.032 291.621 796.709 302.221 796.808 306.546C796.808 306.546 833.607 317.303 838.695 285.934C838.695 285.934 832.118 274.241 835.971 247.046C835.971 247.046 835.941 227.069 827.151 225.52Z" fill="#4D4B50"/>
<path d="M882.732 346.077C882.732 346.077 885.663 351.5 903.718 354.885C903.718 354.885 906.176 358.395 899.441 357.802C892.707 357.211 874.522 355.611 874.522 355.611L874.771 346.45L882.732 346.077Z" fill="#2B2B2B"/>
<path d="M781.287 357.527C781.287 357.527 776.423 354.206 758.988 360.397C758.988 360.397 755.342 358.534 761.565 355.63C767.79 352.726 784.594 344.884 784.594 344.884L788.197 353.14L781.287 357.527Z" fill="#2B2B2B"/>
<path d="M849.423 250.215C849.423 250.215 859.564 248.367 862.048 241.625C862.048 241.625 864.084 239.11 857.674 242.203C857.674 242.203 855.025 237.28 865.223 232.616C865.223 232.616 855.568 221.429 847.237 242.311L843.862 243.945L847.264 251.129L849.423 250.215Z" fill="#F9CCC6"/>
<path d="M872.977 256.459C872.977 256.459 881.096 249.499 887.261 252.07C887.261 252.07 890.315 252.13 883.904 255.22C883.904 255.22 885.372 260.713 895.401 255.621C895.401 255.621 896.267 271.047 876.738 263.603L873.359 265.227L870.9 257.588L872.977 256.459Z" fill="#F9CCC6"/>
<path d="M811.646 223.772L824.122 272.435L827.152 225.52C827.152 225.52 819.971 223.435 811.646 223.772Z" fill="white"/>
<path d="M811.68 223.77L820.816 230.909L827.151 225.519C827.151 225.52 819.991 223.44 811.68 223.77Z" fill="#F9CCC6"/>
<path d="M812.323 213.011C812.323 213.011 814.332 223.945 810.682 227.3C810.682 227.3 819.801 231.784 826.086 227.31C826.086 227.31 824.672 218.663 826.093 213.247L812.323 213.011Z" fill="#F9CCC6"/>
<path d="M821.157 184.976C825.927 185.701 829.697 189.404 831.348 194.291L831.353 194.283C831.353 194.283 833.371 199.715 837.369 199.645C837.369 199.645 836.346 204.574 834.169 204.808C834.169 204.808 834.174 222.287 817.382 215.29C810.284 214.211 805.376 206.551 806.418 198.18C807.461 189.809 814.06 183.897 821.157 184.976Z" fill="#F9CCC6"/>
<path d="M828.166 188.393C828.166 188.393 824.515 196.705 819.28 200.391C819.28 200.391 818.488 215.637 813.073 216.954C813.073 216.954 800.92 210.254 804.611 193.573C804.611 193.573 801.499 193.053 800.473 193.641C800.473 193.641 801.916 191.466 804.591 190.83C804.591 190.83 808.108 181.748 818.412 179.298C828.716 176.848 825.179 170.933 825.179 170.933C825.179 170.933 830.76 176.902 825.251 180.878C825.251 180.878 833.462 181.981 835.734 188.311C835.734 188.311 830.989 185.775 828.166 188.393Z" fill="#F38720"/>
<path d="M828.118 206.763C830.604 208.347 833.927 207.306 833.927 207.306C833.66 208.927 833.094 211.069 831.908 212.926C828.644 212.552 828.118 206.763 828.118 206.763Z" fill="#EE293D"/>
<path d="M820.987 201.122C820.987 201.122 814.89 195.368 814.223 199.038C813.556 202.708 817.291 210.523 819.537 209.989C821.782 209.455 820.987 201.122 820.987 201.122Z" fill="#F9CCC6"/>
<path d="M820.816 230.909L817.369 234.34L810.954 225.524L812.036 223.733C812.036 223.732 820.142 227.699 820.816 230.909Z" fill="#C8C6CC"/>
<path d="M827.152 225.52C827.152 225.52 821.832 227.626 820.816 230.909L823.482 234.046C823.481 234.045 827.334 230.052 827.152 225.52Z" fill="#C8C6CC"/>
<path d="M819.395 231.804L822.597 231.806L821.286 235.238L819.395 231.804Z" fill="#EE293D"/>
<path d="M820.814 234.043L821.683 264.735L824.122 272.435L825.352 260.585L821.287 233.522L820.814 234.043Z" fill="#EE293D"/>
<path d="M824.121 272.435L812.298 240.457L813.922 235.084L807.575 228.214C807.575 228.214 808.379 223.709 811.631 223.732L824.121 272.435Z" fill="#353338"/>
<path d="M827.151 225.52C827.151 225.52 830.776 223.979 832.147 226.627L828.47 235.541L830.54 239.773L824.122 272.435L827.151 225.52Z" fill="#353338"/>
<path d="M826.965 263.781L807.68 228.898C804.922 223.91 798.205 224.489 796.181 229.89C794.827 233.503 795.117 237.614 796.963 240.952L814.305 272.321C816.44 276.183 821.005 277.401 824.5 275.044C827.996 272.685 829.1 267.643 826.965 263.781Z" fill="#464547"/>
<path d="M852.78 250.511L846.181 241.674L817.57 262.076C814.361 264.536 813.659 269.457 816.027 272.888C818.446 276.394 823.054 276.885 826.036 273.954L852.78 250.511Z" fill="#464547"/>
<path d="M866.034 261.58H897.715L875.491 207.743H843.81L866.034 261.58Z" fill="#BC2A4B"/>
<path d="M867.139 261.58H898.82L876.595 207.743H844.914L867.139 261.58Z" fill="#F0526D"/>
<path d="M867.487 259.598H896.835L875.684 208.567H846.336L867.487 259.598Z" fill="white"/>
<path d="M857.049 212.978H870.818L869.427 209.877H855.658L857.049 212.978Z" fill="#789ED3"/>
<path d="M850.946 213.063L868.364 255.253H893.191" stroke="#3D4142" stroke-miterlimit="10"/>
<path d="M869.711 253.566L870.813 242.314L874.414 239.956L875.295 233.647L877.374 233.109L877.87 223.538L882.441 226.623" stroke="#B6ACD5" stroke-miterlimit="10"/>
<path d="M878.48 217.62L871.296 215.831L868.845 225.486L870.555 234.948L869.917 238.817L866.205 245.185" stroke="#A398CA" stroke-miterlimit="10"/>
<path d="M868.977 253.566L869.175 247.039L872.58 245.86L873.041 232.342L876.209 231.98L875.314 218.666L876.926 213.705" stroke="#F68F78" stroke-miterlimit="10"/>
<path d="M856.596 210.438L857.202 210.437C857.4 210.437 857.571 210.484 857.718 210.578C857.864 210.672 857.984 210.811 858.076 210.993L858.654 212.132C858.747 212.314 858.768 212.453 858.717 212.547C858.666 212.642 858.542 212.689 858.345 212.689L857.739 212.69L856.596 210.438ZM858.175 212.367C858.24 212.367 858.28 212.35 858.296 212.316C858.315 212.281 858.305 212.226 858.266 212.148L857.671 210.977C857.632 210.9 857.586 210.844 857.532 210.81C857.481 210.776 857.423 210.759 857.358 210.759L857.156 210.759L857.973 212.368L858.175 212.367ZM858.362 210.436L858.899 210.435L860.453 212.687L860.056 212.687L859.757 212.24L859.76 212.247L859.309 212.247L859.461 212.688L859.093 212.688L858.362 210.436ZM859.558 211.941L858.817 210.828L858.81 210.828L859.201 211.942L859.558 211.941ZM859.811 210.756L859.396 210.757L859.233 210.435L860.459 210.434L860.622 210.756L860.208 210.756L861.187 212.686L860.79 212.687L859.811 210.756ZM860.792 210.434L861.33 210.433L862.884 212.685L862.487 212.685L862.188 212.238L862.191 212.244L861.74 212.245L861.892 212.686L861.524 212.686L860.792 210.434ZM861.989 211.939L861.248 210.826L861.241 210.826L861.632 211.939L861.989 211.939ZM860.081 216.288C859.889 216.289 859.719 216.241 859.571 216.144C859.422 216.046 859.302 215.905 859.209 215.723L859.144 215.594L859.519 215.594L859.598 215.748C859.672 215.894 859.777 215.967 859.914 215.967C859.982 215.967 860.023 215.95 860.04 215.915C860.057 215.879 860.046 215.821 860.006 215.741C859.958 215.647 859.892 215.564 859.808 215.494C859.723 215.421 859.59 215.334 859.409 215.233C859.18 215.105 859.007 214.989 858.89 214.886C858.771 214.781 858.679 214.663 858.613 214.532C858.522 214.354 858.503 214.217 858.555 214.121C858.606 214.022 858.728 213.972 858.92 213.972C859.11 213.972 859.278 214.021 859.425 214.12C859.572 214.216 859.692 214.355 859.785 214.538L859.832 214.631L859.457 214.631L859.398 214.516C859.359 214.438 859.314 214.383 859.263 214.348C859.211 214.312 859.152 214.294 859.087 214.294C858.955 214.294 858.925 214.366 858.998 214.51C859.039 214.591 859.102 214.667 859.186 214.738C859.273 214.809 859.406 214.894 859.587 214.995C859.818 215.124 859.992 215.24 860.108 215.345C860.224 215.45 860.318 215.574 860.389 215.715C860.483 215.9 860.503 216.041 860.45 216.14C860.399 216.239 860.276 216.288 860.081 216.288ZM860.222 214.325L859.807 214.325L859.644 214.004L860.871 214.002L861.034 214.324L860.619 214.325L861.598 216.255L861.201 216.255L860.222 214.325ZM861.204 214.002L861.741 214.002L863.295 216.253L862.898 216.254L862.599 215.806L862.603 215.813L862.152 215.813L862.303 216.254L861.935 216.255L861.204 214.002ZM862.401 215.507L861.659 214.394L861.652 214.394L862.043 215.508L862.401 215.507ZM862.653 214.323L862.238 214.323L862.075 214.001L863.301 214L863.465 214.322L863.05 214.322L864.029 216.252L863.632 216.253L862.653 214.323ZM863.494 214L863.89 213.999L865.033 216.251L864.636 216.252L863.494 214ZM865.862 216.283C865.67 216.283 865.5 216.235 865.353 216.139C865.204 216.04 865.083 215.9 864.991 215.717L864.925 215.589L865.301 215.588L865.379 215.743C865.453 215.888 865.559 215.961 865.696 215.961C865.763 215.961 865.805 215.944 865.821 215.91C865.839 215.873 865.827 215.815 865.787 215.736C865.739 215.641 865.673 215.559 865.589 215.488C865.504 215.415 865.371 215.328 865.19 215.228C864.961 215.099 864.788 214.984 864.671 214.881C864.553 214.776 864.46 214.658 864.394 214.527C864.304 214.349 864.285 214.212 864.337 214.115C864.388 214.016 864.509 213.967 864.702 213.966C864.892 213.966 865.06 214.015 865.206 214.114C865.354 214.21 865.474 214.35 865.566 214.532L865.613 214.625L865.238 214.626L865.18 214.51C865.14 214.433 865.095 214.377 865.044 214.343C864.992 214.306 864.933 214.288 864.868 214.288C864.736 214.288 864.706 214.36 864.779 214.504C864.821 214.585 864.883 214.662 864.967 214.732C865.054 214.803 865.188 214.889 865.369 214.989C865.6 215.118 865.773 215.235 865.889 215.34C866.005 215.445 866.099 215.568 866.171 215.71C866.264 215.894 866.285 216.036 866.231 216.134C866.18 216.233 866.057 216.283 865.862 216.283ZM866.003 214.319L865.589 214.32L865.425 213.998L866.652 213.997L866.815 214.318L866.4 214.319L867.38 216.249L866.983 216.25L866.003 214.319ZM860.216 217.572L860.613 217.572L861.756 219.824L861.359 219.824L860.216 217.572ZM862.628 219.855C862.438 219.855 862.268 219.807 862.118 219.711C861.971 219.614 861.852 219.478 861.763 219.302L861.149 218.092C861.06 217.917 861.04 217.78 861.09 217.684C861.142 217.587 861.263 217.539 861.453 217.538C861.643 217.538 861.812 217.586 861.959 217.683C862.109 217.779 862.229 217.915 862.318 218.091L862.439 218.329L862.064 218.33L861.932 218.069C861.861 217.93 861.759 217.86 861.627 217.86C861.495 217.86 861.464 217.93 861.535 218.07L862.173 219.327C862.243 219.465 862.344 219.533 862.476 219.533C862.608 219.533 862.64 219.464 862.57 219.327L862.395 218.983L862.77 218.982L862.932 219.301C863.021 219.477 863.04 219.613 862.988 219.71C862.938 219.806 862.818 219.855 862.628 219.855Z" fill="white"/>
<path d="M1099.74 482H1075.17C1088.04 398.428 1035.11 371.76 1027.91 325.531C1024.23 301.952 1030 277.601 1036.68 259.157H1077.37L1116.93 458.398C1119.33 470.525 1110.98 482 1099.74 482Z" fill="#D8C3A5"/>
<path d="M1099.74 481.979H1081.85C1097.93 412.056 1073 353.884 1065.77 315.965C1062.7 299.868 1065.67 278.802 1070.41 259.137H1077.37L1116.93 458.378C1119.33 470.504 1110.98 481.979 1099.74 481.979Z" fill="#EAE7DC"/>
<path d="M661.065 194.118C646.466 200.954 635.498 200.343 628.308 196.459C655.801 186.753 669.69 161.491 676.625 140.748C686.1 151.105 689.017 181.035 661.065 194.118Z" fill="#8E8D8A" fill-opacity="0.59"/>
<path d="M925.166 459.083L900.845 356.573H836.268C833.569 370.647 835.558 391.971 856.01 419.285C871.748 440.305 874.928 462.742 873.144 481.998H909.158C920.001 481.998 927.915 470.67 925.166 459.083Z" fill="#D8C3A5"/>
<path d="M900.845 356.573H874.011C871.4 370.248 872.053 386.364 880.845 402.913C892.533 424.91 888.154 456.192 880.841 481.998H909.158C920.001 481.998 927.915 470.67 925.166 459.083L900.845 356.573Z" fill="#EAE7DC"/>
<path d="M743.038 463.966L738.419 450.729H661.139C661.033 454.663 663.838 460.866 676.28 469.435C681.668 473.146 685.356 477.497 687.846 481.998H731.835C740.264 481.998 746.069 472.654 743.038 463.966Z" fill="#D8C3A5"/>
<path d="M743.038 463.966L738.419 450.729H695.158C696.388 454.331 698.094 458.083 700.4 461.943C704.596 468.964 706.627 475.761 707.328 481.998H731.835C740.264 481.998 746.069 472.654 743.038 463.966Z" fill="#EAE7DC"/>
</svg>
