<svg width="666" height="708" viewBox="0 0 666 708" fill="none" xmlns="http://www.w3.org/2000/svg">
<path d="M686.647 541.326C564.73 759.612 91.7578 524.929 92.3742 274.213C92.4131 258.379 92.9021 246.321 94.8466 233.772C109.326 140.254 185.463 99.619 260.881 110.45C336.299 121.28 396.074 16.2952 530.058 -26.8202C637.645 -61.4458 725.99 6.52672 738.503 77.4369C741.575 94.8296 735.001 108.639 733.19 128.679C724.6 223.747 703.542 300.771 726.458 373.192C749.365 445.616 719.534 482.445 686.647 541.326Z" fill="#C4C4C3" fill-opacity="0.37"/>
<path d="M246.841 589.472H124V558.203H238.541L246.841 589.472Z" fill="#E85A4F"/>
<path d="M174.208 301.592C159.609 308.428 148.641 307.817 141.451 303.933C133.682 299.731 130.312 291.714 131.512 285.109C133.823 272.389 150.515 268.982 153.922 256.643C157.329 244.297 171.959 236.211 187.185 246.003C188.087 246.579 188.953 247.329 189.767 248.222C199.243 258.579 202.159 288.509 174.208 301.592Z" fill="#8E8D8A" fill-opacity="0.46"/>
<path d="M411.963 589.472H286.426V464.047H400.966L411.963 589.472Z" fill="#E8594F"/>
<path d="M604.741 589.472H462.944V366.631H577.484L604.741 589.472Z" fill="#E8594F"/>
<path d="M207.993 316.535C207.993 316.535 218.026 319.721 214.958 332.673C214.958 332.673 203.614 324.316 207.993 316.535Z" fill="#E98074"/>
<path d="M197.577 313.897C197.577 313.897 182.119 311.908 175.786 332.542C169.453 353.177 139.105 352.943 130.038 370.213C111.284 405.937 154.259 454.611 191.968 409.573C229.678 364.534 208.807 317.886 197.577 313.897Z" fill="#E98074"/>
<path d="M242.66 427.236C242.66 427.236 247.046 436.308 253.004 436.7C253.004 436.7 255.55 437.898 251.282 432.724C251.282 432.724 254.335 428.781 260.924 437.087C260.924 437.087 266.803 424.684 248.162 422.865L245.911 420.142L241.321 425.455L242.66 427.236Z" fill="#F9CCC6"/>
<path d="M214.903 399.675L202.853 365.125C201.13 360.185 205.213 355.173 209.842 356.546C212.94 357.465 215.453 359.963 216.606 363.269L227.441 394.339C228.776 398.164 227.05 402.459 223.587 403.933C220.125 405.407 216.236 403.5 214.903 399.675Z" fill="#2B2B2B"/>
<path d="M241.611 427.942L247.265 421.741L227.082 395.421C224.702 392.529 220.619 392.414 218.109 395.169C215.544 397.984 215.69 402.614 218.425 405.224L241.611 427.942Z" fill="#2B2B2B"/>
<path d="M223.534 393.282C221.627 392.922 219.593 393.539 218.109 395.168C215.544 397.983 215.69 402.613 218.425 405.224L237.519 423.458C232.513 417.05 227.604 405.16 223.534 393.282Z" fill="#171717"/>
<path d="M213.419 358.521C212.372 357.617 211.161 356.937 209.842 356.546C207.196 355.761 204.732 357.064 203.424 359.245C203.229 361.095 203.276 363.495 203.345 366.534L214.902 399.675C216.237 403.5 220.125 405.406 223.587 403.933C224.789 403.421 225.776 402.565 226.504 401.511C218.999 381.836 213.419 358.521 213.419 358.521Z" fill="#171717"/>
<path d="M183.817 483.49C178.72 483.49 174.764 479.203 175.36 474.324L174.318 448.013C174.064 441.594 175.115 435.195 177.392 429.282L179.636 423.459L204.567 420.142L192.273 476.254C191.762 480.382 188.13 483.49 183.817 483.49Z" fill="#2B2B2B"/>
<path d="M153.895 538.102L190.018 482.341C193.068 478.511 192.501 472.619 188.79 469.584C185.118 466.581 179.91 467.642 177.451 471.896L162.956 491.538C160.508 494.814 158.389 498.374 156.637 502.157L152.71 512.137C150.42 518.536 149.298 526.121 145.645 531.694L153.895 538.102Z" fill="#2B2B2B"/>
<path d="M151.464 536.413C151.464 536.413 150.753 542.08 161.778 555.774C161.778 555.774 161.714 559.794 157.259 555.16C152.802 550.526 140.77 538.013 140.77 538.013L145.644 531.694L151.464 536.413Z" fill="#384349"/>
<path d="M214.254 486.736C219.352 486.736 223.307 482.449 222.711 477.569L216.027 422.848H191.676L205.799 479.5C206.309 483.627 209.941 486.736 214.254 486.736Z" fill="#2B2B2B"/>
<path d="M228.758 548.392L223.275 479.83C223.12 474.732 219.051 470.872 214.465 471.472C209.928 472.065 206.795 476.781 207.643 481.741L209.278 507.017C209.528 511.256 210.195 515.453 211.266 519.533L214.601 529.773C216.904 536.167 218.666 542.538 219.464 549.362L228.758 548.392Z" fill="#2B2B2B"/>
<path d="M228.758 548.392C228.758 548.392 231.757 553.057 248.282 554.68C248.282 554.68 250.73 557.654 244.61 557.654C238.489 557.654 221.964 557.654 221.964 557.654L221.592 549.362L228.758 548.392Z" fill="#384349"/>
<path d="M207.336 356.323C207.336 356.323 209.248 358.932 217.847 372.145C219.639 374.897 219.611 378.62 217.76 381.326C217.02 382.408 216.093 383.583 214.942 384.777C214.942 384.777 215.503 416.573 217.874 430.484C218.161 432.168 217.092 433.76 215.55 433.928C209.77 434.559 195.956 435.167 178.375 429.856C177.103 429.472 176.412 427.954 176.893 426.598C179.491 419.262 186.253 396.68 181.554 371.328C181.554 371.328 177.9 355.384 196.812 356.321L207.336 356.323Z" fill="#343435"/>
<path d="M193.148 363.776C189.175 359.238 186.095 360.422 182.301 363.285C182.175 363.381 182.073 363.519 182.017 363.677C180.672 367.481 181.554 371.328 181.554 371.328C186.351 397.209 179.204 420.204 176.736 427.037C176.461 427.799 177.247 428.486 177.861 428.026C190.162 418.812 193.104 369.114 193.357 364.4C193.369 364.17 193.293 363.942 193.148 363.776Z" fill="#171717"/>
<path d="M194.921 342.547C194.921 342.547 193.524 352.322 193.375 356.347C193.375 356.347 200.174 360.197 206.196 356.772C206.196 356.772 205.607 348.838 207.318 344.093L194.921 342.547Z" fill="#F9CCC6"/>
<path d="M170.177 396.148L192.09 368.131C195.224 364.125 192.915 357.884 188.139 357.447C184.942 357.156 181.812 358.568 179.715 361.249L160.009 386.444C157.583 389.546 157.892 394.232 160.701 396.912C163.508 399.592 167.751 399.249 170.177 396.148Z" fill="#343435"/>
<path d="M173.932 450.321H171.291C171.291 445.28 165.486 441.18 158.35 441.18C151.215 441.18 145.409 445.28 145.409 450.321H142.768C142.768 443.672 149.758 438.263 158.35 438.263C166.942 438.263 173.932 443.672 173.932 450.321Z" fill="#EAE7DC"/>
<path d="M183.308 449.057H130.488C127.353 449.057 124.811 451.865 124.811 455.329V491.211C124.811 494.675 127.353 497.483 130.488 497.483H183.308C186.444 497.483 188.986 494.675 188.986 491.211V455.329C188.986 451.865 186.444 449.057 183.308 449.057Z" fill="#EAE7DC"/>
<path d="M188.986 491.211V455.329C188.986 451.865 186.443 449.057 183.308 449.057H135.77C132.634 449.057 130.092 451.865 130.092 455.329V491.211C130.092 494.675 132.634 497.483 135.77 497.483H183.308C186.444 497.483 188.986 494.675 188.986 491.211Z" fill="#E85A4F"/>
<path d="M132.733 453.725L152.243 470.923C156.519 474.693 162.58 474.725 166.889 471L186.873 453.725" stroke="white" stroke-miterlimit="10"/>
<path d="M161.406 469.426C161.406 469.973 161.209 470.497 160.859 470.884C160.509 471.27 160.034 471.487 159.539 471.487C159.044 471.487 158.57 471.27 158.22 470.884C157.869 470.497 157.673 469.973 157.673 469.426C157.673 468.879 157.869 468.355 158.22 467.968C158.57 467.581 159.044 467.364 159.539 467.364C160.034 467.364 160.509 467.581 160.859 467.968C161.209 468.355 161.406 468.879 161.406 469.426V469.426Z" fill="#EAE7DC"/>
<path d="M134.23 487.953H185.288V490.676H134.23V487.953Z" fill="#EAE7DC"/>
<path d="M163.895 428.46C163.895 428.46 164.585 433.536 164.22 439.152C164.22 439.152 163.644 439.29 160.5 438.793C160.5 438.793 160.317 440.888 162.886 441.759C162.886 441.759 146.697 446.351 157.138 429.032L157.272 425.347L163.881 426.145L163.895 428.46Z" fill="#F9CCC6"/>
<path d="M165.295 427.814L157.14 427.024L157.258 393.042C157.391 389.136 160.447 386.143 163.973 386.464C167.576 386.791 170.165 390.436 169.596 394.379L165.295 427.814Z" fill="#343435"/>
<path d="M205.438 318.589C209.661 319.793 212.702 323.56 213.725 328.149L213.73 328.142C213.73 328.142 215.031 333.263 218.635 333.662C218.635 333.662 217.247 337.98 215.265 337.938C215.265 337.938 213.613 353.666 199.167 345.429C192.883 343.637 189.192 336.177 190.924 328.765C192.656 321.354 199.154 316.798 205.438 318.589Z" fill="#F9CCC6"/>
<path d="M210.044 338.154C210.044 338.154 210.147 341.018 213.062 341.435" stroke="black" stroke-miterlimit="10"/>
<path d="M210.856 322.192C210.856 322.192 201.346 321.093 200.64 333.471C199.935 345.849 192.307 354.529 192.307 354.529C192.307 354.529 178.577 343.836 180.621 328.761C182.924 311.768 212.869 306.941 210.856 322.192Z" fill="#E98074"/>
<path d="M193.375 356.346C196.464 359.449 207.599 368.221 208.029 367.984C208.551 367.696 207.337 356.323 207.337 356.323L196.812 356.32C195.571 356.258 194.43 356.272 193.375 356.346Z" fill="#F9CCC6"/>
<path d="M208.029 367.984L195.892 356.288L193.375 356.347C193.375 356.346 205.116 367.413 208.029 367.984Z" fill="#DAEBF8"/>
<path d="M207.336 356.323L206.166 356.28C206.166 356.28 207.116 367.509 208.029 367.984C208.029 367.984 208.681 367.656 207.336 356.323Z" fill="#DAEBF8"/>
<path d="M204.968 366.258C204.968 366.258 207.128 365.852 208.394 364.827C208.394 364.827 208.477 369.349 207.796 369.133L206.682 369.14L204.968 366.258Z" fill="#E98074"/>
<path d="M207.796 369.132C207.796 369.132 213.582 393.543 205.505 413.656L200.346 417.979L198.59 411.351C198.59 411.351 206.966 385.79 206.682 369.14L207.796 369.132Z" fill="#E98074"/>
<path d="M205.505 365.553L203.285 368.46C203.285 368.46 191.088 358.529 191.697 356.529C191.697 356.529 192.28 354.581 193.524 354.124C193.524 354.124 203.978 363.521 205.505 365.553Z" fill="#C0D2DD"/>
<path d="M207.318 365.769L208.037 364.142L209.427 366.81C209.427 366.81 209.47 359.555 207.336 356.323L206.166 356.28L207.318 365.769Z" fill="#C0D2DD"/>
<path d="M466.345 385.167C466.345 385.167 465.765 391.022 451.645 401.631C451.645 401.631 450.794 405.661 456.296 402.272C461.799 398.883 476.656 389.732 476.656 389.732L473.228 382.071L466.345 385.167Z" fill="#2B2B2B"/>
<path d="M465.743 432.407C465.743 432.407 463.91 437.938 447.898 444.498C447.898 444.498 446.197 448.185 452.275 446.352C458.353 444.52 474.763 439.571 474.763 439.571L473.098 431.226L465.743 432.407Z" fill="#2B2B2B"/>
<path d="M443.977 321.74C445.524 316.202 450.543 313.204 454.706 315.333L501.406 339.2L496.902 368.345L447.855 333.123C444.335 331.315 442.669 326.426 443.977 321.74Z" fill="#2B2B2B"/>
<path d="M466.399 385.275L444.024 328.145C442.134 324.037 444.255 318.738 448.617 316.671C452.932 314.627 457.627 316.613 458.84 320.996L467.436 341.843C468.899 345.327 469.971 349.007 470.633 352.819L471.713 362.744C472.188 369.063 472.276 375.325 474.276 381.151L466.399 385.275Z" fill="#2B2B2B"/>
<path d="M452.834 296.827L487.055 291.958C491.949 291.262 494.057 284.724 490.665 280.767C488.395 278.119 485.116 276.829 481.842 277.295L451.068 281.674C447.279 282.213 444.603 286.042 445.092 290.227C445.579 294.411 449.046 297.366 452.834 296.827Z" fill="#464547"/>
<path d="M458.138 366.42C455.078 361.712 455.948 355.484 459.999 353.104L522.746 341.494L523.616 350.348C524.587 360.237 517.791 368.975 508.795 369.404L469.086 371.301C464.078 371.606 460.729 370.403 458.138 366.42Z" fill="#343435"/>
<path d="M465.877 433.003L455.823 363.027C454.824 357.894 458.013 352.914 462.727 352.246C467.393 351.585 471.589 355.428 471.865 360.615L475.957 386.306C476.667 390.608 476.952 394.983 476.807 399.353L475.797 410.499C474.945 417.519 472.503 424.957 473.252 431.992L465.877 433.003Z" fill="#343435"/>
<path d="M425.207 264.766C425.207 264.766 419.407 256.338 413.294 257.016C413.294 257.016 410.529 256.258 415.631 260.746C415.631 260.746 413.112 265.304 405.186 258.052C405.186 258.052 401.046 271.719 420.262 270.202L422.952 272.563L426.831 266.334L425.207 264.766Z" fill="#F9CCC6"/>
<path d="M421.72 274.686L425.295 264.656L453.871 284.051C456.907 286.272 457.653 290.844 455.509 294.095C453.318 297.418 449.03 297.979 446.197 295.314L421.72 274.686Z" fill="#464547"/>
<path d="M486.05 276.509C486.05 276.509 500.528 269.258 512.403 272.81C512.403 272.81 523.52 302.908 522.172 332.248C522.172 332.248 524.888 341.764 525.409 345.758C525.409 345.758 493.101 361.999 483.986 334.041C483.986 334.041 488.378 322.156 480.988 297.821C480.988 297.82 478.189 279.451 486.05 276.509Z" fill="#4D4B50"/>
<path d="M497.912 262.45C497.912 262.45 497.612 272.848 501.443 275.303C501.443 275.303 493.694 280.999 487.283 277.971C487.283 277.971 487.36 269.778 485.287 265.045L497.912 262.45Z" fill="#F9CCC6"/>
<path d="M512.874 316.416L503.36 279.78C502 274.542 506.598 269.812 511.232 271.685C514.332 272.938 516.704 275.752 517.614 279.257L526.17 312.203C527.223 316.259 525.101 320.49 521.429 321.653C517.757 322.816 513.928 320.471 512.874 316.416Z" fill="#464547"/>
<path d="M496.901 341.765L491.476 332.923L515.512 309.999C518.347 307.474 522.517 308.071 524.675 311.313C526.88 314.625 526.068 319.308 522.911 321.486L496.901 341.765Z" fill="#464547"/>
<path d="M492.21 332.271C492.21 332.271 483.136 335.678 481.781 342.298C481.781 342.298 480.254 344.954 485.725 341.03C485.725 341.03 488.841 345.113 480.103 351.121C480.103 351.121 490.527 359.787 495.312 339.175L498.191 337.104L494.071 331.067L492.21 332.271Z" fill="#F9CCC6"/>
<path d="M491.323 237.793C486.846 238.159 483.141 241.361 481.346 245.802L481.341 245.794C481.341 245.794 478.659 252.881 474.941 252.557C474.941 252.557 476.149 255.049 478.163 255.408C478.163 255.408 474.941 275.726 493.231 266.247C499.893 265.702 504.867 258.89 504.34 251.033C503.813 243.175 497.985 237.247 491.323 237.793Z" fill="#F9CCC6"/>
<path d="M491.638 243.703C491.638 243.703 485.642 252.247 490.319 256.015C490.319 256.015 493.29 266.5 498.261 268.075C498.261 268.075 513.153 258.328 506.173 242.589C506.173 242.589 507.175 239.308 497.715 236.362C488.256 233.415 490.292 229.788 490.292 229.788C490.292 229.788 486.374 232.29 487.732 233.714C485.16 233.365 481.008 237.503 483.893 241.662C483.893 241.662 489.15 241.084 491.638 243.703Z" fill="#4E4F53"/>
<path d="M483.012 259.713C481.473 259.9 479.581 259.69 477.958 259.435C477.987 260.293 478.067 261.22 478.234 262.146C481.538 261.686 483.012 259.713 483.012 259.713Z" fill="#EE293D"/>
<path d="M490.627 252.829C490.627 252.829 496.586 248.683 497.064 252.134C498 258.887 493.569 261.818 491.507 261.176C489.446 260.533 490.627 252.829 490.627 252.829Z" fill="#F9CCC6"/>
<path d="M500.058 272.225L495.474 319.114L486.05 276.509C486.05 276.509 492.356 273.353 500.058 272.225Z" fill="white"/>
<path d="M500.026 272.23L492.637 280.37L486.05 276.509C486.05 276.509 492.339 273.361 500.026 272.23Z" fill="#F9CCC6"/>
<path d="M494.07 280.947L491.127 281.502L492.817 284.43L494.07 280.947Z" fill="#EE293D"/>
<path d="M493.082 283.251L496.567 311.139L495.474 319.114L493.038 309.26L492.574 282.853L493.082 283.251Z" fill="#EE293D"/>
<path d="M495.474 319.114L501.818 287.676L499.565 283.017L504.428 275.606C504.428 275.606 503.052 271.604 500.065 272.186L495.474 319.114Z" fill="#353338"/>
<path d="M486.05 276.509C486.05 276.509 482.5 275.718 481.614 278.39L486.256 285.949L484.952 290.196L495.474 319.114L486.05 276.509Z" fill="#353338"/>
<path d="M492.637 280.369L496.292 282.928L500.941 273.717L499.693 272.257C499.693 272.257 492.803 277.303 492.637 280.369Z" fill="#C8C6CC"/>
<path d="M486.05 276.509C486.05 276.509 491.239 277.527 492.637 280.369L490.63 283.713C490.63 283.713 486.524 280.707 486.05 276.509Z" fill="#C8C6CC"/>
<path d="M244.978 589.472H147.931L137.021 558.203H251.562L256.181 571.44C259.212 580.128 253.407 589.472 244.978 589.472Z" fill="#E98074"/>
<path d="M422.301 589.472H329.205L299.448 464.047H413.988L438.309 566.557C441.058 578.144 433.144 589.472 422.301 589.472Z" fill="#E98074"/>
<path d="M612.883 589.474H520.216L475.964 366.631H590.509L630.07 565.872C632.475 577.999 624.122 589.474 612.883 589.474Z" fill="#E98074"/>
<path d="M414.304 232.174L414.323 232.243H414.323L414.304 232.174Z" fill="#344C75"/>
<path d="M414.323 232.24L401.552 235.172L401.532 235.105L414.304 232.174L414.323 232.24Z" fill="#364D78"/>
<path d="M415.668 260.016L402.896 262.948C402.581 263.02 402.255 263.059 401.92 263.06C401.567 263.061 401.206 263.021 400.836 262.936L413.608 260.004C413.978 260.089 414.339 260.129 414.692 260.128C415.027 260.127 415.353 260.089 415.668 260.016Z" fill="#364E78"/>
<path d="M413.609 260.004L400.837 262.935L385.491 259.405L398.262 256.473L413.609 260.004Z" fill="#E8594F"/>
<path d="M398.262 256.473L385.49 259.405L381.082 239.207L393.853 236.275L398.262 256.473Z" fill="#E8594F"/>
<path d="M393.854 236.276L381.082 239.207C380.622 237.109 380.92 235.113 381.711 233.559L394.483 230.627C393.693 232.181 393.395 234.178 393.854 236.276Z" fill="#E8594F"/>
<path d="M394.483 230.628L381.711 233.56C382.494 232.021 383.76 230.915 385.251 230.573L398.022 227.641C396.531 227.983 395.266 229.089 394.483 230.628Z" fill="#E8594F"/>
<path d="M419.68 250.81C421.039 255.533 418.399 260.117 414.691 260.128C414.339 260.129 413.977 260.089 413.608 260.004L398.262 256.473L393.854 236.276C392.843 231.66 395.498 227.539 398.995 227.529C399.476 227.527 399.972 227.603 400.477 227.766L414.322 232.24L419.68 250.81Z" fill="#E8594F" fill-opacity="0.79"/>
<path d="M371.034 200.103C370.175 199.572 369.296 199.33 368.45 199.332C368.122 199.333 367.799 199.371 367.483 199.444L354.711 202.375C355.027 202.303 355.35 202.265 355.678 202.264C356.524 202.262 357.403 202.504 358.262 203.034L371.305 211.025L384.077 208.094L371.034 200.103Z" fill="#E8594F"/>
<path d="M356.559 159.628C356.625 159.518 356.693 159.409 356.763 159.305C356.819 159.223 356.875 159.144 356.933 159.066C357.006 158.968 357.082 158.874 357.159 158.782C357.22 158.711 357.28 158.64 357.343 158.573C357.424 158.486 357.507 158.405 357.592 158.325C357.657 158.265 357.72 158.204 357.787 158.147C357.875 158.071 357.967 158.002 358.059 157.934C358.125 157.885 358.19 157.834 358.258 157.789C358.356 157.723 358.457 157.666 358.559 157.608C358.624 157.571 358.688 157.53 358.754 157.497C358.868 157.439 358.984 157.391 359.101 157.344C359.158 157.321 359.213 157.293 359.271 157.272C359.446 157.209 359.623 157.155 359.803 157.114L347.031 160.046C346.851 160.087 346.674 160.141 346.498 160.204C346.441 160.225 346.386 160.252 346.329 160.276C346.213 160.324 346.096 160.371 345.982 160.429C345.916 160.463 345.851 160.503 345.786 160.541C345.685 160.598 345.584 160.655 345.487 160.721C345.418 160.767 345.353 160.818 345.286 160.867C345.195 160.935 345.103 161.004 345.015 161.08C344.948 161.136 344.884 161.197 344.82 161.258C344.735 161.337 344.652 161.418 344.571 161.505C344.508 161.572 344.448 161.643 344.387 161.715C344.31 161.806 344.234 161.9 344.161 161.998C344.103 162.076 344.047 162.156 343.991 162.237C343.921 162.341 343.854 162.449 343.787 162.56C343.736 162.647 343.685 162.735 343.635 162.826C343.611 162.871 343.584 162.911 343.561 162.957C343.492 163.092 343.427 163.232 343.364 163.376L337.2 177.619C337.125 177.793 337.041 177.959 336.955 178.122C336.913 178.201 336.869 178.278 336.824 178.355C336.765 178.456 336.705 178.556 336.642 178.653C336.594 178.727 336.544 178.799 336.492 178.87C336.427 178.962 336.358 179.053 336.288 179.14C336.235 179.207 336.18 179.272 336.125 179.336C336.051 179.42 335.975 179.5 335.898 179.578C335.84 179.638 335.782 179.696 335.722 179.752C335.641 179.828 335.557 179.898 335.472 179.968C335.411 180.018 335.351 180.069 335.288 180.116C335.197 180.184 335.103 180.246 335.01 180.307C334.948 180.347 334.888 180.389 334.826 180.426C334.72 180.488 334.61 180.541 334.501 180.595C334.447 180.622 334.393 180.653 334.337 180.677C334.171 180.751 334 180.816 333.827 180.869L346.599 177.937C346.772 177.884 346.942 177.819 347.109 177.745C347.165 177.721 347.218 177.69 347.273 177.664C347.382 177.61 347.492 177.556 347.598 177.494C347.66 177.457 347.72 177.415 347.781 177.375C347.876 177.314 347.969 177.253 348.06 177.185C348.123 177.138 348.183 177.087 348.244 177.037C348.329 176.967 348.412 176.896 348.494 176.821C348.554 176.765 348.612 176.706 348.67 176.647C348.747 176.569 348.822 176.488 348.896 176.405C348.952 176.341 349.007 176.275 349.06 176.208C349.13 176.12 349.199 176.03 349.265 175.937C349.316 175.867 349.365 175.795 349.414 175.721C349.477 175.624 349.538 175.523 349.597 175.421C349.642 175.345 349.686 175.269 349.728 175.19C349.745 175.156 349.765 175.126 349.782 175.092C349.849 174.96 349.913 174.825 349.973 174.686L356.137 160.444C356.221 160.251 356.313 160.071 356.408 159.894C356.456 159.803 356.508 159.715 356.559 159.628Z" fill="#E8594F"/>
<path d="M347.996 235.483C344.855 235.492 341.933 232.114 342.014 227.78L342.314 211.192C342.351 209.287 341.775 207.405 340.721 205.958L327.949 208.89C329.003 210.337 329.579 212.219 329.542 214.123L329.242 230.712C329.161 235.046 332.083 238.424 335.224 238.415C335.544 238.414 335.867 238.378 336.188 238.304L348.959 235.373C348.639 235.446 348.316 235.482 347.996 235.483Z" fill="#E8594F"/>
<path d="M360.799 157C362.661 156.994 364.577 158.132 365.783 160.414L373.296 174.616C374.158 176.249 375.485 177.412 376.981 177.846L389.988 181.621C394.171 182.831 396.092 189.133 393.521 193.191L384.077 208.094L371.033 200.102C370.174 199.572 369.295 199.329 368.45 199.332C365.491 199.34 362.948 202.348 363.144 206.479L363.906 222.543C364.042 225.413 362.799 228.007 360.76 229.123L350.156 234.914C349.447 235.301 348.716 235.48 347.997 235.483C344.855 235.492 341.933 232.114 342.014 227.78L342.314 211.191C342.351 209.287 341.775 207.405 340.721 205.958L331.519 193.376C328.564 189.334 329.887 183.023 333.949 181.788L346.599 177.936C348.05 177.493 349.266 176.323 349.973 174.685L356.136 160.443C357.128 158.154 358.937 157.006 360.799 157Z" fill="#E98074" fill-opacity="0.45"/>
<path d="M331.069 192.68C331.037 192.623 331.004 192.566 330.972 192.509C330.842 192.272 330.72 192.03 330.615 191.783C330.606 191.761 330.598 191.739 330.589 191.718C330.493 191.486 330.409 191.25 330.334 191.012C330.314 190.952 330.296 190.892 330.278 190.832C330.203 190.578 330.139 190.322 330.088 190.064C330.081 190.027 330.076 189.989 330.069 189.952C330.026 189.72 329.994 189.488 329.971 189.255C329.964 189.196 329.958 189.137 329.952 189.078C329.931 188.819 329.919 188.561 329.92 188.304C329.92 188.256 329.923 188.21 329.924 188.163C329.928 187.937 329.941 187.712 329.962 187.489C329.967 187.436 329.971 187.383 329.977 187.33C330.006 187.078 330.045 186.83 330.094 186.586C330.105 186.534 330.117 186.484 330.128 186.433C330.176 186.22 330.231 186.009 330.295 185.803C330.308 185.76 330.32 185.715 330.334 185.672C330.41 185.44 330.496 185.214 330.592 184.994C330.614 184.944 330.638 184.896 330.661 184.847C330.747 184.661 330.84 184.48 330.941 184.306C330.966 184.263 330.988 184.219 331.014 184.177C331.136 183.975 331.269 183.782 331.41 183.598C331.443 183.555 331.478 183.515 331.512 183.473C331.632 183.327 331.758 183.187 331.889 183.054C331.93 183.013 331.97 182.971 332.012 182.931C332.178 182.774 332.352 182.627 332.537 182.494C332.566 182.472 332.599 182.455 332.629 182.434C332.791 182.323 332.959 182.223 333.132 182.132C333.187 182.103 333.242 182.074 333.298 182.048C333.508 181.949 333.723 181.858 333.95 181.79L346.599 177.938L333.827 180.87L321.178 184.722C320.951 184.791 320.736 184.881 320.526 184.98C320.471 185.006 320.415 185.035 320.36 185.064C320.186 185.155 320.018 185.255 319.857 185.365C319.827 185.387 319.794 185.405 319.764 185.426C319.579 185.559 319.406 185.706 319.24 185.863C319.198 185.903 319.158 185.945 319.117 185.987C318.985 186.119 318.859 186.259 318.74 186.405C318.706 186.447 318.671 186.487 318.637 186.53C318.496 186.714 318.364 186.907 318.241 187.109C318.216 187.151 318.193 187.195 318.169 187.239C318.111 187.34 318.051 187.439 317.997 187.543C317.958 187.62 317.925 187.7 317.888 187.779C317.866 187.828 317.842 187.876 317.821 187.926C317.725 188.146 317.637 188.372 317.561 188.605C317.547 188.647 317.536 188.692 317.523 188.735C317.459 188.941 317.404 189.152 317.356 189.365C317.345 189.416 317.332 189.467 317.322 189.518C317.272 189.763 317.233 190.011 317.204 190.263C317.198 190.316 317.194 190.369 317.19 190.422C317.168 190.644 317.156 190.869 317.152 191.094C317.151 191.142 317.148 191.189 317.148 191.236C317.147 191.493 317.158 191.752 317.18 192.01C317.185 192.07 317.192 192.128 317.198 192.187C317.222 192.42 317.254 192.652 317.297 192.884C317.304 192.922 317.308 192.96 317.316 192.997C317.367 193.255 317.432 193.511 317.506 193.765C317.524 193.826 317.543 193.886 317.562 193.946C317.637 194.183 317.721 194.418 317.817 194.649C317.827 194.672 317.834 194.694 317.844 194.717C317.949 194.964 318.071 195.205 318.201 195.443C318.233 195.5 318.265 195.557 318.298 195.614C318.437 195.852 318.583 196.086 318.748 196.311L327.95 208.892L340.721 205.96L331.519 193.379C331.354 193.153 331.208 192.918 331.069 192.68Z" fill="#E8594F"/>
<path d="M523.992 366.823L559.797 366.639L559.782 362.952L523.977 363.135C523.054 363.14 522.311 363.969 522.315 364.988C522.319 366.006 523.07 366.828 523.992 366.823Z" fill="#772D18"/>
<path d="M541.911 366.731L584.899 366.51C586.54 366.501 587.999 365.352 588.54 363.639L596.343 338.916C596.978 336.906 595.621 334.807 593.694 334.817L553.979 335.021C552.743 335.028 551.644 335.894 551.237 337.183L541.911 366.731Z" fill="#772D18"/>
<path d="M593.694 334.817C595.621 334.807 596.978 336.906 596.343 338.916L588.383 364.136C587.936 365.55 586.731 366.501 585.375 366.507L545.841 366.711L555.846 335.011L593.694 334.817Z" fill="#CF582B"/>
<path d="M570.786 351.469C570.983 350.547 571.441 349.732 572.06 349.205C572.678 348.678 573.406 348.481 574.083 348.658C574.76 348.835 575.332 349.37 575.671 350.148C576.01 350.925 576.09 351.88 575.893 352.802C575.696 353.724 575.238 354.539 574.619 355.066C574.001 355.593 573.273 355.79 572.596 355.613C571.918 355.436 571.347 354.901 571.008 354.123C570.668 353.346 570.588 352.391 570.786 351.469Z" fill="#F47944"/>
<path d="M210.542 319.4C210.542 319.4 208.917 311.017 202.451 309.864C195.984 308.711 193.524 309.864 193.524 309.864C193.524 309.864 195.985 310.416 197.376 311.965C197.376 311.965 191.682 312.256 189.224 316.536C189.224 316.535 206.247 315.231 210.542 319.4Z" fill="#E98074"/>
<path d="M394.874 384.197C393.218 378.256 387.838 375.038 383.371 377.318L333.276 402.881L338.091 434.139L390.709 396.401C394.485 394.465 396.274 389.223 394.874 384.197Z" fill="#2B2B2B"/>
<path d="M396.345 454.21L395.083 387.471C395.267 382.533 391.057 378.411 385.97 378.547C380.935 378.681 377.159 382.932 377.748 387.804L377.788 412.371C377.768 416.489 378.21 420.606 379.105 424.65L382.061 434.861C384.151 441.258 386.594 447.408 386.998 454.074L396.345 454.21Z" fill="#2B2B2B"/>
<path d="M367.156 460.515C372.209 457.779 374.243 451.406 371.506 446.889L331.531 393.024L310.399 412.961C310.05 418.554 308.581 432.279 317.121 435.941L354.571 459.002C359.162 462.093 362.881 462.83 367.156 460.515Z" fill="#343435"/>
<path d="M295.313 464.921L364.079 463.139C369.174 463.315 373.315 458.638 373.043 453.015C372.775 447.451 368.296 443.303 363.289 443.982L337.965 444.168C333.719 444.17 329.486 444.683 325.34 445.694L314.89 449.021C308.351 451.368 301.718 455.647 294.856 456.131L295.313 464.921Z" fill="#343435"/>
<path d="M346.192 381.177L335.283 342.12C333.722 336.535 338.561 331.356 343.566 333.255C346.914 334.525 349.512 337.486 350.556 341.224L360.366 376.346C361.574 380.67 359.38 385.256 355.466 386.59C351.551 387.924 347.399 385.501 346.192 381.177Z" fill="#464547"/>
<path d="M387.284 376.037L386.587 364.503L351.673 374.046C347.916 375.225 345.807 379.627 347.04 383.721C348.3 387.904 352.515 390.019 356.196 388.315L387.284 376.037Z" fill="#464547"/>
<path d="M340.295 332.994C340.295 332.994 323.808 328.202 311.831 334.315C311.831 334.315 304.975 368.342 311.175 399.095C311.175 399.095 309.852 409.695 309.951 414.02C309.951 414.02 346.75 424.777 351.838 393.408C351.838 393.408 345.261 381.715 349.114 354.52C349.114 354.52 349.084 334.543 340.295 332.994Z" fill="#4D4B50"/>
<path d="M395.875 453.551C395.875 453.551 398.805 458.974 416.861 462.359C416.861 462.359 419.319 465.869 412.584 465.277C405.85 464.685 387.665 463.085 387.665 463.085L387.913 453.924L395.875 453.551Z" fill="#2B2B2B"/>
<path d="M294.43 465.001C294.43 465.001 289.566 461.68 272.131 467.871C272.131 467.871 268.485 466.008 274.708 463.104C280.932 460.2 297.737 452.359 297.737 452.359L301.34 460.614L294.43 465.001Z" fill="#2B2B2B"/>
<path d="M362.566 357.689C362.566 357.689 372.707 355.841 375.191 349.099C375.191 349.099 377.227 346.584 370.817 349.677C370.817 349.677 368.168 344.754 378.366 340.09C378.366 340.09 368.711 328.903 360.38 349.785L357.005 351.419L360.407 358.603L362.566 357.689Z" fill="#F9CCC6"/>
<path d="M386.12 363.933C386.12 363.933 394.239 356.973 400.404 359.544C400.404 359.544 403.458 359.604 397.047 362.694C397.047 362.694 398.515 368.187 408.544 363.095C408.544 363.095 409.41 378.521 389.881 371.077L386.502 372.701L384.043 365.062L386.12 363.933Z" fill="#F9CCC6"/>
<path d="M324.789 331.246L337.265 379.909L340.295 332.994C340.295 332.994 333.114 330.909 324.789 331.246Z" fill="white"/>
<path d="M324.823 331.244L333.959 338.383L340.294 332.993C340.294 332.994 333.134 330.914 324.823 331.244Z" fill="#F9CCC6"/>
<path d="M325.466 320.485C325.466 320.485 327.475 331.419 323.825 334.774C323.825 334.774 332.944 339.258 339.229 334.784C339.229 334.784 337.815 326.137 339.236 320.721L325.466 320.485Z" fill="#F9CCC6"/>
<path d="M334.301 292.45C339.07 293.175 342.84 296.878 344.491 301.765L344.497 301.757C344.497 301.757 346.514 307.189 350.513 307.119C350.513 307.119 349.489 312.048 347.312 312.282C347.312 312.282 347.317 329.761 330.525 322.764C323.427 321.685 318.519 314.025 319.561 305.654C320.605 297.283 327.203 291.371 334.301 292.45Z" fill="#F9CCC6"/>
<path d="M341.309 295.867C341.309 295.867 337.658 304.179 332.422 307.865C332.422 307.865 331.63 323.112 326.215 324.428C326.215 324.428 314.062 317.728 317.753 301.047C317.753 301.047 314.642 300.528 313.616 301.115C313.616 301.115 315.058 298.94 317.734 298.304C317.734 298.304 321.251 289.222 331.555 286.772C341.859 284.322 338.322 278.407 338.322 278.407C338.322 278.407 343.903 284.376 338.394 288.352C338.394 288.352 346.605 289.455 348.877 295.785C348.876 295.785 344.132 293.249 341.309 295.867Z" fill="#F38720"/>
<path d="M341.261 314.237C343.747 315.821 347.07 314.78 347.07 314.78C346.803 316.401 346.237 318.543 345.05 320.4C341.787 320.026 341.261 314.237 341.261 314.237Z" fill="#EE293D"/>
<path d="M334.13 308.596C334.13 308.596 328.033 302.842 327.366 306.512C326.699 310.182 330.434 317.997 332.68 317.463C334.925 316.929 334.13 308.596 334.13 308.596Z" fill="#F9CCC6"/>
<path d="M333.959 338.383L330.512 341.814L324.097 332.998L325.179 331.207C325.179 331.206 333.285 335.174 333.959 338.383Z" fill="#C8C6CC"/>
<path d="M340.295 332.994C340.295 332.994 334.975 335.1 333.959 338.383L336.625 341.52C336.625 341.519 340.477 337.526 340.295 332.994Z" fill="#C8C6CC"/>
<path d="M332.538 339.278L335.74 339.28L334.429 342.712L332.538 339.278Z" fill="#EE293D"/>
<path d="M333.957 341.517L334.826 372.209L337.265 379.909L338.495 368.059L334.43 340.996L333.957 341.517Z" fill="#EE293D"/>
<path d="M337.265 379.909L325.441 347.931L327.065 342.558L320.718 335.688C320.718 335.688 321.522 331.183 324.774 331.206L337.265 379.909Z" fill="#353338"/>
<path d="M340.295 332.994C340.295 332.994 343.919 331.453 345.291 334.101L341.613 343.015L343.684 347.247L337.265 379.909L340.295 332.994Z" fill="#353338"/>
<path d="M340.108 371.255L320.823 336.372C318.066 331.384 311.348 331.963 309.324 337.364C307.97 340.977 308.26 345.088 310.106 348.426L327.448 379.795C329.583 383.657 334.148 384.875 337.644 382.518C341.139 380.159 342.243 375.117 340.108 371.255Z" fill="#464547"/>
<path d="M365.924 357.985L359.324 349.148L330.713 369.55C327.504 372.01 326.802 376.931 329.17 380.362C331.589 383.868 336.198 384.359 339.179 381.428L365.924 357.985Z" fill="#464547"/>
<path d="M379.177 369.054H410.858L388.634 315.217H356.953L379.177 369.054Z" fill="#BC2A4B"/>
<path d="M380.282 369.054H411.963L389.738 315.217H358.057L380.282 369.054Z" fill="#F0526D"/>
<path d="M380.63 367.072H409.978L388.827 316.041H359.479L380.63 367.072Z" fill="white"/>
<path d="M370.192 320.452H383.961L382.57 317.351H368.801L370.192 320.452Z" fill="#789ED3"/>
<path d="M364.089 320.537L381.507 362.727H406.334" stroke="#3D4142" stroke-miterlimit="10"/>
<path d="M382.854 361.04L383.956 349.788L387.557 347.43L388.438 341.121L390.517 340.583L391.013 331.012L395.584 334.097" stroke="#B6ACD5" stroke-miterlimit="10"/>
<path d="M391.623 325.094L384.439 323.305L381.988 332.96L383.698 342.422L383.06 346.291L379.348 352.659" stroke="#A398CA" stroke-miterlimit="10"/>
<path d="M382.121 361.04L382.318 354.513L385.723 353.334L386.185 339.816L389.352 339.454L388.457 326.14L390.069 321.179" stroke="#F68F78" stroke-miterlimit="10"/>
<path d="M369.739 317.912L370.345 317.911C370.542 317.911 370.714 317.958 370.861 318.052C371.007 318.147 371.127 318.285 371.219 318.467L371.797 319.606C371.89 319.788 371.911 319.927 371.86 320.021C371.809 320.116 371.685 320.163 371.488 320.163L370.882 320.164L369.739 317.912ZM371.317 319.841C371.382 319.841 371.423 319.824 371.439 319.79C371.458 319.755 371.448 319.7 371.408 319.622L370.814 318.451C370.775 318.374 370.729 318.318 370.675 318.284C370.624 318.25 370.566 318.233 370.501 318.233L370.299 318.233L371.115 319.842L371.317 319.841ZM371.504 317.91L372.042 317.909L373.596 320.161L373.199 320.161L372.9 319.714L372.903 319.721L372.452 319.721L372.604 320.162L372.236 320.162L371.504 317.91ZM372.701 319.415L371.96 318.302L371.952 318.302L372.344 319.416L372.701 319.415ZM372.954 318.23L372.539 318.231L372.375 317.909L373.602 317.908L373.765 318.23L373.35 318.23L374.33 320.16L373.933 320.161L372.954 318.23ZM373.935 317.908L374.473 317.907L376.027 320.159L375.63 320.159L375.331 319.712L375.334 319.718L374.883 319.719L375.035 320.16L374.667 320.16L373.935 317.908ZM375.132 319.413L374.391 318.3L374.383 318.3L374.775 319.413L375.132 319.413ZM373.224 323.763C373.032 323.763 372.862 323.715 372.714 323.618C372.565 323.52 372.445 323.379 372.352 323.197L372.287 323.068L372.662 323.068L372.74 323.222C372.814 323.368 372.92 323.441 373.057 323.441C373.124 323.441 373.166 323.424 373.182 323.389C373.2 323.353 373.189 323.295 373.148 323.215C373.101 323.121 373.035 323.038 372.951 322.968C372.866 322.895 372.732 322.808 372.551 322.707C372.323 322.579 372.15 322.463 372.032 322.36C371.914 322.255 371.822 322.137 371.755 322.006C371.665 321.828 371.646 321.691 371.698 321.595C371.749 321.496 371.871 321.446 372.063 321.446C372.253 321.446 372.421 321.495 372.567 321.594C372.715 321.69 372.835 321.829 372.928 322.012L372.975 322.105L372.6 322.105L372.541 321.99C372.502 321.912 372.457 321.857 372.406 321.822C372.353 321.786 372.295 321.768 372.23 321.768C372.098 321.768 372.068 321.84 372.141 321.984C372.182 322.065 372.245 322.141 372.329 322.212C372.415 322.283 372.549 322.368 372.73 322.469C372.961 322.598 373.135 322.714 373.251 322.819C373.367 322.924 373.46 323.048 373.532 323.189C373.626 323.374 373.646 323.515 373.593 323.614C373.542 323.713 373.419 323.762 373.224 323.763ZM373.365 321.799L372.95 321.799L372.787 321.478L374.013 321.476L374.177 321.798L373.762 321.799L374.741 323.729L374.344 323.729L373.365 321.799ZM374.347 321.476L374.884 321.476L376.438 323.727L376.041 323.728L375.742 323.28L375.745 323.287L375.294 323.287L375.446 323.728L375.078 323.729L374.347 321.476ZM375.543 322.981L374.802 321.868L374.795 321.868L375.186 322.982L375.543 322.981ZM375.796 321.797L375.381 321.797L375.218 321.475L376.444 321.474L376.607 321.796L376.193 321.796L377.172 323.726L376.775 323.727L375.796 321.797ZM376.636 321.474L377.033 321.473L378.176 323.726L377.779 323.726L376.636 321.474ZM379.005 323.757C378.813 323.757 378.643 323.709 378.495 323.613C378.347 323.514 378.226 323.374 378.134 323.191L378.068 323.063L378.443 323.062L378.522 323.217C378.596 323.362 378.701 323.435 378.838 323.435C378.906 323.435 378.948 323.418 378.964 323.384C378.981 323.347 378.97 323.289 378.93 323.21C378.882 323.115 378.816 323.033 378.732 322.962C378.647 322.889 378.514 322.802 378.333 322.702C378.104 322.573 377.931 322.458 377.814 322.355C377.696 322.25 377.603 322.132 377.537 322.001C377.446 321.823 377.427 321.686 377.479 321.589C377.53 321.49 377.652 321.441 377.844 321.44C378.034 321.44 378.203 321.489 378.349 321.588C378.496 321.684 378.616 321.824 378.709 322.006L378.756 322.099L378.381 322.1L378.322 321.984C378.283 321.907 378.238 321.851 378.187 321.817C378.135 321.78 378.076 321.762 378.011 321.762C377.879 321.762 377.849 321.834 377.922 321.978C377.964 322.059 378.026 322.136 378.11 322.206C378.197 322.277 378.33 322.363 378.511 322.463C378.743 322.592 378.916 322.709 379.032 322.814C379.148 322.919 379.242 323.042 379.314 323.184C379.407 323.368 379.427 323.51 379.374 323.608C379.323 323.707 379.2 323.757 379.005 323.757ZM379.146 321.793L378.731 321.794L378.568 321.472L379.795 321.471L379.958 321.793L379.543 321.793L380.522 323.723L380.126 323.724L379.146 321.793ZM373.359 325.046L373.756 325.046L374.898 327.298L374.502 327.298L373.359 325.046ZM375.771 327.329C375.581 327.329 375.411 327.281 375.261 327.185C375.114 327.088 374.995 326.952 374.906 326.776L374.292 325.566C374.203 325.391 374.183 325.254 374.233 325.158C374.285 325.061 374.406 325.013 374.596 325.013C374.786 325.012 374.955 325.06 375.102 325.157C375.252 325.253 375.372 325.389 375.461 325.565L375.582 325.803L375.207 325.804L375.074 325.543C375.004 325.404 374.902 325.334 374.77 325.334C374.638 325.334 374.607 325.404 374.678 325.544L375.316 326.801C375.386 326.939 375.486 327.007 375.619 327.007C375.751 327.007 375.782 326.938 375.713 326.801L375.538 326.457L375.913 326.456L376.075 326.775C376.164 326.951 376.183 327.087 376.131 327.184C376.081 327.28 375.961 327.329 375.771 327.329Z" fill="white"/>
<path d="M612.883 589.474H588.312C601.184 505.902 548.256 479.234 541.05 433.005C537.377 409.426 543.143 385.075 549.822 366.631H590.509L630.07 565.872C632.475 577.999 624.122 589.474 612.883 589.474Z" fill="#D8C3A5"/>
<path d="M612.882 589.453H594.991C611.077 519.53 586.141 461.358 578.915 423.439C575.846 407.342 578.811 386.276 583.548 366.611H590.509L630.069 565.852C632.475 577.978 624.121 589.453 612.882 589.453Z" fill="#EAE7DC"/>
<path d="M174.209 301.592C159.609 308.428 148.642 307.817 141.452 303.933C168.944 294.227 182.833 268.965 189.768 248.222C199.243 258.579 202.16 288.509 174.209 301.592Z" fill="#8E8D8A" fill-opacity="0.59"/>
<path d="M438.309 566.557L413.988 464.047H349.411C346.712 478.121 348.701 499.445 369.153 526.759C384.892 547.779 388.071 570.216 386.287 589.472H422.301C433.145 589.472 441.058 578.144 438.309 566.557Z" fill="#D8C3A5"/>
<path d="M413.987 464.047H387.154C384.543 477.722 385.196 493.838 393.988 510.387C405.676 532.384 401.297 563.666 393.984 589.472H422.301C433.144 589.472 441.058 578.144 438.309 566.557L413.987 464.047Z" fill="#EAE7DC"/>
<path d="M256.181 571.44L251.562 558.203H174.282C174.176 562.137 176.981 568.34 189.423 576.909C194.811 580.62 198.499 584.971 200.989 589.472H244.978C253.407 589.472 259.212 580.128 256.181 571.44Z" fill="#D8C3A5"/>
<path d="M256.181 571.44L251.562 558.203H208.301C209.531 561.805 211.237 565.557 213.543 569.417C217.739 576.438 219.77 583.235 220.471 589.472H244.978C253.407 589.472 259.212 580.128 256.181 571.44Z" fill="#EAE7DC"/>
</svg>
