<svg width="98" height="76" viewBox="0 0 98 76" fill="none" xmlns="http://www.w3.org/2000/svg">
<path d="M0.898926 49.5073V61.1532H2.8858C4.06846 54.5488 9.50871 49.5073 16.0843 49.5073C22.6599 49.5073 28.1002 54.5488 29.2828 61.1532H57.8559V49.5073H0.898926Z" fill="#E8594F"/>
<path d="M57.2413 62.1111H28.952C28.5263 62.1111 28.1478 61.8086 28.1005 61.3549C27.0125 55.053 21.9034 50.4653 15.9428 50.4653C9.98215 50.4653 4.87305 55.053 3.785 61.3549C3.69039 61.8086 3.35924 62.1111 2.93348 62.1111H0.946614C0.473549 62.1111 0.0477905 61.7078 0.0477905 61.1532V49.5074C0.0477905 49.0033 0.426243 48.5496 0.946614 48.5496H57.2413C57.7144 48.5496 58.1401 48.9529 58.1401 49.5074V61.1532C58.1401 61.7078 57.7144 62.1111 57.2413 62.1111ZM29.6616 60.2457H56.3425V50.4653H22.7076C26.1137 52.4819 28.7155 55.9605 29.6616 60.2457ZM1.79813 60.2457H2.17658C3.12271 56.0109 5.72457 52.4819 9.13063 50.4653H1.79813V60.2457Z" fill="black"/>
<path d="M0.898926 1.0083H57.241V49.5578H0.898926V1.0083Z" fill="white"/>
<path d="M57.2408 50.4651H0.898823C0.425759 50.4651 0 50.0618 0 49.5073V0.957877C0 0.453729 0.378452 0 0.898823 0H57.2408C57.7139 0 58.1396 0.403315 58.1396 0.957877V49.5073C58.1396 50.0114 57.7139 50.4651 57.2408 50.4651ZM1.79765 48.5494H56.3893V1.91577H1.79765V48.5494Z" fill="black"/>
<path d="M77.2516 8.8728H57.2409V49.5071H75.7851H77.2516H96.458V30.7528C96.458 27.98 77.2516 8.8728 77.2516 8.8728Z" fill="white"/>
<path d="M57.2409 8.8728H61.4513V49.5071H57.2409V8.8728Z" fill="#EAE7DC"/>
<path d="M96.458 50.4651H57.2409C56.7679 50.4651 56.3421 50.0618 56.3421 49.5073V8.87304C56.3421 8.36889 56.7206 7.91516 57.2409 7.91516H77.2516C77.4881 7.91516 77.6773 8.01599 77.8666 8.16723C77.9139 8.21765 82.7391 13.007 87.5171 18.0989C97.4041 28.6356 97.4041 30.0472 97.4041 30.753V49.5073C97.3568 50.0114 96.9784 50.4651 96.458 50.4651ZM58.1397 48.5494H95.6065V30.8034C95.5592 30.5009 94.755 28.5348 86.0506 19.2585C81.9822 14.9732 77.9612 10.8896 76.9204 9.83091H58.1397V48.5494Z" fill="black"/>
<path d="M85.7666 63.8251C85.7666 66.6597 84.71 69.3782 82.8292 71.3825C80.9484 73.3869 78.3975 74.5129 75.7377 74.5129C73.0778 74.5129 70.5269 73.3869 68.6461 71.3825C66.7654 69.3782 65.7087 66.6597 65.7087 63.8251C65.7087 60.9905 66.7654 58.272 68.6461 56.2676C70.5269 54.2633 73.0778 53.1372 75.7377 53.1372C78.3975 53.1372 80.9484 54.2633 82.8292 56.2676C84.71 58.272 85.7666 60.9905 85.7666 63.8251Z" fill="#E8594F"/>
<path d="M75.7377 75.4709C69.7297 75.4709 64.8099 70.2277 64.8099 63.825C64.8099 57.4224 69.7297 52.1792 75.7377 52.1792C81.7456 52.1792 86.6654 57.4224 86.6654 63.825C86.7127 70.2277 81.7929 75.4709 75.7377 75.4709ZM75.7377 54.0446C70.6759 54.0446 66.5602 58.4306 66.5602 63.825C66.5602 69.2194 70.6759 73.6055 75.7377 73.6055C80.7994 73.6055 84.9151 69.2194 84.9151 63.825C84.9151 58.4306 80.7994 54.0446 75.7377 54.0446Z" fill="black"/>
<path d="M80.2317 63.825C80.2317 65.0953 79.7582 66.3135 78.9154 67.2117C78.0726 68.1099 76.9295 68.6144 75.7376 68.6144C74.5458 68.6144 73.4027 68.1099 72.5599 67.2117C71.7171 66.3135 71.2436 65.0953 71.2436 63.825C71.2436 62.5548 71.7171 61.3366 72.5599 60.4384C73.4027 59.5402 74.5458 59.0356 75.7376 59.0356C76.9295 59.0356 78.0726 59.5402 78.9154 60.4384C79.7582 61.3366 80.2317 62.5548 80.2317 63.825Z" fill="white"/>
<path d="M75.7377 69.5219C72.7574 69.5219 70.3447 66.9508 70.3447 63.7747C70.3447 60.5986 72.7574 58.0275 75.7377 58.0275C78.718 58.0275 81.1306 60.5986 81.1306 63.7747C81.1306 66.9508 78.718 69.5219 75.7377 69.5219ZM75.7377 59.9936C73.7508 59.9936 72.1424 61.7077 72.1424 63.8251C72.1424 65.9425 73.7508 67.6566 75.7377 67.6566C77.7245 67.6566 79.333 65.9425 79.333 63.8251C79.333 61.7077 77.7245 59.9936 75.7377 59.9936Z" fill="black"/>
<path d="M57.2409 61.1532H62.5865C63.7692 54.4984 69.2094 49.5073 75.785 49.5073H57.2409V61.1532Z" fill="#E8594F"/>
<path d="M75.7377 49.5073C82.3133 49.5073 87.7535 54.5488 88.9362 61.1532H96.4579V49.5073H75.7377Z" fill="#E8594F"/>
<path d="M57.2409 49.5073H61.4513V61.1532H57.2409V49.5073Z" fill="#E8594F"/>
<path d="M62.5865 62.1111H57.2409C56.7679 62.1111 56.3421 61.7078 56.3421 61.1532V49.5074C56.3421 49.0033 56.7206 48.5496 57.2409 48.5496H75.785C76.2581 48.5496 76.6839 48.9529 76.6839 49.5074C76.6839 50.0116 76.3054 50.4653 75.785 50.4653C69.7771 50.4653 64.5734 55.053 63.4854 61.3549C63.3434 61.8086 63.0123 62.1111 62.5865 62.1111ZM58.1397 60.2457H61.877C62.8231 56.0109 65.4249 52.4819 68.8783 50.4653H58.1397V60.2457Z" fill="black"/>
<path d="M96.4579 62.1111H88.9363C88.5105 62.1111 88.1321 61.8086 88.0847 61.3549C86.9967 55.053 81.793 50.4653 75.7852 50.4653C75.3121 50.4653 74.8864 50.062 74.8864 49.5074C74.8864 49.0033 75.2648 48.5496 75.7852 48.5496H96.5052C96.9783 48.5496 97.404 48.9529 97.404 49.5074V61.1532C97.3567 61.7078 96.9783 62.1111 96.4579 62.1111ZM89.6458 60.2457H95.5591V50.4653H82.6446C86.0979 52.4819 88.6997 55.9605 89.6458 60.2457Z" fill="black"/>
<path d="M26.1132 63.8251C26.1132 66.6597 25.0566 69.3782 23.1758 71.3825C21.295 73.3869 18.7441 74.5129 16.0842 74.5129C13.4244 74.5129 10.8735 73.3869 8.99271 71.3825C7.11192 69.3782 6.0553 66.6597 6.0553 63.8251C6.0553 60.9905 7.11192 58.272 8.99271 56.2676C10.8735 54.2633 13.4244 53.1372 16.0842 53.1372C18.7441 53.1372 21.295 54.2633 23.1758 56.2676C25.0566 58.272 26.1132 60.9905 26.1132 63.8251Z" fill="#E8594F"/>
<path d="M16.0842 75.4709C10.0763 75.4709 5.15637 70.2277 5.15637 63.825C5.15637 57.4224 10.0763 52.1792 16.0842 52.1792C22.0921 52.1792 27.012 57.4224 27.012 63.825C27.012 70.2277 22.0921 75.4709 16.0842 75.4709ZM16.0842 54.0446C11.0224 54.0446 6.90672 58.4306 6.90672 63.825C6.90672 69.2194 11.0224 73.6055 16.0842 73.6055C21.146 73.6055 25.2617 69.2194 25.2617 63.825C25.2144 58.4306 21.0987 54.0446 16.0842 54.0446Z" fill="black"/>
<path d="M20.5783 63.825C20.5783 65.0953 20.1048 66.3135 19.262 67.2117C18.4192 68.1099 17.2761 68.6144 16.0842 68.6144C14.8923 68.6144 13.7492 68.1099 12.9064 67.2117C12.0636 66.3135 11.5901 65.0953 11.5901 63.825C11.5901 62.5548 12.0636 61.3366 12.9064 60.4384C13.7492 59.5402 14.8923 59.0356 16.0842 59.0356C17.2761 59.0356 18.4192 59.5402 19.262 60.4384C20.1048 61.3366 20.5783 62.5548 20.5783 63.825Z" fill="white"/>
<path d="M16.0842 69.5219C13.1039 69.5219 10.6912 66.9508 10.6912 63.7747C10.6912 60.5986 13.1039 58.0275 16.0842 58.0275C19.0645 58.0275 21.4771 60.5986 21.4771 63.7747C21.4298 66.9508 19.0172 69.5219 16.0842 69.5219ZM16.0842 59.9936C14.0973 59.9936 12.4889 61.7077 12.4889 63.8251C12.4889 65.9425 14.0973 67.6566 16.0842 67.6566C18.071 67.6566 19.6795 65.9425 19.6795 63.8251C19.6795 61.7077 18.0237 59.9936 16.0842 59.9936Z" fill="black"/>
<path d="M92.8626 45.1717H96.458V34.5342H92.8626C91.7273 34.5342 90.7811 35.5425 90.7811 36.7524V42.9534C90.7811 44.2138 91.7273 45.1717 92.8626 45.1717Z" fill="#EAE7DC"/>
<path d="M96.4578 46.1296H92.8625C91.2068 46.1296 89.8823 44.718 89.8823 42.9535V36.7525C89.8823 34.988 91.2068 33.5764 92.8625 33.5764H96.4578C96.9309 33.5764 97.3566 33.9797 97.3566 34.5343V45.1718C97.3566 45.7263 96.9782 46.1296 96.4578 46.1296ZM92.8625 35.4922C92.2003 35.4922 91.6799 36.0467 91.6799 36.7525V42.9535C91.6799 43.6593 92.2003 44.2139 92.8625 44.2139H95.559V35.4922H92.8625Z" fill="black"/>
<path d="M41.8189 24.6528L32.9726 16.0319C31.9792 15.074 30.4654 15.1749 29.5666 16.1831C28.6677 17.2419 28.7624 18.8551 29.7085 19.813L33.3038 23.2916H16.0843C14.7597 23.2916 13.6716 24.4512 13.6716 25.8628C13.6716 27.2744 14.7597 28.4339 16.0843 28.4339H34.0134L29.8977 31.7613C28.857 32.6184 28.6677 34.2316 29.4719 35.3408C29.945 35.9962 30.6546 36.3491 31.3642 36.3491C31.8846 36.3491 32.4049 36.1978 32.8307 35.8449L41.677 28.6356C42.2447 28.1819 42.5758 27.4761 42.6231 26.7198C42.6231 25.8628 42.3393 25.157 41.8189 24.6528Z" fill="#E8594F"/>
<path d="M31.3643 37.2565C30.3235 37.2565 29.3774 36.7523 28.7624 35.8953C28.242 35.1391 28.0055 34.2316 28.1001 33.3241C28.1947 32.4167 28.6678 31.5596 29.3774 31.005L31.4116 29.3414H16.0843C14.2866 29.3414 12.8201 27.7785 12.8201 25.8627C12.8201 23.947 14.2866 22.3841 16.0843 22.3841H31.0331L29.1408 20.5692C27.8163 19.2584 27.7217 17.0402 28.9516 15.6285C30.1816 14.2169 32.2631 14.1161 33.5877 15.4269L42.434 24.0478C43.1435 24.7536 43.522 25.7619 43.522 26.7702C43.4747 27.8289 43.0016 28.7868 42.2447 29.3918L33.3984 36.6011C32.7361 37.0044 32.0738 37.2565 31.3643 37.2565ZM16.0843 24.199C15.2328 24.199 14.5705 24.9049 14.5705 25.8123C14.5705 26.7198 15.2328 27.4256 16.0843 27.4256H34.0134C34.3919 27.4256 34.723 27.6777 34.8649 28.081C35.0068 28.4843 34.8649 28.8876 34.5811 29.1397L30.4654 32.4671C30.1343 32.7191 29.9451 33.1225 29.8977 33.5258C29.8504 33.9291 29.9451 34.3828 30.1816 34.7357C30.4654 35.139 30.8912 35.3911 31.3643 35.3911C31.6954 35.3911 32.0265 35.2903 32.2631 35.0382L41.1094 27.8289C41.4878 27.5264 41.6771 27.1231 41.6771 26.619C41.6771 26.1652 41.5351 25.6611 41.204 25.3586L32.3577 16.7377C31.7427 16.1327 30.7966 16.1831 30.2289 16.8385C29.6612 17.4939 29.7085 18.5022 30.3235 19.1072L33.9188 22.5858C34.2026 22.8379 34.2972 23.2412 34.1553 23.6445C34.0134 23.9974 33.6823 24.2495 33.3511 24.2495H16.0843V24.199Z" fill="black"/>
<path d="M61.8297 28.333H84.3948C85.6248 28.333 86.3344 26.7702 85.5302 25.7619C82.5025 21.9808 78.7654 17.7459 75.5012 13.7632H61.877V28.333H61.8297Z" fill="#E8594F"/>
<path d="M70.6759 28.333L76.2108 14.6706C75.9743 14.3682 75.6904 14.0657 75.4539 13.7632H74.9335L69.0201 28.333H70.6759Z" fill="#DFE9F1"/>
<path d="M66.8914 28.333L72.7575 13.7632H69.9191L64.053 28.333H66.8914Z" fill="#DFE9F1"/>
<path d="M84.3476 29.291H61.7824C61.3094 29.291 60.8836 28.8876 60.8836 28.3331V13.7633C60.8836 13.2592 61.2621 12.8054 61.7824 12.8054H75.4067C75.6432 12.8054 75.9271 12.9063 76.069 13.1079C77.4409 14.7716 78.9074 16.4857 80.3265 18.1998C82.3134 20.5188 84.3476 22.9387 86.0979 25.1066C86.7129 25.8628 86.8549 26.8711 86.4291 27.7785C86.0979 28.686 85.2937 29.291 84.3476 29.291ZM62.7286 27.3752H84.3949C84.7261 27.3752 84.868 27.1231 84.9153 27.0223C84.9626 26.9215 85.0572 26.619 84.8207 26.3669C83.0703 24.1991 81.0362 21.8296 79.0966 19.5106C77.772 17.9477 76.3528 16.284 75.0755 14.7212H62.7286V27.3752Z" fill="black"/>
</svg>
