<svg width="146" height="109" viewBox="0 0 146 109" fill="none" xmlns="http://www.w3.org/2000/svg">
<path d="M21.8989 49.5073V61.1532H23.8858C25.0685 54.5488 30.5087 49.5073 37.0843 49.5073C43.6599 49.5073 49.1002 54.5488 50.2828 61.1532H78.8559V49.5073H21.8989Z" fill="#E8594F"/>
<path d="M78.2413 62.1111H49.952C49.5263 62.1111 49.1478 61.8086 49.1005 61.3549C48.0125 55.053 42.9034 50.4653 36.9428 50.4653C30.9821 50.4653 25.8731 55.053 24.785 61.3549C24.6904 61.8086 24.3592 62.1111 23.9335 62.1111H21.9466C21.4735 62.1111 21.0478 61.7078 21.0478 61.1532V49.5074C21.0478 49.0033 21.4262 48.5496 21.9466 48.5496H78.2413C78.7144 48.5496 79.1401 48.9529 79.1401 49.5074V61.1532C79.1401 61.7078 78.7144 62.1111 78.2413 62.1111ZM50.6616 60.2457H77.3425V50.4653H43.7076C47.1137 52.4819 49.7155 55.9605 50.6616 60.2457ZM22.7981 60.2457H23.1766C24.1227 56.0109 26.7246 52.4819 30.1306 50.4653H22.7981V60.2457Z" fill="black"/>
<path d="M21.8989 1.0083H78.241V49.5578H21.8989V1.0083Z" fill="white"/>
<path d="M78.2408 50.4651H21.8988C21.4258 50.4651 21 50.0618 21 49.5073V0.957877C21 0.453729 21.3785 0 21.8988 0H78.2408C78.7139 0 79.1396 0.403315 79.1396 0.957877V49.5073C79.1396 50.0114 78.7139 50.4651 78.2408 50.4651ZM22.7976 48.5494H77.3893V1.91577H22.7976V48.5494Z" fill="black"/>
<path d="M98.2516 8.8728H78.2409V49.5071H96.7851H98.2516H117.458V30.7528C117.458 27.98 98.2516 8.8728 98.2516 8.8728Z" fill="white"/>
<path d="M78.2409 8.8728H82.4513V49.5071H78.2409V8.8728Z" fill="#EAE7DC"/>
<path d="M117.458 50.4651H78.2409C77.7679 50.4651 77.3421 50.0618 77.3421 49.5073V8.87304C77.3421 8.36889 77.7206 7.91516 78.2409 7.91516H98.2516C98.4881 7.91516 98.6773 8.01599 98.8666 8.16723C98.9139 8.21765 103.739 13.007 108.517 18.0989C118.404 28.6356 118.404 30.0472 118.404 30.753V49.5073C118.357 50.0114 117.978 50.4651 117.458 50.4651ZM79.1397 48.5494H116.607V30.8034C116.559 30.5009 115.755 28.5348 107.051 19.2585C102.982 14.9732 98.9612 10.8896 97.9204 9.83091H79.1397V48.5494Z" fill="black"/>
<path d="M106.767 63.8251C106.767 66.6597 105.71 69.3782 103.829 71.3825C101.948 73.3869 99.3975 74.5129 96.7377 74.5129C94.0778 74.5129 91.5269 73.3869 89.6461 71.3825C87.7654 69.3782 86.7087 66.6597 86.7087 63.8251C86.7087 60.9905 87.7654 58.272 89.6461 56.2676C91.5269 54.2633 94.0778 53.1372 96.7377 53.1372C99.3975 53.1372 101.948 54.2633 103.829 56.2676C105.71 58.272 106.767 60.9905 106.767 63.8251Z" fill="#E8594F"/>
<path d="M96.7377 75.4709C90.7297 75.4709 85.8099 70.2277 85.8099 63.825C85.8099 57.4224 90.7297 52.1792 96.7377 52.1792C102.746 52.1792 107.665 57.4224 107.665 63.825C107.713 70.2277 102.793 75.4709 96.7377 75.4709ZM96.7377 54.0446C91.6759 54.0446 87.5602 58.4306 87.5602 63.825C87.5602 69.2194 91.6759 73.6055 96.7377 73.6055C101.799 73.6055 105.915 69.2194 105.915 63.825C105.915 58.4306 101.799 54.0446 96.7377 54.0446Z" fill="black"/>
<path d="M101.232 63.825C101.232 65.0953 100.758 66.3135 99.9154 67.2117C99.0726 68.1099 97.9295 68.6144 96.7376 68.6144C95.5458 68.6144 94.4027 68.1099 93.5599 67.2117C92.7171 66.3135 92.2436 65.0953 92.2436 63.825C92.2436 62.5548 92.7171 61.3366 93.5599 60.4384C94.4027 59.5402 95.5458 59.0356 96.7376 59.0356C97.9295 59.0356 99.0726 59.5402 99.9154 60.4384C100.758 61.3366 101.232 62.5548 101.232 63.825Z" fill="white"/>
<path d="M96.7377 69.5219C93.7574 69.5219 91.3447 66.9508 91.3447 63.7747C91.3447 60.5986 93.7574 58.0275 96.7377 58.0275C99.718 58.0275 102.131 60.5986 102.131 63.7747C102.131 66.9508 99.718 69.5219 96.7377 69.5219ZM96.7377 59.9936C94.7508 59.9936 93.1424 61.7077 93.1424 63.8251C93.1424 65.9425 94.7508 67.6566 96.7377 67.6566C98.7245 67.6566 100.333 65.9425 100.333 63.8251C100.333 61.7077 98.7245 59.9936 96.7377 59.9936Z" fill="black"/>
<path d="M78.2409 61.1532H83.5865C84.7692 54.4984 90.2094 49.5073 96.785 49.5073H78.2409V61.1532Z" fill="#E8594F"/>
<path d="M96.7377 49.5073C103.313 49.5073 108.754 54.5488 109.936 61.1532H117.458V49.5073H96.7377Z" fill="#E8594F"/>
<path d="M78.2409 49.5073H82.4513V61.1532H78.2409V49.5073Z" fill="#E8594F"/>
<path d="M83.5865 62.1111H78.2409C77.7679 62.1111 77.3421 61.7078 77.3421 61.1532V49.5074C77.3421 49.0033 77.7206 48.5496 78.2409 48.5496H96.785C97.2581 48.5496 97.6839 48.9529 97.6839 49.5074C97.6839 50.0116 97.3054 50.4653 96.785 50.4653C90.7771 50.4653 85.5734 55.053 84.4854 61.3549C84.3434 61.8086 84.0123 62.1111 83.5865 62.1111ZM79.1397 60.2457H82.877C83.8231 56.0109 86.4249 52.4819 89.8783 50.4653H79.1397V60.2457Z" fill="black"/>
<path d="M117.458 62.1111H109.936C109.51 62.1111 109.132 61.8086 109.085 61.3549C107.997 55.053 102.793 50.4653 96.7852 50.4653C96.3121 50.4653 95.8864 50.062 95.8864 49.5074C95.8864 49.0033 96.2648 48.5496 96.7852 48.5496H117.505C117.978 48.5496 118.404 48.9529 118.404 49.5074V61.1532C118.357 61.7078 117.978 62.1111 117.458 62.1111ZM110.646 60.2457H116.559V50.4653H103.645C107.098 52.4819 109.7 55.9605 110.646 60.2457Z" fill="black"/>
<path d="M47.1132 63.8251C47.1132 66.6597 46.0566 69.3782 44.1758 71.3825C42.295 73.3869 39.7441 74.5129 37.0842 74.5129C34.4244 74.5129 31.8735 73.3869 29.9927 71.3825C28.1119 69.3782 27.0553 66.6597 27.0553 63.8251C27.0553 60.9905 28.1119 58.272 29.9927 56.2676C31.8735 54.2633 34.4244 53.1372 37.0842 53.1372C39.7441 53.1372 42.295 54.2633 44.1758 56.2676C46.0566 58.272 47.1132 60.9905 47.1132 63.8251Z" fill="#E8594F"/>
<path d="M37.0842 75.4709C31.0763 75.4709 26.1564 70.2277 26.1564 63.825C26.1564 57.4224 31.0763 52.1792 37.0842 52.1792C43.0921 52.1792 48.012 57.4224 48.012 63.825C48.012 70.2277 43.0921 75.4709 37.0842 75.4709ZM37.0842 54.0446C32.0224 54.0446 27.9067 58.4306 27.9067 63.825C27.9067 69.2194 32.0224 73.6055 37.0842 73.6055C42.146 73.6055 46.2617 69.2194 46.2617 63.825C46.2144 58.4306 42.0987 54.0446 37.0842 54.0446Z" fill="black"/>
<path d="M41.5783 63.825C41.5783 65.0953 41.1048 66.3135 40.262 67.2117C39.4192 68.1099 38.2761 68.6144 37.0842 68.6144C35.8923 68.6144 34.7492 68.1099 33.9064 67.2117C33.0636 66.3135 32.5901 65.0953 32.5901 63.825C32.5901 62.5548 33.0636 61.3366 33.9064 60.4384C34.7492 59.5402 35.8923 59.0356 37.0842 59.0356C38.2761 59.0356 39.4192 59.5402 40.262 60.4384C41.1048 61.3366 41.5783 62.5548 41.5783 63.825Z" fill="white"/>
<path d="M37.0842 69.5219C34.1039 69.5219 31.6912 66.9508 31.6912 63.7747C31.6912 60.5986 34.1039 58.0275 37.0842 58.0275C40.0645 58.0275 42.4771 60.5986 42.4771 63.7747C42.4298 66.9508 40.0172 69.5219 37.0842 69.5219ZM37.0842 59.9936C35.0973 59.9936 33.4889 61.7077 33.4889 63.8251C33.4889 65.9425 35.0973 67.6566 37.0842 67.6566C39.071 67.6566 40.6795 65.9425 40.6795 63.8251C40.6795 61.7077 39.0237 59.9936 37.0842 59.9936Z" fill="black"/>
<path d="M113.863 45.1717H117.458V34.5342H113.863C112.727 34.5342 111.781 35.5425 111.781 36.7524V42.9534C111.781 44.2138 112.727 45.1717 113.863 45.1717Z" fill="#EAE7DC"/>
<path d="M117.458 46.1296H113.863C112.207 46.1296 110.882 44.718 110.882 42.9535V36.7525C110.882 34.988 112.207 33.5764 113.863 33.5764H117.458C117.931 33.5764 118.357 33.9797 118.357 34.5343V45.1718C118.357 45.7263 117.978 46.1296 117.458 46.1296ZM113.863 35.4922C113.2 35.4922 112.68 36.0467 112.68 36.7525V42.9535C112.68 43.6593 113.2 44.2139 113.863 44.2139H116.559V35.4922H113.863Z" fill="black"/>
<path d="M62.8189 24.6528L53.9726 16.0319C52.9792 15.074 51.4654 15.1749 50.5666 16.1831C49.6677 17.2419 49.7624 18.8551 50.7085 19.813L54.3038 23.2916H37.0843C35.7597 23.2916 34.6716 24.4512 34.6716 25.8628C34.6716 27.2744 35.7597 28.4339 37.0843 28.4339H55.0134L50.8977 31.7613C49.857 32.6184 49.6677 34.2316 50.4719 35.3408C50.945 35.9962 51.6546 36.3491 52.3642 36.3491C52.8846 36.3491 53.4049 36.1978 53.8307 35.8449L62.677 28.6356C63.2447 28.1819 63.5758 27.4761 63.6231 26.7198C63.6231 25.8628 63.3393 25.157 62.8189 24.6528Z" fill="#E8594F"/>
<path d="M52.3643 37.2565C51.3235 37.2565 50.3774 36.7523 49.7624 35.8953C49.242 35.1391 49.0055 34.2316 49.1001 33.3241C49.1947 32.4167 49.6678 31.5596 50.3774 31.005L52.4116 29.3414H37.0843C35.2866 29.3414 33.8201 27.7785 33.8201 25.8627C33.8201 23.947 35.2866 22.3841 37.0843 22.3841H52.0331L50.1408 20.5692C48.8163 19.2584 48.7217 17.0402 49.9516 15.6285C51.1816 14.2169 53.2631 14.1161 54.5877 15.4269L63.434 24.0478C64.1435 24.7536 64.522 25.7619 64.522 26.7702C64.4747 27.8289 64.0016 28.7868 63.2447 29.3918L54.3984 36.6011C53.7361 37.0044 53.0738 37.2565 52.3643 37.2565ZM37.0843 24.199C36.2328 24.199 35.5705 24.9049 35.5705 25.8123C35.5705 26.7198 36.2328 27.4256 37.0843 27.4256H55.0134C55.3919 27.4256 55.723 27.6777 55.8649 28.081C56.0068 28.4843 55.8649 28.8876 55.5811 29.1397L51.4654 32.4671C51.1343 32.7191 50.9451 33.1225 50.8977 33.5258C50.8504 33.9291 50.9451 34.3828 51.1816 34.7357C51.4654 35.139 51.8912 35.3911 52.3643 35.3911C52.6954 35.3911 53.0265 35.2903 53.2631 35.0382L62.1094 27.8289C62.4878 27.5264 62.6771 27.1231 62.6771 26.619C62.6771 26.1652 62.5351 25.6611 62.204 25.3586L53.3577 16.7377C52.7427 16.1327 51.7966 16.1831 51.2289 16.8385C50.6612 17.4939 50.7085 18.5022 51.3235 19.1072L54.9188 22.5858C55.2026 22.8379 55.2972 23.2412 55.1553 23.6445C55.0134 23.9974 54.6823 24.2495 54.3511 24.2495H37.0843V24.199Z" fill="black"/>
<path d="M82.8297 28.333H105.395C106.625 28.333 107.334 26.7702 106.53 25.7619C103.503 21.9808 99.7654 17.7459 96.5012 13.7632H82.877V28.333H82.8297Z" fill="#E8594F"/>
<path d="M91.6759 28.333L97.2108 14.6706C96.9743 14.3682 96.6904 14.0657 96.4539 13.7632H95.9335L90.0201 28.333H91.6759Z" fill="#DFE9F1"/>
<path d="M87.8914 28.333L93.7575 13.7632H90.9191L85.053 28.333H87.8914Z" fill="#DFE9F1"/>
<path d="M105.348 29.291H82.7824C82.3094 29.291 81.8836 28.8876 81.8836 28.3331V13.7633C81.8836 13.2592 82.2621 12.8054 82.7824 12.8054H96.4067C96.6432 12.8054 96.9271 12.9063 97.069 13.1079C98.4409 14.7716 99.9074 16.4857 101.327 18.1998C103.313 20.5188 105.348 22.9387 107.098 25.1066C107.713 25.8628 107.855 26.8711 107.429 27.7785C107.098 28.686 106.294 29.291 105.348 29.291ZM83.7286 27.3752H105.395C105.726 27.3752 105.868 27.1231 105.915 27.0223C105.963 26.9215 106.057 26.619 105.821 26.3669C104.07 24.1991 102.036 21.8296 100.097 19.5106C98.772 17.9477 97.3528 16.284 96.0755 14.7212H83.7286V27.3752Z" fill="black"/>
<path d="M4.136 99.612C4.136 100.389 4.092 101.042 4.004 101.57H10.098L10.032 103H2.42L2.486 87.82H10.098L10.032 89.25H4.114C4.14333 89.6753 4.158 90.328 4.158 91.208L4.136 94.09H9.416V95.52H4.136V99.612ZM20.2835 103.022C20.1955 103.125 19.9168 103.176 19.4475 103.176C18.9782 103.176 18.5602 103.007 18.1935 102.67C17.8268 102.333 17.4308 101.761 17.0055 100.954L15.8615 98.776L13.3535 103H11.5935L15.0695 97.632L13.4635 94.618C13.2435 94.1927 13.0162 93.848 12.7815 93.584C12.5615 93.32 12.3342 93.1293 12.0995 93.012L12.9355 92.396C13.5075 92.396 13.9402 92.616 14.2335 93.056C14.3948 93.3053 15.0108 94.4347 16.0815 96.444L18.2595 92.66H20.0195L16.8735 97.632L18.1935 100.03C18.5602 100.705 18.8902 101.211 19.1835 101.548C19.4768 101.871 19.8215 102.032 20.2175 102.032L20.2835 103.022ZM23.9853 92.462C24.2787 92.5793 24.4253 92.924 24.4253 93.496C24.4253 94.0533 24.374 94.6033 24.2713 95.146H24.4033C24.902 93.3127 26.0093 92.396 27.7253 92.396C29.0013 92.396 29.896 92.814 30.4093 93.65C30.9227 94.4713 31.1793 95.7107 31.1793 97.368C31.1793 99.0253 30.7687 100.426 29.9473 101.57C29.1407 102.699 27.916 103.264 26.2733 103.264C25.6427 103.264 25.0047 103.132 24.3593 102.868V108.016H22.8853V95.894C22.8853 94.4127 22.8047 93.32 22.6433 92.616L23.9853 92.462ZM24.3593 99.502V101.768C24.7847 101.988 25.4227 102.098 26.2733 102.098C28.444 102.098 29.5293 100.382 29.5293 96.95C29.5293 94.75 28.84 93.65 27.4613 93.65C26.8893 93.65 26.3907 93.8407 25.9653 94.222C25.54 94.5887 25.2173 95.08 24.9973 95.696C24.572 96.8693 24.3593 98.138 24.3593 99.502ZM35.5869 92.462C35.8802 92.5793 36.0269 92.9607 36.0269 93.606C36.0269 94.2367 35.9756 94.8233 35.8729 95.366H36.0049C36.3276 94.3247 36.7016 93.5693 37.1269 93.1C37.5522 92.6307 38.2196 92.396 39.1289 92.396L39.8109 92.484L39.6129 94.002C39.4222 93.958 39.1876 93.936 38.9089 93.936C38.3369 93.936 37.8456 94.1267 37.4349 94.508C37.0389 94.8747 36.7456 95.3733 36.5549 96.004C36.1882 97.1333 36.0049 98.402 36.0049 99.81V103H34.4869V95.894C34.4869 94.4127 34.4062 93.32 34.2449 92.616L35.5869 92.462ZM47.7366 94.926C47.7366 94.5007 47.6046 94.178 47.3406 93.958C47.0766 93.738 46.7246 93.628 46.2846 93.628C45.4046 93.628 44.7152 93.9947 44.2166 94.728C43.7179 95.4467 43.4319 96.3193 43.3586 97.346C46.2772 97.346 47.7366 96.5393 47.7366 94.926ZM45.8446 103.264C43.0872 103.264 41.7086 101.504 41.7086 97.984C41.7086 96.3707 42.1119 95.036 42.9186 93.98C43.7399 92.924 44.8912 92.396 46.3726 92.396C47.2819 92.396 48.0006 92.616 48.5286 93.056C49.0712 93.4813 49.3426 94.0753 49.3426 94.838C49.3426 95.586 49.1592 96.202 48.7926 96.686C48.4406 97.1553 47.9566 97.5147 47.3406 97.764C46.1819 98.2333 44.8399 98.468 43.3146 98.468C43.3146 100.8 44.2459 101.966 46.1086 101.966C47.0472 101.966 47.9346 101.709 48.7706 101.196L49.0126 102.054C48.6459 102.421 48.1619 102.714 47.5606 102.934C46.9739 103.154 46.4019 103.264 45.8446 103.264ZM53.8661 102.054C54.5115 102.054 55.0541 101.907 55.4941 101.614C55.9341 101.306 56.1541 100.873 56.1541 100.316C56.1541 99.7293 55.8755 99.2673 55.3181 98.93C55.0395 98.7687 54.7021 98.6073 54.3061 98.446C53.9101 98.27 53.6681 98.16 53.5801 98.116C52.8468 97.7933 52.2748 97.412 51.8641 96.972C51.4681 96.532 51.2701 95.9087 51.2701 95.102C51.2701 94.2807 51.6001 93.628 52.2601 93.144C52.9201 92.6453 53.6975 92.396 54.5921 92.396C55.4868 92.396 56.2935 92.572 57.0121 92.924L56.7701 93.914C56.0368 93.7087 55.3841 93.606 54.8121 93.606C54.2548 93.606 53.7708 93.738 53.3601 94.002C52.9495 94.2513 52.7441 94.6033 52.7441 95.058C52.7441 95.5127 52.8835 95.872 53.1621 96.136C53.4408 96.3853 53.7268 96.576 54.0201 96.708C54.3281 96.84 54.6508 96.9793 54.9881 97.126C55.3401 97.258 55.5675 97.3533 55.6701 97.412C55.7728 97.4707 55.9635 97.5807 56.2421 97.742C56.5208 97.8887 56.7115 98.028 56.8141 98.16C56.9315 98.292 57.0635 98.468 57.2101 98.688C57.4888 99.0547 57.6281 99.5753 57.6281 100.25C57.6281 101.218 57.2688 101.966 56.5501 102.494C55.8315 103.007 54.9148 103.264 53.8001 103.264C52.7001 103.264 51.7248 102.897 50.8741 102.164L51.1161 101.284C51.9521 101.797 52.8688 102.054 53.8661 102.054ZM62.2021 102.054C62.8474 102.054 63.3901 101.907 63.8301 101.614C64.2701 101.306 64.4901 100.873 64.4901 100.316C64.4901 99.7293 64.2114 99.2673 63.6541 98.93C63.3754 98.7687 63.0381 98.6073 62.6421 98.446C62.2461 98.27 62.0041 98.16 61.9161 98.116C61.1827 97.7933 60.6107 97.412 60.2001 96.972C59.8041 96.532 59.6061 95.9087 59.6061 95.102C59.6061 94.2807 59.9361 93.628 60.5961 93.144C61.2561 92.6453 62.0334 92.396 62.9281 92.396C63.8227 92.396 64.6294 92.572 65.3481 92.924L65.1061 93.914C64.3727 93.7087 63.7201 93.606 63.1481 93.606C62.5907 93.606 62.1067 93.738 61.6961 94.002C61.2854 94.2513 61.0801 94.6033 61.0801 95.058C61.0801 95.5127 61.2194 95.872 61.4981 96.136C61.7767 96.3853 62.0627 96.576 62.3561 96.708C62.6641 96.84 62.9867 96.9793 63.3241 97.126C63.6761 97.258 63.9034 97.3533 64.0061 97.412C64.1087 97.4707 64.2994 97.5807 64.5781 97.742C64.8567 97.8887 65.0474 98.028 65.1501 98.16C65.2674 98.292 65.3994 98.468 65.5461 98.688C65.8247 99.0547 65.9641 99.5753 65.9641 100.25C65.9641 101.218 65.6047 101.966 64.8861 102.494C64.1674 103.007 63.2507 103.264 62.1361 103.264C61.0361 103.264 60.0607 102.897 59.2101 102.164L59.4521 101.284C60.2881 101.797 61.2047 102.054 62.2021 102.054ZM77.8852 87.732C81.6692 87.732 83.5612 90.262 83.5612 95.322C83.5612 97.566 83.0625 99.4287 82.0652 100.91C81.5812 101.643 80.9285 102.223 80.1072 102.648C79.3005 103.059 78.3765 103.264 77.3352 103.264C75.6778 103.264 74.4678 103.095 73.7052 102.758L73.7712 87.996C74.9738 87.82 76.3452 87.732 77.8852 87.732ZM77.1152 101.834C78.7432 101.834 79.9312 101.225 80.6792 100.008C81.4272 98.776 81.8012 97.192 81.8012 95.256C81.8012 91.1933 80.3198 89.162 77.3572 89.162L75.4212 89.25V101.724C75.8318 101.797 76.3965 101.834 77.1152 101.834ZM92.3166 94.926C92.3166 94.5007 92.1846 94.178 91.9206 93.958C91.6566 93.738 91.3046 93.628 90.8646 93.628C89.9846 93.628 89.2953 93.9947 88.7966 94.728C88.298 95.4467 88.012 96.3193 87.9386 97.346C90.8573 97.346 92.3166 96.5393 92.3166 94.926ZM90.4246 103.264C87.6673 103.264 86.2886 101.504 86.2886 97.984C86.2886 96.3707 86.692 95.036 87.4986 93.98C88.32 92.924 89.4713 92.396 90.9526 92.396C91.862 92.396 92.5806 92.616 93.1086 93.056C93.6513 93.4813 93.9226 94.0753 93.9226 94.838C93.9226 95.586 93.7393 96.202 93.3726 96.686C93.0206 97.1553 92.5366 97.5147 91.9206 97.764C90.762 98.2333 89.42 98.468 87.8946 98.468C87.8946 100.8 88.826 101.966 90.6886 101.966C91.6273 101.966 92.5146 101.709 93.3506 101.196L93.5926 102.054C93.226 102.421 92.742 102.714 92.1406 102.934C91.554 103.154 90.982 103.264 90.4246 103.264ZM96.5982 101.108V86.874L98.1822 86.61V100.206C98.1822 100.983 98.2409 101.489 98.3582 101.724C98.4756 101.944 98.8129 102.054 99.3702 102.054L99.4142 103.022C99.1796 103.125 98.7836 103.176 98.2262 103.176C97.6689 103.176 97.2582 103.015 96.9942 102.692C96.7302 102.369 96.5982 101.841 96.5982 101.108ZM104.203 103.176C103.528 103.176 103.059 103.015 102.795 102.692C102.531 102.369 102.399 101.841 102.399 101.108V92.66H103.983V100.206C103.983 100.983 104.042 101.489 104.159 101.724C104.276 101.944 104.614 102.054 105.171 102.054L105.215 103.022C104.878 103.125 104.54 103.176 104.203 103.176ZM102.245 89.206C102.245 88.5167 102.582 88.172 103.257 88.172C103.873 88.172 104.181 88.5093 104.181 89.184C104.181 89.844 103.858 90.174 103.213 90.174C102.568 90.174 102.245 89.8513 102.245 89.206ZM113.172 95.498C113.318 95.014 113.392 94.4933 113.392 93.936C113.392 93.3787 113.326 92.9167 113.194 92.55L114.536 92.396C114.844 92.572 114.998 92.99 114.998 93.65C114.998 94.2953 114.895 94.9553 114.69 95.63C114.484 96.29 114.066 97.3313 113.436 98.754L111.566 103H110.18L108.024 95.784C107.584 94.3173 107.188 93.276 106.836 92.66L107.98 92.44C108.2 92.44 108.376 92.55 108.508 92.77C108.654 92.99 108.83 93.43 109.036 94.09L111.148 101.086H111.28C111.236 100.969 111.214 100.815 111.214 100.624C111.214 100.419 111.28 100.162 111.412 99.854C112.453 97.434 113.04 95.982 113.172 95.498ZM123.254 94.926C123.254 94.5007 123.122 94.178 122.858 93.958C122.594 93.738 122.242 93.628 121.802 93.628C120.922 93.628 120.233 93.9947 119.734 94.728C119.235 95.4467 118.949 96.3193 118.876 97.346C121.795 97.346 123.254 96.5393 123.254 94.926ZM121.362 103.264C118.605 103.264 117.226 101.504 117.226 97.984C117.226 96.3707 117.629 95.036 118.436 93.98C119.257 92.924 120.409 92.396 121.89 92.396C122.799 92.396 123.518 92.616 124.046 93.056C124.589 93.4813 124.86 94.0753 124.86 94.838C124.86 95.586 124.677 96.202 124.31 96.686C123.958 97.1553 123.474 97.5147 122.858 97.764C121.699 98.2333 120.357 98.468 118.832 98.468C118.832 100.8 119.763 101.966 121.626 101.966C122.565 101.966 123.452 101.709 124.288 101.196L124.53 102.054C124.163 102.421 123.679 102.714 123.078 102.934C122.491 103.154 121.919 103.264 121.362 103.264ZM128.636 92.462C128.929 92.5793 129.076 92.9607 129.076 93.606C129.076 94.2367 129.024 94.8233 128.922 95.366H129.054C129.376 94.3247 129.75 93.5693 130.176 93.1C130.601 92.6307 131.268 92.396 132.178 92.396L132.86 92.484L132.662 94.002C132.471 93.958 132.236 93.936 131.958 93.936C131.386 93.936 130.894 94.1267 130.484 94.508C130.088 94.8747 129.794 95.3733 129.604 96.004C129.237 97.1333 129.054 98.402 129.054 99.81V103H127.536V95.894C127.536 94.4127 127.455 93.32 127.294 92.616L128.636 92.462ZM135.527 94.178C135.527 93.474 135.439 92.9533 135.263 92.616L136.517 92.396C136.767 92.4547 136.921 92.6013 136.979 92.836C137.053 93.0707 137.089 93.3127 137.089 93.562C137.089 93.738 137.06 94.7353 137.001 96.554C136.943 98.3727 136.913 99.3333 136.913 99.436C136.913 100.213 137.023 100.837 137.243 101.306C137.463 101.775 137.881 102.01 138.497 102.01C139.113 102.01 139.619 101.805 140.015 101.394C140.411 100.983 140.727 100.448 140.961 99.788C141.431 98.4387 141.665 96.9793 141.665 95.41V92.66H143.139L143.161 102.34C143.161 104.203 142.817 105.655 142.127 106.696C141.453 107.752 140.309 108.28 138.695 108.28C138.109 108.28 137.507 108.17 136.891 107.95C136.275 107.745 135.784 107.451 135.417 107.07L135.659 106.212C136.51 106.769 137.5 107.048 138.629 107.048C139.773 107.048 140.558 106.645 140.983 105.838C141.423 105.046 141.643 103.88 141.643 102.34C141.643 101.489 141.695 100.837 141.797 100.382H141.665C141.123 102.303 139.957 103.264 138.167 103.264C137.038 103.264 136.283 102.978 135.901 102.406C135.52 101.834 135.329 101.005 135.329 99.92C135.329 99.8027 135.359 98.842 135.417 97.038C135.491 95.234 135.527 94.2807 135.527 94.178Z" fill="black"/>
</svg>
