<svg width="1053" height="147" viewBox="0 0 1053 147" fill="none" xmlns="http://www.w3.org/2000/svg">
<path d="M94.5503 72.4678C94.5503 89.875 80.759 103.954 63.708 103.954C46.657 103.954 32.8657 89.875 32.8657 72.4678C32.8657 55.0606 46.657 40.9813 63.708 40.9813C80.759 40.9813 94.5503 55.0606 94.5503 72.4678Z" fill="#E85A4F"/>
<path d="M66.0484 92.8188L42.6868 68.9266L51.5466 59.8817L66.0484 74.6437L93.8399 46.3143L102.7 55.4019L66.0484 92.8188Z" fill="white"/>
<path d="M66.0493 93.7148C65.7985 93.7148 65.5896 93.6295 65.4224 93.4588L42.0608 69.5666C41.7265 69.2253 41.7265 68.628 42.0608 68.2867L50.9625 59.1992C51.2968 58.8578 51.8819 58.8578 52.2162 59.1992L66.0911 73.3638L93.2139 45.6745C93.5482 45.3332 94.1333 45.3332 94.4677 45.6745L103.369 54.7621C103.704 55.1034 103.704 55.7007 103.369 56.042L66.7179 93.4588C66.509 93.6295 66.3 93.7148 66.0493 93.7148ZM43.9414 68.9267L66.0493 91.4962L101.405 55.3594L93.799 47.5944L66.6762 75.3264C66.3418 75.6677 65.7567 75.6677 65.4224 75.3264L51.5475 61.1617L43.9414 68.9267Z" fill="black"/>
<g filter="url(#filter0_d)">
<path d="M513.299 60.7647H547.651C552.856 60.7647 557.075 65.9559 557.075 72.3943V90.2937C557.075 96.6984 552.856 101.923 547.651 101.923H519.106L512.121 110.485V101.788C507.464 101.081 503.848 96.1928 503.848 90.26V72.3606C503.875 65.9559 508.094 60.7647 513.299 60.7647Z" fill="#F1F2F2"/>
<path d="M512.121 111.227C512.039 111.227 511.956 111.193 511.902 111.16C511.683 111.058 511.546 110.789 511.546 110.485V102.429C506.806 101.384 503.272 96.2939 503.272 90.2938V72.3944C503.272 65.5852 507.765 60.0569 513.299 60.0569H547.651C553.185 60.0569 557.678 65.5852 557.678 72.3944V90.2938C557.678 97.1029 553.185 102.631 547.651 102.631H519.353L512.559 111.025C512.422 111.126 512.285 111.227 512.121 111.227ZM513.299 61.5064C508.423 61.5064 504.45 66.3942 504.45 72.3944V90.2938C504.45 95.7546 507.793 100.406 512.203 101.081C512.504 101.114 512.724 101.418 512.724 101.788V108.732L518.695 101.384C518.805 101.249 518.942 101.182 519.106 101.182H547.651C552.527 101.182 556.5 96.2939 556.5 90.2938V72.3944C556.5 66.3942 552.527 61.5064 547.651 61.5064H513.299Z" fill="black"/>
<path d="M540.725 90.5432H535.679C535.363 90.5432 535.127 90.2539 535.127 89.9357C535.127 89.5885 535.39 89.3281 535.679 89.3281H540.725C541.04 89.3281 541.277 89.6174 541.277 89.9357C541.277 90.2539 541.04 90.5432 540.725 90.5432Z" fill="black"/>
<path d="M524.287 90.5432H511.628C511.291 90.5432 511.038 90.2539 511.038 89.9357C511.038 89.5885 511.319 89.3281 511.628 89.3281H524.287C524.624 89.3281 524.876 89.6174 524.876 89.9357C524.876 90.2539 524.624 90.5432 524.287 90.5432Z" fill="black"/>
<path d="M549.415 74.1383H535.699C535.372 74.1383 535.127 73.849 535.127 73.5308C535.127 73.1836 535.399 72.9232 535.699 72.9232H549.415C549.743 72.9232 549.988 73.2125 549.988 73.5308C550.015 73.849 549.743 74.1383 549.415 74.1383Z" fill="black"/>
<path d="M549.41 82.6445H511.616C511.286 82.6445 511.038 82.2105 511.038 81.7331C511.038 81.2123 511.314 80.8217 511.616 80.8217H549.41C549.74 80.8217 549.988 81.2557 549.988 81.7331C550.015 82.2105 549.74 82.6445 549.41 82.6445Z" fill="black"/>
<path d="M529.54 31.6077H499.738C494.105 31.6077 489.512 37.2518 489.512 44.2477V63.7147C489.512 70.6769 494.078 76.3547 499.738 76.3547H523.252L530.798 85.6827V76.2196C535.829 75.4422 539.739 70.1361 539.739 63.7147V44.2477C539.739 37.2518 535.173 31.6077 529.54 31.6077Z" fill="#FF6C64"/>
<path d="M530.738 86.2901C530.574 86.2901 530.438 86.2228 530.329 86.0881L522.968 76.9965H499.768C493.825 76.9965 489 71.0365 489 63.6959V44.3006C489 36.96 493.825 31 499.768 31H529.484C535.427 31 540.252 36.96 540.252 44.3006V63.6959C540.252 70.161 536.463 75.6833 531.337 76.7945V85.583C531.337 85.886 531.201 86.1554 530.983 86.2564C530.901 86.2901 530.819 86.2901 530.738 86.2901ZM499.768 32.4479C494.48 32.4479 490.172 37.7682 490.172 44.3006V63.6959C490.172 70.2284 494.48 75.5486 499.768 75.5486H523.213C523.377 75.5486 523.513 75.616 523.622 75.7506L530.165 83.832V76.1547C530.165 75.7843 530.383 75.4813 530.683 75.4476C535.481 74.7068 539.08 69.6559 539.08 63.6959V44.3006C539.08 37.7682 534.772 32.4479 529.484 32.4479H499.768Z" fill="black"/>
<path d="M497.2 44.9745H532.564V50.4427H497.2V44.9745Z" fill="white"/>
<path d="M532.504 51.0502H497.261C496.933 51.0502 496.688 50.7364 496.688 50.3913V45.0258C496.688 44.6492 496.961 44.3668 497.261 44.3668H532.504C532.831 44.3668 533.077 44.6806 533.077 45.0258V50.3913C533.077 50.7364 532.831 51.0502 532.504 51.0502ZM497.833 49.701H531.904V45.6847H497.833V49.701Z" fill="black"/>
<path d="M497.2 57.126H532.564V62.5944H497.2V57.126Z" fill="white"/>
<path d="M532.504 63.2018H497.261C496.933 63.2018 496.688 62.8595 496.688 62.483V56.6297C496.688 56.2189 496.961 55.9109 497.261 55.9109H532.504C532.831 55.9109 533.077 56.2532 533.077 56.6297V62.483C533.077 62.8595 532.831 63.2018 532.504 63.2018ZM497.833 61.73H531.904V57.3485H497.833V61.73Z" fill="black"/>
<path d="M544.049 38.4196C550.186 38.4196 555.167 44.5484 555.167 52.0999C555.167 59.6515 550.186 65.7803 544.049 65.7803C537.912 65.7803 532.931 59.6515 532.931 52.0999C532.931 44.5484 537.912 38.4196 544.049 38.4196Z" fill="#333333"/>
<path d="M536.152 57.0163V56.6474C536.563 56.1352 536.997 55.5519 537.453 54.8975C537.91 54.243 538.199 53.8132 538.32 53.6079C538.441 53.4006 538.597 53.1191 538.788 52.7634C538.979 52.4057 539.119 52.1039 539.207 51.858C539.451 51.1994 539.572 50.6283 539.572 50.1446C539.572 49.6589 539.434 49.2951 539.158 49.0532C538.882 48.8113 538.507 48.6904 538.034 48.6904C537.558 48.6904 537.097 48.7819 536.649 48.9648L536.483 48.2087C537.035 47.9425 537.627 47.8093 538.259 47.8093C538.891 47.8093 539.409 48.0136 539.812 48.4221C540.218 48.8286 540.42 49.4302 540.42 50.2269C540.42 51.735 539.45 53.7187 537.509 56.1779L540.575 56.1383L540.619 57.0163H536.152ZM542.26 54.3396V53.9707L544.002 47.8093L544.754 47.977L543.22 53.492H545.359V50.5684H546.175V53.492H547.013L546.913 54.3396H546.175V57.0163H545.359V54.3396H542.26ZM549.341 50.7056C549.341 51.1913 549.31 51.5978 549.25 51.925H549.316C549.618 50.9108 550.181 50.4037 551.004 50.4037C551.584 50.4037 551.985 50.5846 552.207 50.9464C552.426 51.3082 552.536 51.8498 552.536 52.5713C552.536 52.5978 552.531 53.0642 552.521 53.9707C552.51 54.8751 552.504 55.4513 552.504 55.6993C552.504 55.9472 552.528 56.1301 552.575 56.248C552.624 56.3679 552.78 56.4279 553.043 56.4279L553.065 57.0437C552.962 57.0986 552.812 57.126 552.614 57.126C552.261 57.126 552.02 57.0254 551.891 56.8242C551.764 56.623 551.7 56.3029 551.7 55.8639C551.7 55.8456 551.707 55.3517 551.72 54.3822C551.734 53.4128 551.742 52.9098 551.742 52.8732C551.742 52.3427 551.687 51.9291 551.578 51.6324C551.468 51.3336 551.226 51.1842 550.85 51.1842C550.476 51.1842 550.165 51.3905 549.919 51.8031C549.672 52.2157 549.51 52.675 549.434 53.1811C549.355 53.6892 549.316 54.241 549.316 54.8365V57.0163H548.556V46.9618L549.341 46.7972V50.7056Z" fill="#EAE7DC"/>
</g>
<g filter="url(#filter1_d)">
<path d="M325.045 54.0911H283.161L291.56 92.4274H324.989C330.57 92.4274 335.101 87.4691 335.101 81.3618V65.1566C335.157 59.0494 330.626 54.0911 325.045 54.0911Z" fill="#FF6C64"/>
<path d="M325.045 93.6971H291.56C291.007 93.6971 290.51 93.2739 290.399 92.7297L282 54.3933C281.89 54.0305 282 53.6072 282.222 53.3048C282.443 53.0025 282.774 52.8211 283.161 52.8211H325.045C331.289 52.8211 336.317 58.3841 336.317 65.1565V81.3618C336.317 88.1341 331.289 93.6971 325.045 93.6971ZM292.499 91.097H325.045C329.962 91.097 333.941 86.7434 333.941 81.3618V65.1565C333.941 59.7749 329.962 55.4212 325.045 55.4212H284.653L292.499 91.097Z" fill="black"/>
<path d="M292.266 112.986C288.091 112.986 284.671 108.861 284.671 103.825C284.671 98.7897 288.091 94.6642 292.266 94.6642C296.441 94.6642 299.861 98.7897 299.861 103.825C299.861 108.861 296.491 112.986 292.266 112.986ZM292.266 97.2123C289.248 97.2123 286.834 100.124 286.834 103.765C286.834 107.405 289.248 110.317 292.266 110.317C295.284 110.317 297.698 107.405 297.698 103.765C297.698 100.185 295.284 97.2123 292.266 97.2123Z" fill="black"/>
<path d="M324.924 112.986C320.332 112.986 316.57 108.861 316.57 103.825C316.57 98.7897 320.332 94.6642 324.924 94.6642C329.517 94.6642 333.279 98.7897 333.279 103.825C333.279 108.861 329.517 112.986 324.924 112.986ZM324.924 97.2123C321.605 97.2123 318.949 100.124 318.949 103.765C318.949 107.405 321.605 110.317 324.924 110.317C328.244 110.317 330.9 107.405 330.9 103.765C330.9 100.185 328.189 97.2123 324.924 97.2123Z" fill="black"/>
<path d="M283.466 54.9664C282.843 54.9664 282.333 54.5299 282.276 53.9297C282.22 53.6023 281.143 47.3821 272.364 48.2551C271.684 48.3097 271.118 47.8732 271.005 47.2185C270.948 46.5637 271.401 46.0181 272.081 45.909C283.296 44.7631 284.655 53.4932 284.655 53.5477C284.768 54.2025 284.259 54.8027 283.636 54.8572C283.579 54.9664 283.522 54.9664 283.466 54.9664Z" fill="black"/>
<path d="M316.939 26.1744V0H297.973V26.1744H289.228L307.456 42.7516L325.684 26.1744H316.939Z" fill="white"/>
<path d="M307.456 42.7516C307.083 42.7516 306.764 42.6371 306.551 42.4462L289.466 26.4907C289.2 26.2617 289.146 25.9181 289.359 25.6128C289.572 25.3456 289.945 25.1547 290.371 25.1547H297.45V0.801592C297.45 0.343539 297.982 0 298.567 0H316.345C316.983 0 317.462 0.38171 317.462 0.801592V25.1929H324.541C324.967 25.1929 325.393 25.3838 325.553 25.651C325.765 25.9182 325.712 26.2617 325.446 26.5289L308.361 42.4844C308.148 42.6371 307.828 42.7516 307.456 42.7516ZM292.713 26.7961L307.456 40.5758L322.199 26.7961H316.291C315.653 26.7961 315.174 26.4144 315.174 25.9945V1.60318H299.738V25.9945C299.738 26.4525 299.206 26.7961 298.621 26.7961H292.713Z" fill="black"/>
</g>
<g filter="url(#filter2_d)">
<path d="M756.276 40.2742C759.425 40.2742 762.183 43.5505 762.183 47.849V50.7411H686.117V47.849C686.117 43.5521 688.873 40.2742 692.053 40.2742H756.276Z" fill="#F1F2F2" stroke="black"/>
<path d="M685.734 50.43V50.93H686.234H762.037H762.537V50.43V47.849C762.537 43.6656 759.827 40.0854 756.247 40.0854H692.025C688.445 40.0854 685.734 43.6656 685.734 47.849V50.43ZM762.684 51.5154H685.617H685.617V51.5155C685.617 51.5155 685.617 51.5155 685.617 51.5155L685.617 51.5151L685.613 51.5133C685.606 51.5095 685.591 51.4989 685.572 51.475C685.533 51.4246 685.5 51.3399 685.5 51.2412V47.849C685.5 43.1465 688.55 39.5 692.054 39.5H756.276C759.78 39.5 762.83 43.1465 762.83 47.849V51.2412C762.83 51.3265 762.798 51.4081 762.753 51.4627C762.732 51.4887 762.712 51.503 762.699 51.5097C762.698 51.5106 762.696 51.5114 762.695 51.5121C762.691 51.5137 762.688 51.5145 762.687 51.5149C762.685 51.5154 762.684 51.5154 762.684 51.5154Z" fill="black" stroke="black"/>
<path d="M692.053 97.1985C688.873 97.1985 686.117 93.9207 686.117 89.6238V65.7521H762.183V89.6238C762.183 93.9239 759.454 97.1985 756.276 97.1985H692.053Z" fill="#F1F2F2" stroke="black"/>
<path d="M762.801 89.6267L762.801 89.6237L762.801 65.2521C762.801 65.1534 762.768 65.0687 762.729 65.0182C762.71 64.9944 762.695 64.9837 762.688 64.9799L762.684 64.9781L762.684 64.9778V64.9778L762.801 89.6267ZM762.801 89.6267C762.829 94.3621 759.781 97.9727 756.276 97.9727H692.054C688.55 97.9727 685.5 94.3262 685.5 89.6237V65.2521C685.5 65.1408 685.537 65.0611 685.573 65.0169C685.598 64.987 685.616 64.9794 685.621 64.9778L762.801 89.6267ZM686.234 65.5632H685.734V66.0632V89.6606C685.734 93.844 688.445 97.4241 692.025 97.4241H756.247C759.827 97.4241 762.537 93.844 762.537 89.6606V66.0632V65.5632H762.037H686.234Z" fill="black" stroke="black"/>
<path d="M686.098 52.3945H761.737V63.9145H686.098V52.3945Z" fill="#E8594F"/>
<path d="M761.737 64.5798H686.098C685.752 64.5798 685.492 64.2774 685.492 63.9448V52.4248C685.492 52.062 685.781 51.7899 686.098 51.7899H761.737C762.083 51.7899 762.342 52.0922 762.342 52.4248V63.9448C762.371 64.2774 762.083 64.5798 761.737 64.5798ZM686.704 63.2796H761.102V53.0598H686.704V63.2796Z" fill="#E8594F"/>
</g>
<path d="M734.138 75.4511H704.832C704.478 75.4511 704.213 75.1466 704.213 74.8117C704.213 74.4767 704.508 74.1722 704.832 74.1722H734.138C734.492 74.1722 734.757 74.4767 734.757 74.8117C734.757 75.1466 734.492 75.4511 734.138 75.4511Z" fill="black"/>
<path d="M741.04 75.4511H732.908C732.557 75.4511 732.294 75.1466 732.294 74.8117C732.294 74.4767 732.586 74.1722 732.908 74.1722H741.04C741.391 74.1722 741.654 74.4767 741.654 74.8117C741.654 75.1466 741.361 75.4511 741.04 75.4511Z" fill="black"/>
<path d="M749.404 86.3224H696.955C696.598 86.3224 696.331 85.8656 696.331 85.3632C696.331 84.8607 696.628 84.4039 696.955 84.4039H749.404C749.761 84.4039 750.029 84.8607 750.029 85.3632C750.029 85.8656 749.761 86.3224 749.404 86.3224Z" fill="black"/>
<path d="M756.049 67.9135C749.355 67.7664 743.848 74.3206 743.78 82.5679C743.754 85.7381 744.526 88.6636 745.883 91.1251L755.689 111.772L765.83 91.5635C767.208 89.1859 768.047 86.272 768.073 83.1018C768.141 74.8545 762.763 68.061 756.049 67.9135ZM755.858 91.2251C752.423 91.1497 749.677 87.6801 749.711 83.4611C749.746 79.2422 752.549 75.8946 755.983 75.9701C759.417 76.0456 762.164 79.5151 762.13 83.7341C762.095 87.953 759.292 91.3006 755.858 91.2251Z" fill="#FF6C64"/>
<path d="M755.671 112.282C755.516 112.278 755.381 112.18 755.324 112.035L745.525 91.3813C744.092 88.7739 743.342 85.7292 743.369 82.5591C743.441 74.0499 749.127 67.2659 756.054 67.4237C762.98 67.5816 768.548 74.6221 768.475 83.1313C768.448 86.3014 767.646 89.3108 766.169 91.8757L756.041 112.052C755.963 112.193 755.826 112.285 755.671 112.282ZM756.045 68.4487C749.584 68.3014 744.271 74.6409 744.203 82.5781C744.178 85.5337 744.871 88.3864 746.228 90.8252L755.684 110.78L765.456 91.2872C766.855 88.8636 767.616 86.044 767.641 83.0884C767.709 75.1751 762.506 68.5959 756.045 68.4487ZM755.846 91.7596C752.198 91.6764 749.261 87.962 749.299 83.4809C749.337 78.9999 752.337 75.4208 755.985 75.5039C759.632 75.587 762.57 79.3015 762.532 83.7825C762.513 88.2402 759.513 91.8431 755.846 91.7596ZM755.976 76.505C752.794 76.4325 750.167 79.5671 750.134 83.4761C750.1 87.4089 752.673 90.6383 755.855 90.7108C759.037 90.7833 761.664 87.6487 761.697 83.7397C761.75 79.8311 759.178 76.578 755.976 76.505Z" fill="black"/>
<path d="M898.899 85.5073V97.1531H900.886C902.068 90.5488 907.509 85.5073 914.084 85.5073C920.66 85.5073 926.1 90.5488 927.283 97.1531H955.856V85.5073H898.899Z" fill="#E8594F"/>
<path d="M955.241 98.111H926.952C926.526 98.111 926.148 97.8085 926.101 97.3548C925.012 91.053 919.903 86.4652 913.943 86.4652C907.982 86.4652 902.873 91.053 901.785 97.3548C901.69 97.8085 901.359 98.111 900.933 98.111H898.947C898.474 98.111 898.048 97.7077 898.048 97.1531V85.5074C898.048 85.0032 898.426 84.5495 898.947 84.5495H955.241C955.714 84.5495 956.14 84.9528 956.14 85.5074V97.1531C956.14 97.7077 955.714 98.111 955.241 98.111ZM927.662 96.2457H954.342V86.4652H920.708C924.114 88.4818 926.716 91.9604 927.662 96.2457ZM899.798 96.2457H900.177C901.123 92.0109 903.725 88.4818 907.131 86.4652H899.798V96.2457Z" fill="black"/>
<path d="M898.899 37.0084H955.241V85.5579H898.899V37.0084Z" fill="white"/>
<path d="M955.241 86.4651H898.899C898.426 86.4651 898 86.0618 898 85.5073V36.9579C898 36.4537 898.378 36 898.899 36H955.241C955.714 36 956.14 36.4033 956.14 36.9579V85.5073C956.14 86.0114 955.714 86.4651 955.241 86.4651ZM899.798 84.5494H954.389V37.9158H899.798V84.5494Z" fill="black"/>
<path d="M975.252 44.8729H955.241V85.5071H973.785H975.252H994.458V66.7529C994.458 63.98 975.252 44.8729 975.252 44.8729Z" fill="white"/>
<path d="M955.241 44.8729H959.451V85.5071H955.241V44.8729Z" fill="#EAE7DC"/>
<path d="M994.458 86.4651H955.241C954.768 86.4651 954.342 86.0618 954.342 85.5073V44.873C954.342 44.3689 954.721 43.9152 955.241 43.9152H975.252C975.488 43.9152 975.677 44.016 975.867 44.1672C975.914 44.2176 980.739 49.007 985.517 54.0989C995.404 64.6356 995.404 66.0472 995.404 66.753V85.5073C995.357 86.0114 994.978 86.4651 994.458 86.4651ZM956.14 84.5494H993.606V66.8034C993.559 66.5009 992.755 64.5348 984.051 55.2585C979.982 50.9732 975.961 46.8896 974.92 45.8309H956.14V84.5494Z" fill="black"/>
<path d="M983.767 99.8251C983.767 102.66 982.71 105.378 980.829 107.383C978.948 109.387 976.398 110.513 973.738 110.513C971.078 110.513 968.527 109.387 966.646 107.383C964.765 105.378 963.709 102.66 963.709 99.8251C963.709 96.9905 964.765 94.272 966.646 92.2677C968.527 90.2633 971.078 89.1373 973.738 89.1373C976.398 89.1373 978.948 90.2633 980.829 92.2677C982.71 94.272 983.767 96.9905 983.767 99.8251Z" fill="#E8594F"/>
<path d="M973.738 111.471C967.73 111.471 962.81 106.228 962.81 99.825C962.81 93.4224 967.73 88.1792 973.738 88.1792C979.746 88.1792 984.665 93.4224 984.665 99.825C984.713 106.228 979.793 111.471 973.738 111.471ZM973.738 90.0446C968.676 90.0446 964.56 94.4306 964.56 99.825C964.56 105.219 968.676 109.606 973.738 109.606C978.799 109.606 982.915 105.219 982.915 99.825C982.915 94.4306 978.799 90.0446 973.738 90.0446Z" fill="black"/>
<path d="M978.232 99.825C978.232 101.095 977.758 102.313 976.915 103.212C976.073 104.11 974.93 104.614 973.738 104.614C972.546 104.614 971.403 104.11 970.56 103.212C969.717 102.313 969.244 101.095 969.244 99.825C969.244 98.5548 969.717 97.3366 970.56 96.4384C971.403 95.5402 972.546 95.0356 973.738 95.0356C974.93 95.0356 976.073 95.5402 976.915 96.4384C977.758 97.3366 978.232 98.5548 978.232 99.825Z" fill="white"/>
<path d="M973.738 105.522C970.757 105.522 968.345 102.951 968.345 99.7747C968.345 96.5986 970.757 94.0275 973.738 94.0275C976.718 94.0275 979.131 96.5986 979.131 99.7747C979.131 102.951 976.718 105.522 973.738 105.522ZM973.738 95.9936C971.751 95.9936 970.142 97.7077 970.142 99.8251C970.142 101.943 971.751 103.657 973.738 103.657C975.725 103.657 977.333 101.943 977.333 99.8251C977.333 97.7077 975.725 95.9936 973.738 95.9936Z" fill="black"/>
<path d="M955.241 97.1531H960.587C961.769 90.4984 967.209 85.5073 973.785 85.5073H955.241V97.1531Z" fill="#E8594F"/>
<path d="M973.738 85.5073C980.313 85.5073 985.754 90.5488 986.936 97.1531H994.458V85.5073H973.738Z" fill="#E8594F"/>
<path d="M955.241 85.5073H959.451V97.1531H955.241V85.5073Z" fill="#E8594F"/>
<path d="M960.587 98.111H955.241C954.768 98.111 954.342 97.7077 954.342 97.1531V85.5074C954.342 85.0032 954.721 84.5495 955.241 84.5495H973.785C974.258 84.5495 974.684 84.9528 974.684 85.5074C974.684 86.0115 974.305 86.4652 973.785 86.4652C967.777 86.4652 962.573 91.053 961.485 97.3548C961.343 97.8085 961.012 98.111 960.587 98.111ZM956.14 96.2457H959.877C960.823 92.0109 963.425 88.4818 966.878 86.4652H956.14V96.2457Z" fill="black"/>
<path d="M994.458 98.111H986.936C986.51 98.111 986.132 97.8085 986.085 97.3548C984.997 91.053 979.793 86.4652 973.785 86.4652C973.312 86.4652 972.886 86.0619 972.886 85.5074C972.886 85.0032 973.265 84.5495 973.785 84.5495H994.505C994.978 84.5495 995.404 84.9528 995.404 85.5074V97.1531C995.357 97.7077 994.978 98.111 994.458 98.111ZM987.646 96.2457H993.559V86.4652H980.645C984.098 88.4818 986.7 91.9604 987.646 96.2457Z" fill="black"/>
<path d="M924.113 99.8251C924.113 102.66 923.057 105.378 921.176 107.383C919.295 109.387 916.744 110.513 914.084 110.513C911.424 110.513 908.874 109.387 906.993 107.383C905.112 105.378 904.055 102.66 904.055 99.8251C904.055 96.9905 905.112 94.272 906.993 92.2677C908.874 90.2633 911.424 89.1373 914.084 89.1373C916.744 89.1373 919.295 90.2633 921.176 92.2677C923.057 94.272 924.113 96.9905 924.113 99.8251Z" fill="#E8594F"/>
<path d="M914.084 111.471C908.076 111.471 903.156 106.228 903.156 99.825C903.156 93.4224 908.076 88.1792 914.084 88.1792C920.092 88.1792 925.012 93.4224 925.012 99.825C925.012 106.228 920.092 111.471 914.084 111.471ZM914.084 90.0446C909.022 90.0446 904.907 94.4306 904.907 99.825C904.907 105.219 909.022 109.606 914.084 109.606C919.146 109.606 923.262 105.219 923.262 99.825C923.214 94.4306 919.099 90.0446 914.084 90.0446Z" fill="black"/>
<path d="M918.578 99.825C918.578 101.095 918.105 102.313 917.262 103.212C916.419 104.11 915.276 104.614 914.084 104.614C912.892 104.614 911.749 104.11 910.906 103.212C910.064 102.313 909.59 101.095 909.59 99.825C909.59 98.5548 910.064 97.3366 910.906 96.4384C911.749 95.5402 912.892 95.0356 914.084 95.0356C915.276 95.0356 916.419 95.5402 917.262 96.4384C918.105 97.3366 918.578 98.5548 918.578 99.825Z" fill="white"/>
<path d="M914.084 105.522C911.104 105.522 908.691 102.951 908.691 99.7747C908.691 96.5986 911.104 94.0275 914.084 94.0275C917.064 94.0275 919.477 96.5986 919.477 99.7747C919.43 102.951 917.017 105.522 914.084 105.522ZM914.084 95.9936C912.097 95.9936 910.489 97.7077 910.489 99.8251C910.489 101.943 912.097 103.657 914.084 103.657C916.071 103.657 917.679 101.943 917.679 99.8251C917.679 97.7077 916.024 95.9936 914.084 95.9936Z" fill="black"/>
<path d="M990.863 81.1717H994.458V70.5342H990.863C989.727 70.5342 988.781 71.5425 988.781 72.7524V78.9534C988.781 80.2138 989.727 81.1717 990.863 81.1717Z" fill="#EAE7DC"/>
<path d="M994.458 82.1296H990.863C989.207 82.1296 987.882 80.718 987.882 78.9535V72.7525C987.882 70.988 989.207 69.5764 990.863 69.5764H994.458C994.931 69.5764 995.357 69.9797 995.357 70.5342V81.1717C995.357 81.7263 994.978 82.1296 994.458 82.1296ZM990.863 71.4921C990.2 71.4921 989.68 72.0467 989.68 72.7525V78.9535C989.68 79.6593 990.2 80.2138 990.863 80.2138H993.559V71.4921H990.863Z" fill="black"/>
<path d="M939.819 60.6529L930.973 52.032C929.979 51.0741 928.465 51.1749 927.567 52.1832C926.668 53.2419 926.762 54.8552 927.709 55.8131L931.304 59.2917H914.084C912.76 59.2917 911.672 60.4512 911.672 61.8629C911.672 63.2745 912.76 64.434 914.084 64.434H932.013L927.898 67.7614C926.857 68.6184 926.668 70.2317 927.472 71.3408C927.945 71.9962 928.655 72.3491 929.364 72.3491C929.885 72.3491 930.405 72.1979 930.831 71.845L939.677 64.6357C940.245 64.1819 940.576 63.4761 940.623 62.7199C940.623 61.8628 940.339 61.157 939.819 60.6529Z" fill="#E8594F"/>
<path d="M929.364 73.2565C928.324 73.2565 927.377 72.7524 926.762 71.8953C926.242 71.1391 926.005 70.2317 926.1 69.3242C926.195 68.4167 926.668 67.5597 927.377 67.0051L929.412 65.3414H914.084C912.287 65.3414 910.82 63.7786 910.82 61.8628C910.82 59.947 912.287 58.3842 914.084 58.3842H929.033L927.141 56.5693C925.816 55.2585 925.722 53.0402 926.952 51.6286C928.182 50.217 930.263 50.1162 931.588 51.4269L940.434 60.0479C941.144 60.7537 941.522 61.762 941.522 62.7703C941.475 63.829 941.002 64.7869 940.245 65.3918L931.398 72.6011C930.736 73.0045 930.074 73.2565 929.364 73.2565ZM914.084 60.1991C913.233 60.1991 912.57 60.9049 912.57 61.8124C912.57 62.7199 913.233 63.4257 914.084 63.4257H932.013C932.392 63.4257 932.723 63.6777 932.865 64.0811C933.007 64.4844 932.865 64.8877 932.581 65.1398L928.465 68.4671C928.134 68.7192 927.945 69.1225 927.898 69.5258C927.85 69.9292 927.945 70.3829 928.182 70.7358C928.465 71.1391 928.891 71.3912 929.364 71.3912C929.695 71.3912 930.027 71.2904 930.263 71.0383L939.109 63.829C939.488 63.5265 939.677 63.1232 939.677 62.619C939.677 62.1653 939.535 61.6611 939.204 61.3587L930.358 52.7377C929.743 52.1328 928.797 52.1832 928.229 52.8385C927.661 53.4939 927.709 54.5022 928.324 55.1072L931.919 58.5858C932.203 58.8379 932.297 59.2412 932.155 59.6445C932.013 59.9974 931.682 60.2495 931.351 60.2495H914.084V60.1991Z" fill="black"/>
<path d="M959.83 64.3331H982.395C983.625 64.3331 984.334 62.7702 983.53 61.7619C980.503 57.9808 976.765 53.746 973.501 49.7632H959.877V64.3331H959.83Z" fill="#E8594F"/>
<path d="M968.676 64.3331L974.211 50.6707C973.974 50.3682 973.69 50.0657 973.454 49.7632H972.934L967.02 64.3331H968.676Z" fill="#DFE9F1"/>
<path d="M964.891 64.3331L970.757 49.7632H967.919L962.053 64.3331H964.891Z" fill="#DFE9F1"/>
<path d="M982.348 65.2909H959.782C959.309 65.2909 958.884 64.8876 958.884 64.333V49.7632C958.884 49.2591 959.262 48.8054 959.782 48.8054H973.407C973.643 48.8054 973.927 48.9062 974.069 49.1078C975.441 50.7715 976.907 52.4856 978.327 54.1997C980.313 56.5188 982.348 58.9387 984.098 61.1065C984.713 61.8627 984.855 62.871 984.429 63.7785C984.098 64.6859 983.294 65.2909 982.348 65.2909ZM960.729 63.3752H982.395C982.726 63.3752 982.868 63.1231 982.915 63.0222C982.963 62.9214 983.057 62.6189 982.821 62.3669C981.07 60.199 979.036 57.8296 977.097 55.5105C975.772 53.9476 974.353 52.284 973.076 50.7211H960.729V63.3752Z" fill="black"/>
<path d="M878.482 133.529C878.482 134.306 878.438 134.959 878.35 135.487H884.444L884.378 136.917H876.766L876.832 121.737H884.444L884.378 123.167H878.46C878.489 123.592 878.504 124.245 878.504 125.125L878.482 128.007H883.762V129.437H878.482V133.529ZM894.629 136.939C894.541 137.041 894.263 137.093 893.793 137.093C893.324 137.093 892.906 136.924 892.539 136.587C892.173 136.249 891.777 135.677 891.351 134.871L890.207 132.693L887.699 136.917H885.939L889.415 131.549L887.809 128.535C887.589 128.109 887.362 127.765 887.127 127.501C886.907 127.237 886.68 127.046 886.445 126.929L887.281 126.313C887.853 126.313 888.286 126.533 888.579 126.973C888.741 127.222 889.357 128.351 890.427 130.361L892.605 126.577H894.365L891.219 131.549L892.539 133.947C892.906 134.621 893.236 135.127 893.529 135.465C893.823 135.787 894.167 135.949 894.563 135.949L894.629 136.939ZM898.331 126.379C898.624 126.496 898.771 126.841 898.771 127.413C898.771 127.97 898.72 128.52 898.617 129.063H898.749C899.248 127.229 900.355 126.313 902.071 126.313C903.347 126.313 904.242 126.731 904.755 127.567C905.268 128.388 905.525 129.627 905.525 131.285C905.525 132.942 905.114 134.343 904.293 135.487C903.486 136.616 902.262 137.181 900.619 137.181C899.988 137.181 899.35 137.049 898.705 136.785V141.933H897.231V129.811C897.231 128.329 897.15 127.237 896.989 126.533L898.331 126.379ZM898.705 133.419V135.685C899.13 135.905 899.768 136.015 900.619 136.015C902.79 136.015 903.875 134.299 903.875 130.867C903.875 128.667 903.186 127.567 901.807 127.567C901.235 127.567 900.736 127.757 900.311 128.139C899.886 128.505 899.563 128.997 899.343 129.613C898.918 130.786 898.705 132.055 898.705 133.419ZM909.933 126.379C910.226 126.496 910.373 126.877 910.373 127.523C910.373 128.153 910.321 128.74 910.219 129.283H910.351C910.673 128.241 911.047 127.486 911.473 127.017C911.898 126.547 912.565 126.313 913.475 126.313L914.157 126.401L913.959 127.919C913.768 127.875 913.533 127.853 913.255 127.853C912.683 127.853 912.191 128.043 911.781 128.425C911.385 128.791 911.091 129.29 910.901 129.921C910.534 131.05 910.351 132.319 910.351 133.727V136.917H908.833V129.811C908.833 128.329 908.752 127.237 908.591 126.533L909.933 126.379ZM922.082 128.843C922.082 128.417 921.95 128.095 921.686 127.875C921.422 127.655 921.07 127.545 920.63 127.545C919.75 127.545 919.061 127.911 918.562 128.645C918.064 129.363 917.778 130.236 917.704 131.263C920.623 131.263 922.082 130.456 922.082 128.843ZM920.19 137.181C917.433 137.181 916.054 135.421 916.054 131.901C916.054 130.287 916.458 128.953 917.264 127.897C918.086 126.841 919.237 126.313 920.718 126.313C921.628 126.313 922.346 126.533 922.874 126.973C923.417 127.398 923.688 127.992 923.688 128.755C923.688 129.503 923.505 130.119 923.138 130.603C922.786 131.072 922.302 131.431 921.686 131.681C920.528 132.15 919.186 132.385 917.66 132.385C917.66 134.717 918.592 135.883 920.454 135.883C921.393 135.883 922.28 135.626 923.116 135.113L923.358 135.971C922.992 136.337 922.508 136.631 921.906 136.851C921.32 137.071 920.748 137.181 920.19 137.181ZM928.212 135.971C928.857 135.971 929.4 135.824 929.84 135.531C930.28 135.223 930.5 134.79 930.5 134.233C930.5 133.646 930.221 133.184 929.664 132.847C929.385 132.685 929.048 132.524 928.652 132.363C928.256 132.187 928.014 132.077 927.926 132.033C927.193 131.71 926.621 131.329 926.21 130.889C925.814 130.449 925.616 129.825 925.616 129.019C925.616 128.197 925.946 127.545 926.606 127.061C927.266 126.562 928.043 126.313 928.938 126.313C929.833 126.313 930.639 126.489 931.358 126.841L931.116 127.831C930.383 127.625 929.73 127.523 929.158 127.523C928.601 127.523 928.117 127.655 927.706 127.919C927.295 128.168 927.09 128.52 927.09 128.975C927.09 129.429 927.229 129.789 927.508 130.053C927.787 130.302 928.073 130.493 928.366 130.625C928.674 130.757 928.997 130.896 929.334 131.043C929.686 131.175 929.913 131.27 930.016 131.329C930.119 131.387 930.309 131.497 930.588 131.659C930.867 131.805 931.057 131.945 931.16 132.077C931.277 132.209 931.409 132.385 931.556 132.605C931.835 132.971 931.974 133.492 931.974 134.167C931.974 135.135 931.615 135.883 930.896 136.411C930.177 136.924 929.261 137.181 928.146 137.181C927.046 137.181 926.071 136.814 925.22 136.081L925.462 135.201C926.298 135.714 927.215 135.971 928.212 135.971ZM936.548 135.971C937.193 135.971 937.736 135.824 938.176 135.531C938.616 135.223 938.836 134.79 938.836 134.233C938.836 133.646 938.557 133.184 938 132.847C937.721 132.685 937.384 132.524 936.988 132.363C936.592 132.187 936.35 132.077 936.262 132.033C935.529 131.71 934.957 131.329 934.546 130.889C934.15 130.449 933.952 129.825 933.952 129.019C933.952 128.197 934.282 127.545 934.942 127.061C935.602 126.562 936.379 126.313 937.274 126.313C938.169 126.313 938.975 126.489 939.694 126.841L939.452 127.831C938.719 127.625 938.066 127.523 937.494 127.523C936.937 127.523 936.453 127.655 936.042 127.919C935.631 128.168 935.426 128.52 935.426 128.975C935.426 129.429 935.565 129.789 935.844 130.053C936.123 130.302 936.409 130.493 936.702 130.625C937.01 130.757 937.333 130.896 937.67 131.043C938.022 131.175 938.249 131.27 938.352 131.329C938.455 131.387 938.645 131.497 938.924 131.659C939.203 131.805 939.393 131.945 939.496 132.077C939.613 132.209 939.745 132.385 939.892 132.605C940.171 132.971 940.31 133.492 940.31 134.167C940.31 135.135 939.951 135.883 939.232 136.411C938.513 136.924 937.597 137.181 936.482 137.181C935.382 137.181 934.407 136.814 933.556 136.081L933.798 135.201C934.634 135.714 935.551 135.971 936.548 135.971ZM952.231 121.649C956.015 121.649 957.907 124.179 957.907 129.239C957.907 131.483 957.408 133.345 956.411 134.827C955.927 135.56 955.274 136.139 954.453 136.565C953.646 136.975 952.722 137.181 951.681 137.181C950.024 137.181 948.814 137.012 948.051 136.675L948.117 121.913C949.32 121.737 950.691 121.649 952.231 121.649ZM951.461 135.751C953.089 135.751 954.277 135.142 955.025 133.925C955.773 132.693 956.147 131.109 956.147 129.173C956.147 125.11 954.666 123.079 951.703 123.079L949.767 123.167V135.641C950.178 135.714 950.742 135.751 951.461 135.751ZM966.662 128.843C966.662 128.417 966.53 128.095 966.266 127.875C966.002 127.655 965.65 127.545 965.21 127.545C964.33 127.545 963.641 127.911 963.142 128.645C962.644 129.363 962.358 130.236 962.284 131.263C965.203 131.263 966.662 130.456 966.662 128.843ZM964.77 137.181C962.013 137.181 960.634 135.421 960.634 131.901C960.634 130.287 961.038 128.953 961.844 127.897C962.666 126.841 963.817 126.313 965.298 126.313C966.208 126.313 966.926 126.533 967.454 126.973C967.997 127.398 968.268 127.992 968.268 128.755C968.268 129.503 968.085 130.119 967.718 130.603C967.366 131.072 966.882 131.431 966.266 131.681C965.108 132.15 963.766 132.385 962.24 132.385C962.24 134.717 963.172 135.883 965.034 135.883C965.973 135.883 966.86 135.626 967.696 135.113L967.938 135.971C967.572 136.337 967.088 136.631 966.486 136.851C965.9 137.071 965.328 137.181 964.77 137.181ZM970.944 135.025V120.791L972.528 120.527V134.123C972.528 134.9 972.587 135.406 972.704 135.641C972.821 135.861 973.159 135.971 973.716 135.971L973.76 136.939C973.525 137.041 973.129 137.093 972.572 137.093C972.015 137.093 971.604 136.931 971.34 136.609C971.076 136.286 970.944 135.758 970.944 135.025ZM978.549 137.093C977.874 137.093 977.405 136.931 977.141 136.609C976.877 136.286 976.745 135.758 976.745 135.025V126.577H978.329V134.123C978.329 134.9 978.387 135.406 978.505 135.641C978.622 135.861 978.959 135.971 979.517 135.971L979.561 136.939C979.223 137.041 978.886 137.093 978.549 137.093ZM976.591 123.123C976.591 122.433 976.928 122.089 977.603 122.089C978.219 122.089 978.527 122.426 978.527 123.101C978.527 123.761 978.204 124.091 977.559 124.091C976.913 124.091 976.591 123.768 976.591 123.123ZM987.518 129.415C987.664 128.931 987.738 128.41 987.738 127.853C987.738 127.295 987.672 126.833 987.54 126.467L988.882 126.313C989.19 126.489 989.344 126.907 989.344 127.567C989.344 128.212 989.241 128.872 989.036 129.547C988.83 130.207 988.412 131.248 987.782 132.671L985.912 136.917H984.526L982.37 129.701C981.93 128.234 981.534 127.193 981.182 126.577L982.326 126.357C982.546 126.357 982.722 126.467 982.854 126.687C983 126.907 983.176 127.347 983.382 128.007L985.494 135.003H985.626C985.582 134.885 985.56 134.731 985.56 134.541C985.56 134.335 985.626 134.079 985.758 133.771C986.799 131.351 987.386 129.899 987.518 129.415ZM997.6 128.843C997.6 128.417 997.468 128.095 997.204 127.875C996.94 127.655 996.588 127.545 996.148 127.545C995.268 127.545 994.579 127.911 994.08 128.645C993.581 129.363 993.295 130.236 993.222 131.263C996.141 131.263 997.6 130.456 997.6 128.843ZM995.708 137.181C992.951 137.181 991.572 135.421 991.572 131.901C991.572 130.287 991.975 128.953 992.782 127.897C993.603 126.841 994.755 126.313 996.236 126.313C997.145 126.313 997.864 126.533 998.392 126.973C998.935 127.398 999.206 127.992 999.206 128.755C999.206 129.503 999.023 130.119 998.656 130.603C998.304 131.072 997.82 131.431 997.204 131.681C996.045 132.15 994.703 132.385 993.178 132.385C993.178 134.717 994.109 135.883 995.972 135.883C996.911 135.883 997.798 135.626 998.634 135.113L998.876 135.971C998.509 136.337 998.025 136.631 997.424 136.851C996.837 137.071 996.265 137.181 995.708 137.181ZM1002.98 126.379C1003.27 126.496 1003.42 126.877 1003.42 127.523C1003.42 128.153 1003.37 128.74 1003.27 129.283H1003.4C1003.72 128.241 1004.1 127.486 1004.52 127.017C1004.95 126.547 1005.61 126.313 1006.52 126.313L1007.21 126.401L1007.01 127.919C1006.82 127.875 1006.58 127.853 1006.3 127.853C1005.73 127.853 1005.24 128.043 1004.83 128.425C1004.43 128.791 1004.14 129.29 1003.95 129.921C1003.58 131.05 1003.4 132.319 1003.4 133.727V136.917H1001.88V129.811C1001.88 128.329 1001.8 127.237 1001.64 126.533L1002.98 126.379ZM1009.87 128.095C1009.87 127.391 1009.79 126.87 1009.61 126.533L1010.86 126.313C1011.11 126.371 1011.27 126.518 1011.33 126.753C1011.4 126.987 1011.44 127.229 1011.44 127.479C1011.44 127.655 1011.41 128.652 1011.35 130.471C1011.29 132.289 1011.26 133.25 1011.26 133.353C1011.26 134.13 1011.37 134.753 1011.59 135.223C1011.81 135.692 1012.23 135.927 1012.84 135.927C1013.46 135.927 1013.97 135.721 1014.36 135.311C1014.76 134.9 1015.07 134.365 1015.31 133.705C1015.78 132.355 1016.01 130.896 1016.01 129.327V126.577H1017.49L1017.51 136.257C1017.51 138.119 1017.16 139.571 1016.47 140.613C1015.8 141.669 1014.65 142.197 1013.04 142.197C1012.45 142.197 1011.85 142.087 1011.24 141.867C1010.62 141.661 1010.13 141.368 1009.76 140.987L1010.01 140.129C1010.86 140.686 1011.85 140.965 1012.98 140.965C1014.12 140.965 1014.9 140.561 1015.33 139.755C1015.77 138.963 1015.99 137.797 1015.99 136.257C1015.99 135.406 1016.04 134.753 1016.14 134.299H1016.01C1015.47 136.22 1014.3 137.181 1012.51 137.181C1011.38 137.181 1010.63 136.895 1010.25 136.323C1009.87 135.751 1009.68 134.922 1009.68 133.837C1009.68 133.719 1009.7 132.759 1009.76 130.955C1009.84 129.151 1009.87 128.197 1009.87 128.095Z" fill="black"/>
<path d="M658.737 137.181C656.654 137.181 655.217 136.418 654.425 134.893C653.692 133.499 653.325 131.681 653.325 129.437C653.325 127.193 653.868 125.337 654.953 123.871C656.038 122.389 657.549 121.649 659.485 121.649C660.424 121.649 661.326 121.795 662.191 122.089L661.861 123.321C661.113 123.174 660.387 123.101 659.683 123.101C656.618 123.101 655.085 125.227 655.085 129.481C655.085 132.517 655.745 134.438 657.065 135.245C657.608 135.567 658.275 135.729 659.067 135.729C660.343 135.729 661.494 135.303 662.521 134.453L662.873 135.575C661.905 136.645 660.526 137.181 658.737 137.181ZM671.352 129.415V127.809C670.927 127.589 670.289 127.479 669.438 127.479C667.267 127.479 666.182 129.114 666.182 132.385C666.182 134.775 666.908 135.971 668.36 135.971C668.976 135.971 669.489 135.765 669.9 135.355C670.325 134.929 670.641 134.357 670.846 133.639C671.183 132.392 671.352 130.984 671.352 129.415ZM668.206 137.181C666.93 137.181 665.999 136.741 665.412 135.861C664.825 134.981 664.532 133.734 664.532 132.121C664.532 130.493 664.943 129.121 665.764 128.007C666.6 126.877 667.825 126.313 669.438 126.313C670.01 126.313 670.575 126.371 671.132 126.489C671.704 126.606 672.269 126.775 672.826 126.995V132.583C672.826 134.079 672.958 135.025 673.222 135.421C673.471 135.817 673.889 136.015 674.476 136.015L674.52 137.005C674.285 137.063 673.992 137.093 673.64 137.093C672.863 137.093 672.305 136.821 671.968 136.279C671.719 135.883 671.594 135.413 671.594 134.871C671.594 134.695 671.609 134.504 671.638 134.299H671.506C671.257 135.179 670.853 135.883 670.296 136.411C669.753 136.924 669.057 137.181 668.206 137.181ZM678.882 135.971C679.527 135.971 680.07 135.824 680.51 135.531C680.95 135.223 681.17 134.79 681.17 134.233C681.17 133.646 680.891 133.184 680.334 132.847C680.055 132.685 679.718 132.524 679.322 132.363C678.926 132.187 678.684 132.077 678.596 132.033C677.862 131.71 677.29 131.329 676.88 130.889C676.484 130.449 676.286 129.825 676.286 129.019C676.286 128.197 676.616 127.545 677.276 127.061C677.936 126.562 678.713 126.313 679.608 126.313C680.502 126.313 681.309 126.489 682.028 126.841L681.786 127.831C681.052 127.625 680.4 127.523 679.828 127.523C679.27 127.523 678.786 127.655 678.376 127.919C677.965 128.168 677.76 128.52 677.76 128.975C677.76 129.429 677.899 129.789 678.178 130.053C678.456 130.302 678.742 130.493 679.036 130.625C679.344 130.757 679.666 130.896 680.004 131.043C680.356 131.175 680.583 131.27 680.686 131.329C680.788 131.387 680.979 131.497 681.258 131.659C681.536 131.805 681.727 131.945 681.83 132.077C681.947 132.209 682.079 132.385 682.226 132.605C682.504 132.971 682.644 133.492 682.644 134.167C682.644 135.135 682.284 135.883 681.566 136.411C680.847 136.924 679.93 137.181 678.816 137.181C677.716 137.181 676.74 136.814 675.89 136.081L676.132 135.201C676.968 135.714 677.884 135.971 678.882 135.971ZM686.888 126.797C686.888 127.574 686.829 128.227 686.712 128.755H686.844C687.445 127.127 688.567 126.313 690.21 126.313C691.368 126.313 692.168 126.606 692.608 127.193C693.048 127.765 693.268 128.63 693.268 129.789C693.268 129.833 693.253 130.581 693.224 132.033C693.209 133.485 693.202 134.409 693.202 134.805C693.202 135.201 693.246 135.494 693.334 135.685C693.436 135.875 693.752 135.971 694.28 135.971L694.324 136.961C694.118 137.049 693.818 137.093 693.422 137.093C692.718 137.093 692.234 136.931 691.97 136.609C691.72 136.286 691.596 135.773 691.596 135.069C691.596 135.039 691.61 134.247 691.64 132.693C691.669 131.138 691.684 130.331 691.684 130.273C691.684 129.422 691.574 128.762 691.354 128.293C691.134 127.809 690.65 127.567 689.902 127.567C689.154 127.567 688.53 127.897 688.032 128.557C687.548 129.217 687.225 129.957 687.064 130.779C686.917 131.585 686.844 132.465 686.844 133.419V136.917H685.326V120.791L686.888 120.527V126.797ZM707.367 135.795C708.188 135.795 708.892 135.604 709.479 135.223C710.08 134.827 710.542 134.291 710.865 133.617C711.496 132.326 711.811 130.749 711.811 128.887C711.811 126.643 711.393 125.037 710.557 124.069C709.912 123.306 708.958 122.925 707.697 122.925C706.905 122.925 706.208 123.108 705.607 123.475C705.02 123.841 704.558 124.34 704.221 124.971C703.576 126.217 703.253 127.713 703.253 129.459C703.253 133.683 704.624 135.795 707.367 135.795ZM707.169 137.181C706.201 137.181 705.328 136.997 704.551 136.631C703.774 136.264 703.165 135.729 702.725 135.025C701.904 133.69 701.493 131.835 701.493 129.459C701.493 126.305 702.395 124.017 704.199 122.595C705.152 121.847 706.318 121.473 707.697 121.473C709.794 121.473 711.29 122.118 712.185 123.409C713.08 124.699 713.527 126.533 713.527 128.909C713.527 131.769 712.823 133.969 711.415 135.509C710.403 136.623 708.988 137.181 707.169 137.181ZM718.599 127.017C718.599 127.794 718.54 128.447 718.423 128.975H718.555C718.76 128.153 719.156 127.508 719.743 127.039C720.344 126.555 721.07 126.313 721.921 126.313C723.079 126.313 723.879 126.606 724.319 127.193C724.759 127.765 724.979 128.63 724.979 129.789C724.979 129.833 724.964 130.581 724.935 132.033C724.92 133.485 724.913 134.409 724.913 134.805C724.913 135.201 724.957 135.494 725.045 135.685C725.147 135.875 725.463 135.971 725.991 135.971L726.035 136.961C725.829 137.049 725.529 137.093 725.133 137.093C724.429 137.093 723.945 136.931 723.681 136.609C723.431 136.286 723.307 135.773 723.307 135.069C723.307 135.039 723.321 134.247 723.351 132.693C723.38 131.138 723.395 130.331 723.395 130.273C723.395 129.422 723.285 128.762 723.065 128.293C722.845 127.809 722.405 127.567 721.745 127.567C721.099 127.567 720.557 127.772 720.117 128.183C719.691 128.593 719.369 129.129 719.149 129.789C718.753 131.065 718.555 132.421 718.555 133.859V136.917H717.037V126.577L718.599 126.379V127.017ZM738.264 121.649C742.048 121.649 743.94 124.179 743.94 129.239C743.94 131.483 743.441 133.345 742.444 134.827C741.96 135.56 741.307 136.139 740.486 136.565C739.679 136.975 738.755 137.181 737.714 137.181C736.057 137.181 734.847 137.012 734.084 136.675L734.15 121.913C735.353 121.737 736.724 121.649 738.264 121.649ZM737.494 135.751C739.122 135.751 740.31 135.142 741.058 133.925C741.806 132.693 742.18 131.109 742.18 129.173C742.18 125.11 740.699 123.079 737.736 123.079L735.8 123.167V135.641C736.211 135.714 736.775 135.751 737.494 135.751ZM752.695 128.843C752.695 128.417 752.563 128.095 752.299 127.875C752.035 127.655 751.683 127.545 751.243 127.545C750.363 127.545 749.674 127.911 749.175 128.645C748.677 129.363 748.391 130.236 748.317 131.263C751.236 131.263 752.695 130.456 752.695 128.843ZM750.803 137.181C748.046 137.181 746.667 135.421 746.667 131.901C746.667 130.287 747.071 128.953 747.877 127.897C748.699 126.841 749.85 126.313 751.331 126.313C752.241 126.313 752.959 126.533 753.487 126.973C754.03 127.398 754.301 127.992 754.301 128.755C754.301 129.503 754.118 130.119 753.751 130.603C753.399 131.072 752.915 131.431 752.299 131.681C751.141 132.15 749.799 132.385 748.273 132.385C748.273 134.717 749.205 135.883 751.067 135.883C752.006 135.883 752.893 135.626 753.729 135.113L753.971 135.971C753.605 136.337 753.121 136.631 752.519 136.851C751.933 137.071 751.361 137.181 750.803 137.181ZM756.977 135.025V120.791L758.561 120.527V134.123C758.561 134.9 758.62 135.406 758.737 135.641C758.854 135.861 759.192 135.971 759.749 135.971L759.793 136.939C759.558 137.041 759.162 137.093 758.605 137.093C758.048 137.093 757.637 136.931 757.373 136.609C757.109 136.286 756.977 135.758 756.977 135.025ZM764.582 137.093C763.907 137.093 763.438 136.931 763.174 136.609C762.91 136.286 762.778 135.758 762.778 135.025V126.577H764.362V134.123C764.362 134.9 764.42 135.406 764.538 135.641C764.655 135.861 764.992 135.971 765.55 135.971L765.594 136.939C765.256 137.041 764.919 137.093 764.582 137.093ZM762.624 123.123C762.624 122.433 762.961 122.089 763.636 122.089C764.252 122.089 764.56 122.426 764.56 123.101C764.56 123.761 764.237 124.091 763.592 124.091C762.946 124.091 762.624 123.768 762.624 123.123ZM773.551 129.415C773.697 128.931 773.771 128.41 773.771 127.853C773.771 127.295 773.705 126.833 773.573 126.467L774.915 126.313C775.223 126.489 775.377 126.907 775.377 127.567C775.377 128.212 775.274 128.872 775.069 129.547C774.863 130.207 774.445 131.248 773.815 132.671L771.945 136.917H770.559L768.403 129.701C767.963 128.234 767.567 127.193 767.215 126.577L768.359 126.357C768.579 126.357 768.755 126.467 768.887 126.687C769.033 126.907 769.209 127.347 769.415 128.007L771.527 135.003H771.659C771.615 134.885 771.593 134.731 771.593 134.541C771.593 134.335 771.659 134.079 771.791 133.771C772.832 131.351 773.419 129.899 773.551 129.415ZM783.633 128.843C783.633 128.417 783.501 128.095 783.237 127.875C782.973 127.655 782.621 127.545 782.181 127.545C781.301 127.545 780.612 127.911 780.113 128.645C779.614 129.363 779.328 130.236 779.255 131.263C782.174 131.263 783.633 130.456 783.633 128.843ZM781.741 137.181C778.984 137.181 777.605 135.421 777.605 131.901C777.605 130.287 778.008 128.953 778.815 127.897C779.636 126.841 780.788 126.313 782.269 126.313C783.178 126.313 783.897 126.533 784.425 126.973C784.968 127.398 785.239 127.992 785.239 128.755C785.239 129.503 785.056 130.119 784.689 130.603C784.337 131.072 783.853 131.431 783.237 131.681C782.078 132.15 780.736 132.385 779.211 132.385C779.211 134.717 780.142 135.883 782.005 135.883C782.944 135.883 783.831 135.626 784.667 135.113L784.909 135.971C784.542 136.337 784.058 136.631 783.457 136.851C782.87 137.071 782.298 137.181 781.741 137.181ZM789.015 126.379C789.308 126.496 789.455 126.877 789.455 127.523C789.455 128.153 789.403 128.74 789.301 129.283H789.433C789.755 128.241 790.129 127.486 790.555 127.017C790.98 126.547 791.647 126.313 792.557 126.313L793.239 126.401L793.041 127.919C792.85 127.875 792.615 127.853 792.337 127.853C791.765 127.853 791.273 128.043 790.863 128.425C790.467 128.791 790.173 129.29 789.983 129.921C789.616 131.05 789.433 132.319 789.433 133.727V136.917H787.915V129.811C787.915 128.329 787.834 127.237 787.673 126.533L789.015 126.379ZM795.906 128.095C795.906 127.391 795.818 126.87 795.642 126.533L796.896 126.313C797.146 126.371 797.3 126.518 797.358 126.753C797.432 126.987 797.468 127.229 797.468 127.479C797.468 127.655 797.439 128.652 797.38 130.471C797.322 132.289 797.292 133.25 797.292 133.353C797.292 134.13 797.402 134.753 797.622 135.223C797.842 135.692 798.26 135.927 798.876 135.927C799.492 135.927 799.998 135.721 800.394 135.311C800.79 134.9 801.106 134.365 801.34 133.705C801.81 132.355 802.044 130.896 802.044 129.327V126.577H803.518L803.54 136.257C803.54 138.119 803.196 139.571 802.506 140.613C801.832 141.669 800.688 142.197 799.074 142.197C798.488 142.197 797.886 142.087 797.27 141.867C796.654 141.661 796.163 141.368 795.796 140.987L796.038 140.129C796.889 140.686 797.879 140.965 799.008 140.965C800.152 140.965 800.937 140.561 801.362 139.755C801.802 138.963 802.022 137.797 802.022 136.257C802.022 135.406 802.074 134.753 802.176 134.299H802.044C801.502 136.22 800.336 137.181 798.546 137.181C797.417 137.181 796.662 136.895 796.28 136.323C795.899 135.751 795.708 134.922 795.708 133.837C795.708 133.719 795.738 132.759 795.796 130.955C795.87 129.151 795.906 128.197 795.906 128.095Z" fill="black"/>
<path d="M467.748 136.917V136.323C468.569 135.501 469.434 134.57 470.344 133.529C471.253 132.473 471.825 131.783 472.06 131.461C472.309 131.123 472.624 130.669 473.006 130.097C473.387 129.525 473.666 129.041 473.842 128.645C474.326 127.589 474.568 126.672 474.568 125.895C474.568 125.117 474.289 124.538 473.732 124.157C473.189 123.761 472.441 123.563 471.488 123.563C470.549 123.563 469.632 123.709 468.738 124.003L468.408 122.793C469.508 122.367 470.688 122.155 471.95 122.155C473.211 122.155 474.245 122.485 475.052 123.145C475.858 123.79 476.262 124.751 476.262 126.027C476.262 128.447 474.326 131.629 470.454 135.575L476.57 135.509L476.658 136.917H467.748ZM479.931 132.627V132.033L483.407 122.155L484.903 122.419L481.845 131.263H486.113V126.577H487.741V131.263H489.413L489.215 132.627H487.741V136.917H486.113V132.627H479.931ZM494.051 126.797C494.051 127.574 493.992 128.227 493.875 128.755H494.007C494.608 127.127 495.73 126.313 497.373 126.313C498.532 126.313 499.331 126.606 499.771 127.193C500.211 127.765 500.431 128.63 500.431 129.789C500.431 129.833 500.416 130.581 500.387 132.033C500.372 133.485 500.365 134.409 500.365 134.805C500.365 135.201 500.409 135.494 500.497 135.685C500.6 135.875 500.915 135.971 501.443 135.971L501.487 136.961C501.282 137.049 500.981 137.093 500.585 137.093C499.881 137.093 499.397 136.931 499.133 136.609C498.884 136.286 498.759 135.773 498.759 135.069C498.759 135.039 498.774 134.247 498.803 132.693C498.832 131.138 498.847 130.331 498.847 130.273C498.847 129.422 498.737 128.762 498.517 128.293C498.297 127.809 497.813 127.567 497.065 127.567C496.317 127.567 495.694 127.897 495.195 128.557C494.711 129.217 494.388 129.957 494.227 130.779C494.08 131.585 494.007 132.465 494.007 133.419V136.917H492.489V120.791L494.051 120.527V126.797ZM508.283 134.563C509.441 135.355 510.556 135.751 511.627 135.751C512.712 135.751 513.555 135.501 514.157 135.003C514.773 134.504 515.081 133.815 515.081 132.935C515.081 132.216 514.861 131.651 514.421 131.241C513.951 130.786 513.218 130.331 512.221 129.877C511.927 129.73 511.722 129.627 511.605 129.569C510.607 129.099 509.83 128.557 509.273 127.941C508.73 127.325 508.459 126.452 508.459 125.323C508.459 124.193 508.877 123.269 509.713 122.551C510.563 121.832 511.583 121.473 512.771 121.473C513.959 121.473 515.044 121.685 516.027 122.111L515.697 123.321C514.817 123.027 513.959 122.881 513.123 122.881C512.287 122.881 511.583 123.101 511.011 123.541C510.439 123.966 510.153 124.531 510.153 125.235C510.153 125.939 510.351 126.503 510.747 126.929C511.201 127.398 512.008 127.897 513.167 128.425C514.223 128.923 514.941 129.341 515.323 129.679C515.851 130.163 516.181 130.551 516.313 130.845C516.591 131.549 516.731 132.216 516.731 132.847C516.731 134.181 516.269 135.237 515.345 136.015C514.435 136.792 513.262 137.181 511.825 137.181C510.402 137.181 509.104 136.697 507.931 135.729L508.283 134.563ZM519.667 128.095C519.667 127.391 519.579 126.87 519.403 126.533L520.657 126.313C520.906 126.371 521.06 126.518 521.119 126.753C521.192 126.987 521.229 127.229 521.229 127.479C521.229 127.655 521.2 128.667 521.141 130.515C521.082 132.348 521.053 133.367 521.053 133.573C521.053 133.778 521.06 134.013 521.075 134.277C521.104 134.526 521.178 134.79 521.295 135.069C521.5 135.641 521.999 135.927 522.791 135.927C523.378 135.927 523.876 135.721 524.287 135.311C524.712 134.885 525.02 134.328 525.211 133.639C525.578 132.392 525.761 131.028 525.761 129.547V126.577H527.235V132.583C527.235 133.888 527.33 134.79 527.521 135.289C527.712 135.773 528.137 136.015 528.797 136.015L528.841 137.005C528.606 137.063 528.313 137.093 527.961 137.093C527.228 137.093 526.714 136.88 526.421 136.455C526.142 136.015 526.003 135.509 526.003 134.937C526.003 134.775 526.01 134.607 526.025 134.431H525.893C525.658 135.325 525.226 136.007 524.595 136.477C523.979 136.946 523.165 137.181 522.153 137.181C521.156 137.181 520.459 136.873 520.063 136.257C519.667 135.641 519.469 134.797 519.469 133.727C519.469 133.595 519.498 132.649 519.557 130.889C519.63 129.129 519.667 128.197 519.667 128.095ZM532.541 126.379C532.835 126.496 532.981 126.841 532.981 127.413C532.981 127.97 532.93 128.52 532.827 129.063H532.959C533.458 127.229 534.565 126.313 536.281 126.313C537.557 126.313 538.452 126.731 538.965 127.567C539.479 128.388 539.735 129.627 539.735 131.285C539.735 132.942 539.325 134.343 538.503 135.487C537.697 136.616 536.472 137.181 534.829 137.181C534.199 137.181 533.561 137.049 532.915 136.785V141.933H531.441V129.811C531.441 128.329 531.361 127.237 531.199 126.533L532.541 126.379ZM532.915 133.419V135.685C533.341 135.905 533.979 136.015 534.829 136.015C537 136.015 538.085 134.299 538.085 130.867C538.085 128.667 537.396 127.567 536.017 127.567C535.445 127.567 534.947 127.757 534.521 128.139C534.096 128.505 533.773 128.997 533.553 129.613C533.128 130.786 532.915 132.055 532.915 133.419ZM544.143 126.379C544.436 126.496 544.583 126.841 544.583 127.413C544.583 127.97 544.532 128.52 544.429 129.063H544.561C545.06 127.229 546.167 126.313 547.883 126.313C549.159 126.313 550.054 126.731 550.567 127.567C551.08 128.388 551.337 129.627 551.337 131.285C551.337 132.942 550.926 134.343 550.105 135.487C549.298 136.616 548.074 137.181 546.431 137.181C545.8 137.181 545.162 137.049 544.517 136.785V141.933H543.043V129.811C543.043 128.329 542.962 127.237 542.801 126.533L544.143 126.379ZM544.517 133.419V135.685C544.942 135.905 545.58 136.015 546.431 136.015C548.602 136.015 549.687 134.299 549.687 130.867C549.687 128.667 548.998 127.567 547.619 127.567C547.047 127.567 546.548 127.757 546.123 128.139C545.698 128.505 545.375 128.997 545.155 129.613C544.73 130.786 544.517 132.055 544.517 133.419ZM558.164 136.015C558.898 136.015 559.499 135.787 559.968 135.333C560.438 134.878 560.753 134.328 560.914 133.683C561.09 133.037 561.178 132.297 561.178 131.461C561.178 128.835 560.247 127.523 558.384 127.523C557.695 127.523 557.123 127.743 556.668 128.183C555.847 128.96 555.436 130.199 555.436 131.901C555.436 134.643 556.346 136.015 558.164 136.015ZM562.828 131.483C562.828 133.096 562.418 134.453 561.596 135.553C560.79 136.638 559.616 137.181 558.076 137.181C556.551 137.181 555.466 136.741 554.82 135.861C554.175 134.966 553.852 133.661 553.852 131.945C553.852 130.229 554.226 128.865 554.974 127.853C555.722 126.826 556.852 126.313 558.362 126.313C559.873 126.313 560.995 126.775 561.728 127.699C562.462 128.608 562.828 129.869 562.828 131.483ZM567.174 126.379C567.467 126.496 567.614 126.877 567.614 127.523C567.614 128.153 567.563 128.74 567.46 129.283H567.592C567.915 128.241 568.289 127.486 568.714 127.017C569.139 126.547 569.807 126.313 570.716 126.313L571.398 126.401L571.2 127.919C571.009 127.875 570.775 127.853 570.496 127.853C569.924 127.853 569.433 128.043 569.022 128.425C568.626 128.791 568.333 129.29 568.142 129.921C567.775 131.05 567.592 132.319 567.592 133.727V136.917H566.074V129.811C566.074 128.329 565.993 127.237 565.832 126.533L567.174 126.379ZM579.082 135.817L579.302 136.785C578.759 137.049 578.106 137.181 577.344 137.181C576.258 137.181 575.54 136.887 575.188 136.301C574.836 135.714 574.66 134.783 574.66 133.507V127.743H572.9V126.797L574.66 126.577V124.289L576.244 124.025V126.577H579.082V127.743H576.244V133.023C576.244 134.387 576.361 135.215 576.596 135.509C576.889 135.846 577.285 136.015 577.784 136.015C578.282 136.015 578.715 135.949 579.082 135.817Z" fill="black"/>
<path d="M227.318 121.913C228.623 121.737 229.965 121.649 231.344 121.649C232.737 121.649 233.844 121.993 234.666 122.683C235.487 123.372 235.898 124.34 235.898 125.587C235.898 127.713 234.82 129.07 232.664 129.657L234.864 133.991C235.216 134.709 235.538 135.215 235.832 135.509C236.14 135.787 236.506 135.927 236.932 135.927L236.998 136.983C236.939 137.041 236.646 137.071 236.118 137.071C235.604 137.071 235.142 136.887 234.732 136.521C234.321 136.139 233.918 135.553 233.522 134.761L231.058 129.921C230.838 129.965 230.581 129.987 230.288 129.987H228.924V136.917H227.252L227.318 121.913ZM228.924 128.601H230.332C232.869 128.601 234.138 127.625 234.138 125.675C234.138 123.959 233.126 123.101 231.102 123.101C230.28 123.101 229.554 123.145 228.924 123.233V128.601ZM244.66 128.843C244.66 128.417 244.528 128.095 244.264 127.875C244 127.655 243.648 127.545 243.208 127.545C242.328 127.545 241.639 127.911 241.14 128.645C240.642 129.363 240.356 130.236 240.282 131.263C243.201 131.263 244.66 130.456 244.66 128.843ZM242.768 137.181C240.011 137.181 238.632 135.421 238.632 131.901C238.632 130.287 239.036 128.953 239.842 127.897C240.664 126.841 241.815 126.313 243.296 126.313C244.206 126.313 244.924 126.533 245.452 126.973C245.995 127.398 246.266 127.992 246.266 128.755C246.266 129.503 246.083 130.119 245.716 130.603C245.364 131.072 244.88 131.431 244.264 131.681C243.106 132.15 241.764 132.385 240.238 132.385C240.238 134.717 241.17 135.883 243.032 135.883C243.971 135.883 244.858 135.626 245.694 135.113L245.936 135.971C245.57 136.337 245.086 136.631 244.484 136.851C243.898 137.071 243.326 137.181 242.768 137.181ZM253.936 135.817L254.156 136.785C253.613 137.049 252.96 137.181 252.198 137.181C251.112 137.181 250.394 136.887 250.042 136.301C249.69 135.714 249.514 134.783 249.514 133.507V127.743H247.754V126.797L249.514 126.577V124.289L251.098 124.025V126.577H253.936V127.743H251.098V133.023C251.098 134.387 251.215 135.215 251.45 135.509C251.743 135.846 252.139 136.015 252.638 136.015C253.136 136.015 253.569 135.949 253.936 135.817ZM256.783 128.095C256.783 127.391 256.695 126.87 256.519 126.533L257.773 126.313C258.022 126.371 258.176 126.518 258.235 126.753C258.308 126.987 258.345 127.229 258.345 127.479C258.345 127.655 258.315 128.667 258.257 130.515C258.198 132.348 258.169 133.367 258.169 133.573C258.169 133.778 258.176 134.013 258.191 134.277C258.22 134.526 258.293 134.79 258.411 135.069C258.616 135.641 259.115 135.927 259.907 135.927C260.493 135.927 260.992 135.721 261.403 135.311C261.828 134.885 262.136 134.328 262.327 133.639C262.693 132.392 262.877 131.028 262.877 129.547V126.577H264.351V132.583C264.351 133.888 264.446 134.79 264.637 135.289C264.827 135.773 265.253 136.015 265.913 136.015L265.957 137.005C265.722 137.063 265.429 137.093 265.077 137.093C264.343 137.093 263.83 136.88 263.537 136.455C263.258 136.015 263.119 135.509 263.119 134.937C263.119 134.775 263.126 134.607 263.141 134.431H263.009C262.774 135.325 262.341 136.007 261.711 136.477C261.095 136.946 260.281 137.181 259.269 137.181C258.271 137.181 257.575 136.873 257.179 136.257C256.783 135.641 256.585 134.797 256.585 133.727C256.585 133.595 256.614 132.649 256.673 130.889C256.746 129.129 256.783 128.197 256.783 128.095ZM269.657 126.379C269.95 126.496 270.097 126.877 270.097 127.523C270.097 128.153 270.046 128.74 269.943 129.283H270.075C270.398 128.241 270.772 127.486 271.197 127.017C271.622 126.547 272.29 126.313 273.199 126.313L273.881 126.401L273.683 127.919C273.492 127.875 273.258 127.853 272.979 127.853C272.407 127.853 271.916 128.043 271.505 128.425C271.109 128.791 270.816 129.29 270.625 129.921C270.258 131.05 270.075 132.319 270.075 133.727V136.917H268.557V129.811C268.557 128.329 268.476 127.237 268.315 126.533L269.657 126.379ZM278.089 127.017C278.089 127.794 278.03 128.447 277.913 128.975H278.045C278.25 128.153 278.646 127.508 279.233 127.039C279.834 126.555 280.56 126.313 281.411 126.313C282.569 126.313 283.369 126.606 283.809 127.193C284.249 127.765 284.469 128.63 284.469 129.789C284.469 129.833 284.454 130.581 284.425 132.033C284.41 133.485 284.403 134.409 284.403 134.805C284.403 135.201 284.447 135.494 284.535 135.685C284.637 135.875 284.953 135.971 285.481 135.971L285.525 136.961C285.319 137.049 285.019 137.093 284.623 137.093C283.919 137.093 283.435 136.931 283.171 136.609C282.921 136.286 282.797 135.773 282.797 135.069C282.797 135.039 282.811 134.247 282.841 132.693C282.87 131.138 282.885 130.331 282.885 130.273C282.885 129.422 282.775 128.762 282.555 128.293C282.335 127.809 281.895 127.567 281.235 127.567C280.589 127.567 280.047 127.772 279.607 128.183C279.181 128.593 278.859 129.129 278.639 129.789C278.243 131.065 278.045 132.421 278.045 133.859V136.917H276.527V126.577L278.089 126.379V127.017ZM300.592 130.471H298.722V129.019H302.242V136.125C301.274 136.829 299.954 137.181 298.282 137.181C296.17 137.181 294.689 136.433 293.838 134.937C293.075 133.587 292.694 131.769 292.694 129.481C292.694 127.193 293.244 125.315 294.344 123.849C295.459 122.382 297.035 121.649 299.074 121.649C300.071 121.649 301.017 121.795 301.912 122.089L301.582 123.321C300.775 123.174 300.005 123.101 299.272 123.101C296.06 123.101 294.454 125.227 294.454 129.481C294.454 132.531 295.143 134.453 296.522 135.245C297.079 135.567 297.739 135.729 298.502 135.729C299.279 135.729 299.976 135.619 300.592 135.399V130.471ZM306.154 128.095C306.154 127.391 306.066 126.87 305.89 126.533L307.144 126.313C307.393 126.371 307.547 126.518 307.606 126.753C307.679 126.987 307.716 127.229 307.716 127.479C307.716 127.655 307.686 128.667 307.628 130.515C307.569 132.348 307.54 133.367 307.54 133.573C307.54 133.778 307.547 134.013 307.562 134.277C307.591 134.526 307.664 134.79 307.782 135.069C307.987 135.641 308.486 135.927 309.278 135.927C309.864 135.927 310.363 135.721 310.774 135.311C311.199 134.885 311.507 134.328 311.698 133.639C312.064 132.392 312.248 131.028 312.248 129.547V126.577H313.722V132.583C313.722 133.888 313.817 134.79 314.008 135.289C314.198 135.773 314.624 136.015 315.284 136.015L315.328 137.005C315.093 137.063 314.8 137.093 314.448 137.093C313.714 137.093 313.201 136.88 312.908 136.455C312.629 136.015 312.49 135.509 312.49 134.937C312.49 134.775 312.497 134.607 312.512 134.431H312.38C312.145 135.325 311.712 136.007 311.082 136.477C310.466 136.946 309.652 137.181 308.64 137.181C307.642 137.181 306.946 136.873 306.55 136.257C306.154 135.641 305.956 134.797 305.956 133.727C305.956 133.595 305.985 132.649 306.044 130.889C306.117 129.129 306.154 128.197 306.154 128.095ZM323.934 129.415V127.809C323.509 127.589 322.871 127.479 322.02 127.479C319.849 127.479 318.764 129.114 318.764 132.385C318.764 134.775 319.49 135.971 320.942 135.971C321.558 135.971 322.071 135.765 322.482 135.355C322.907 134.929 323.223 134.357 323.428 133.639C323.765 132.392 323.934 130.984 323.934 129.415ZM320.788 137.181C319.512 137.181 318.581 136.741 317.994 135.861C317.407 134.981 317.114 133.734 317.114 132.121C317.114 130.493 317.525 129.121 318.346 128.007C319.182 126.877 320.407 126.313 322.02 126.313C322.592 126.313 323.157 126.371 323.714 126.489C324.286 126.606 324.851 126.775 325.408 126.995V132.583C325.408 134.079 325.54 135.025 325.804 135.421C326.053 135.817 326.471 136.015 327.058 136.015L327.102 137.005C326.867 137.063 326.574 137.093 326.222 137.093C325.445 137.093 324.887 136.821 324.55 136.279C324.301 135.883 324.176 135.413 324.176 134.871C324.176 134.695 324.191 134.504 324.22 134.299H324.088C323.839 135.179 323.435 135.883 322.878 136.411C322.335 136.924 321.639 137.181 320.788 137.181ZM330.716 126.379C331.009 126.496 331.156 126.877 331.156 127.523C331.156 128.153 331.104 128.74 331.002 129.283H331.134C331.456 128.241 331.83 127.486 332.256 127.017C332.681 126.547 333.348 126.313 334.258 126.313L334.94 126.401L334.742 127.919C334.551 127.875 334.316 127.853 334.038 127.853C333.466 127.853 332.974 128.043 332.564 128.425C332.168 128.791 331.874 129.29 331.684 129.921C331.317 131.05 331.134 132.319 331.134 133.727V136.917H329.616V129.811C329.616 128.329 329.535 127.237 329.374 126.533L330.716 126.379ZM343.635 129.415V127.809C343.21 127.589 342.572 127.479 341.721 127.479C339.551 127.479 338.465 129.114 338.465 132.385C338.465 134.775 339.191 135.971 340.643 135.971C341.259 135.971 341.773 135.765 342.183 135.355C342.609 134.929 342.924 134.357 343.129 133.639C343.467 132.392 343.635 130.984 343.635 129.415ZM340.489 137.181C339.213 137.181 338.282 136.741 337.695 135.861C337.109 134.981 336.815 133.734 336.815 132.121C336.815 130.493 337.226 129.121 338.047 128.007C338.883 126.877 340.108 126.313 341.721 126.313C342.293 126.313 342.858 126.371 343.415 126.489C343.987 126.606 344.552 126.775 345.109 126.995V132.583C345.109 134.079 345.241 135.025 345.505 135.421C345.755 135.817 346.173 136.015 346.759 136.015L346.803 137.005C346.569 137.063 346.275 137.093 345.923 137.093C345.146 137.093 344.589 136.821 344.251 136.279C344.002 135.883 343.877 135.413 343.877 134.871C343.877 134.695 343.892 134.504 343.921 134.299H343.789C343.54 135.179 343.137 135.883 342.579 136.411C342.037 136.924 341.34 137.181 340.489 137.181ZM350.835 127.017C350.835 127.794 350.776 128.447 350.659 128.975H350.791C350.996 128.153 351.392 127.508 351.979 127.039C352.58 126.555 353.306 126.313 354.157 126.313C355.315 126.313 356.115 126.606 356.555 127.193C356.995 127.765 357.215 128.63 357.215 129.789C357.215 129.833 357.2 130.581 357.171 132.033C357.156 133.485 357.149 134.409 357.149 134.805C357.149 135.201 357.193 135.494 357.281 135.685C357.383 135.875 357.699 135.971 358.227 135.971L358.271 136.961C358.065 137.049 357.765 137.093 357.369 137.093C356.665 137.093 356.181 136.931 355.917 136.609C355.667 136.286 355.543 135.773 355.543 135.069C355.543 135.039 355.557 134.247 355.587 132.693C355.616 131.138 355.631 130.331 355.631 130.273C355.631 129.422 355.521 128.762 355.301 128.293C355.081 127.809 354.641 127.567 353.981 127.567C353.335 127.567 352.793 127.772 352.353 128.183C351.927 128.593 351.605 129.129 351.385 129.789C350.989 131.065 350.791 132.421 350.791 133.859V136.917H349.273V126.577L350.835 126.379V127.017ZM366.299 135.817L366.519 136.785C365.976 137.049 365.324 137.181 364.561 137.181C363.476 137.181 362.757 136.887 362.405 136.301C362.053 135.714 361.877 134.783 361.877 133.507V127.743H360.117V126.797L361.877 126.577V124.289L363.461 124.025V126.577H366.299V127.743H363.461V133.023C363.461 134.387 363.578 135.215 363.813 135.509C364.106 135.846 364.502 136.015 365.001 136.015C365.5 136.015 365.932 135.949 366.299 135.817ZM374.426 128.843C374.426 128.417 374.294 128.095 374.03 127.875C373.766 127.655 373.414 127.545 372.974 127.545C372.094 127.545 371.404 127.911 370.906 128.645C370.407 129.363 370.121 130.236 370.048 131.263C372.966 131.263 374.426 130.456 374.426 128.843ZM372.534 137.181C369.776 137.181 368.398 135.421 368.398 131.901C368.398 130.287 368.801 128.953 369.608 127.897C370.429 126.841 371.58 126.313 373.062 126.313C373.971 126.313 374.69 126.533 375.218 126.973C375.76 127.398 376.032 127.992 376.032 128.755C376.032 129.503 375.848 130.119 375.482 130.603C375.13 131.072 374.646 131.431 374.03 131.681C372.871 132.15 371.529 132.385 370.004 132.385C370.004 134.717 370.935 135.883 372.798 135.883C373.736 135.883 374.624 135.626 375.46 135.113L375.702 135.971C375.335 136.337 374.851 136.631 374.25 136.851C373.663 137.071 373.091 137.181 372.534 137.181ZM383.943 128.843C383.943 128.417 383.811 128.095 383.547 127.875C383.283 127.655 382.931 127.545 382.491 127.545C381.611 127.545 380.922 127.911 380.423 128.645C379.925 129.363 379.639 130.236 379.565 131.263C382.484 131.263 383.943 130.456 383.943 128.843ZM382.051 137.181C379.294 137.181 377.915 135.421 377.915 131.901C377.915 130.287 378.319 128.953 379.125 127.897C379.947 126.841 381.098 126.313 382.579 126.313C383.489 126.313 384.207 126.533 384.735 126.973C385.278 127.398 385.549 127.992 385.549 128.755C385.549 129.503 385.366 130.119 384.999 130.603C384.647 131.072 384.163 131.431 383.547 131.681C382.389 132.15 381.047 132.385 379.521 132.385C379.521 134.717 380.453 135.883 382.315 135.883C383.254 135.883 384.141 135.626 384.977 135.113L385.219 135.971C384.853 136.337 384.369 136.631 383.767 136.851C383.181 137.071 382.609 137.181 382.051 137.181Z" fill="black"/>
<path d="M3.19 136.917V135.553H5.896L5.962 124.179L2.926 126.137L2.2 125.147L6.028 122.155L7.568 122.419V135.553H10.186V136.917H3.19ZM22.1057 134.585C21.7244 135.377 21.189 136.007 20.4997 136.477C19.825 136.946 19.0184 137.181 18.0797 137.181C17.141 137.181 16.3344 136.99 15.6597 136.609C14.9997 136.227 14.4937 135.685 14.1417 134.981C13.511 133.705 13.1957 131.974 13.1957 129.789C13.1957 127.677 13.5477 125.917 14.2517 124.509C14.633 123.761 15.1684 123.181 15.8577 122.771C16.5617 122.36 17.383 122.155 18.3217 122.155C19.275 122.155 20.0744 122.338 20.7197 122.705C21.3797 123.057 21.8857 123.57 22.2377 124.245C22.8977 125.506 23.2277 127.163 23.2277 129.217C23.2277 131.27 22.8537 133.059 22.1057 134.585ZM16.4297 135.311C16.8844 135.648 17.4417 135.817 18.1017 135.817C18.7617 135.817 19.3264 135.611 19.7957 135.201C20.2797 134.775 20.639 134.218 20.8737 133.529C21.3137 132.238 21.5337 130.801 21.5337 129.217C21.5337 127.647 21.3577 126.357 21.0057 125.345C20.5804 124.127 19.693 123.519 18.3437 123.519C17.669 123.519 17.0897 123.709 16.6057 124.091C16.1217 124.457 15.7624 124.963 15.5277 125.609C15.1024 126.782 14.8897 128.175 14.8897 129.789C14.8897 132.707 15.403 134.548 16.4297 135.311ZM34.2014 134.585C33.8201 135.377 33.2847 136.007 32.5954 136.477C31.9207 136.946 31.1141 137.181 30.1754 137.181C29.2367 137.181 28.4301 136.99 27.7554 136.609C27.0954 136.227 26.5894 135.685 26.2374 134.981C25.6067 133.705 25.2914 131.974 25.2914 129.789C25.2914 127.677 25.6434 125.917 26.3474 124.509C26.7287 123.761 27.2641 123.181 27.9534 122.771C28.6574 122.36 29.4787 122.155 30.4174 122.155C31.3707 122.155 32.1701 122.338 32.8154 122.705C33.4754 123.057 33.9814 123.57 34.3334 124.245C34.9934 125.506 35.3234 127.163 35.3234 129.217C35.3234 131.27 34.9494 133.059 34.2014 134.585ZM28.5254 135.311C28.9801 135.648 29.5374 135.817 30.1974 135.817C30.8574 135.817 31.4221 135.611 31.8914 135.201C32.3754 134.775 32.7347 134.218 32.9694 133.529C33.4094 132.238 33.6294 130.801 33.6294 129.217C33.6294 127.647 33.4534 126.357 33.1014 125.345C32.6761 124.127 31.7887 123.519 30.4394 123.519C29.7647 123.519 29.1854 123.709 28.7014 124.091C28.2174 124.457 27.8581 124.963 27.6234 125.609C27.1981 126.782 26.9854 128.175 26.9854 129.789C26.9854 132.707 27.4987 134.548 28.5254 135.311ZM40.8851 129.041C42.1024 129.041 42.7111 128.007 42.7111 125.939C42.7111 125.073 42.5938 124.399 42.3591 123.915C42.1391 123.431 41.6918 123.189 41.0171 123.189C39.8878 123.189 39.3231 124.201 39.3231 126.225C39.3231 126.797 39.3451 127.266 39.3891 127.633C39.4478 127.985 39.5944 128.307 39.8291 128.601C40.0784 128.894 40.4304 129.041 40.8851 129.041ZM43.9871 125.939C43.9871 127.083 43.7158 128.051 43.1731 128.843C42.6451 129.635 41.8604 130.031 40.8191 130.031C39.7924 130.031 39.0738 129.708 38.6631 129.063C38.2524 128.417 38.0471 127.486 38.0471 126.269C38.0471 125.037 38.2818 124.054 38.7511 123.321C39.2351 122.573 39.9904 122.199 41.0171 122.199C42.0438 122.199 42.7918 122.536 43.2611 123.211C43.7451 123.885 43.9871 124.795 43.9871 125.939ZM50.9171 122.155L41.3691 137.643C41.0464 137.54 40.7971 137.386 40.6211 137.181L50.1691 121.693C50.4918 121.795 50.7411 121.949 50.9171 122.155ZM50.4991 135.773C51.7164 135.773 52.3251 134.739 52.3251 132.671C52.3251 131.805 52.2078 131.131 51.9731 130.647C51.7531 130.163 51.3058 129.921 50.6311 129.921C49.5018 129.921 48.9371 130.933 48.9371 132.957C48.9371 133.529 48.9591 133.998 49.0031 134.365C49.0618 134.717 49.2084 135.039 49.4431 135.333C49.6924 135.626 50.0444 135.773 50.4991 135.773ZM53.6011 132.671C53.6011 133.815 53.3298 134.783 52.7871 135.575C52.2591 136.367 51.4744 136.763 50.4331 136.763C49.4064 136.763 48.6878 136.44 48.2771 135.795C47.8664 135.149 47.6611 134.218 47.6611 133.001C47.6611 131.769 47.8958 130.786 48.3651 130.053C48.8491 129.305 49.6044 128.931 50.6311 128.931C51.6578 128.931 52.4058 129.268 52.8751 129.943C53.3591 130.617 53.6011 131.527 53.6011 132.671ZM67.3984 135.795C68.2197 135.795 68.9237 135.604 69.5104 135.223C70.1117 134.827 70.5737 134.291 70.8964 133.617C71.527 132.326 71.8424 130.749 71.8424 128.887C71.8424 126.643 71.4244 125.037 70.5884 124.069C69.943 123.306 68.9897 122.925 67.7284 122.925C66.9364 122.925 66.2397 123.108 65.6384 123.475C65.0517 123.841 64.5897 124.34 64.2524 124.971C63.607 126.217 63.2844 127.713 63.2844 129.459C63.2844 133.683 64.6557 135.795 67.3984 135.795ZM67.2004 137.181C66.2324 137.181 65.3597 136.997 64.5824 136.631C63.805 136.264 63.1964 135.729 62.7564 135.025C61.935 133.69 61.5244 131.835 61.5244 129.459C61.5244 126.305 62.4264 124.017 64.2304 122.595C65.1837 121.847 66.3497 121.473 67.7284 121.473C69.8257 121.473 71.3217 122.118 72.2164 123.409C73.111 124.699 73.5584 126.533 73.5584 128.909C73.5584 131.769 72.8544 133.969 71.4464 135.509C70.4344 136.623 69.019 137.181 67.2004 137.181ZM78.2119 126.379C78.5052 126.496 78.6519 126.877 78.6519 127.523C78.6519 128.153 78.6006 128.74 78.4979 129.283H78.6299C78.9526 128.241 79.3266 127.486 79.7519 127.017C80.1772 126.547 80.8446 126.313 81.7539 126.313L82.4359 126.401L82.2379 127.919C82.0472 127.875 81.8126 127.853 81.5339 127.853C80.9619 127.853 80.4706 128.043 80.0599 128.425C79.6639 128.791 79.3706 129.29 79.1799 129.921C78.8132 131.05 78.6299 132.319 78.6299 133.727V136.917H77.1119V129.811C77.1119 128.329 77.0312 127.237 76.8699 126.533L78.2119 126.379ZM86.9296 137.093C86.2549 137.093 85.7856 136.931 85.5216 136.609C85.2576 136.286 85.1256 135.758 85.1256 135.025V126.577H86.7096V134.123C86.7096 134.9 86.7682 135.406 86.8856 135.641C87.0029 135.861 87.3402 135.971 87.8976 135.971L87.9416 136.939C87.6042 137.041 87.2669 137.093 86.9296 137.093ZM84.9716 123.123C84.9716 122.433 85.3089 122.089 85.9836 122.089C86.5996 122.089 86.9076 122.426 86.9076 123.101C86.9076 123.761 86.5849 124.091 85.9396 124.091C85.2942 124.091 84.9716 123.768 84.9716 123.123ZM97.0863 136.257C97.0863 135.567 97.1377 134.915 97.2403 134.299H97.1083C96.551 136.22 95.451 137.181 93.8083 137.181C92.5617 137.181 91.6377 136.733 91.0363 135.839C90.435 134.929 90.1343 133.675 90.1343 132.077C90.1343 130.478 90.545 129.121 91.3663 128.007C92.2023 126.877 93.427 126.313 95.0403 126.313C95.6417 126.313 96.2357 126.379 96.8223 126.511C97.4237 126.628 98.0103 126.811 98.5823 127.061L98.6043 136.257C98.6043 138.119 98.2597 139.571 97.5703 140.613C96.8957 141.669 95.7517 142.197 94.1383 142.197C93.5517 142.197 92.9503 142.087 92.3343 141.867C91.7183 141.661 91.227 141.368 90.8603 140.987L91.1023 140.129C91.953 140.686 92.943 140.965 94.0723 140.965C95.2163 140.965 96.001 140.561 96.4263 139.755C96.8663 138.963 97.0863 137.797 97.0863 136.257ZM93.9623 135.971C96.0597 135.971 97.1083 133.272 97.1083 127.875C96.639 127.611 95.9497 127.479 95.0403 127.479C92.8697 127.479 91.7843 129.114 91.7843 132.385C91.7843 133.397 91.953 134.247 92.2903 134.937C92.6277 135.626 93.185 135.971 93.9623 135.971ZM104.418 137.093C103.743 137.093 103.274 136.931 103.01 136.609C102.746 136.286 102.614 135.758 102.614 135.025V126.577H104.198V134.123C104.198 134.9 104.257 135.406 104.374 135.641C104.491 135.861 104.829 135.971 105.386 135.971L105.43 136.939C105.093 137.041 104.755 137.093 104.418 137.093ZM102.46 123.123C102.46 122.433 102.797 122.089 103.472 122.089C104.088 122.089 104.396 122.426 104.396 123.101C104.396 123.761 104.073 124.091 103.428 124.091C102.783 124.091 102.46 123.768 102.46 123.123ZM109.933 127.017C109.933 127.794 109.874 128.447 109.757 128.975H109.889C110.094 128.153 110.49 127.508 111.077 127.039C111.678 126.555 112.404 126.313 113.255 126.313C114.413 126.313 115.213 126.606 115.653 127.193C116.093 127.765 116.313 128.63 116.313 129.789C116.313 129.833 116.298 130.581 116.269 132.033C116.254 133.485 116.247 134.409 116.247 134.805C116.247 135.201 116.291 135.494 116.379 135.685C116.481 135.875 116.797 135.971 117.325 135.971L117.369 136.961C117.163 137.049 116.863 137.093 116.467 137.093C115.763 137.093 115.279 136.931 115.015 136.609C114.765 136.286 114.641 135.773 114.641 135.069C114.641 135.039 114.655 134.247 114.685 132.693C114.714 131.138 114.729 130.331 114.729 130.273C114.729 129.422 114.619 128.762 114.399 128.293C114.179 127.809 113.739 127.567 113.079 127.567C112.433 127.567 111.891 127.772 111.451 128.183C111.025 128.593 110.703 129.129 110.483 129.789C110.087 131.065 109.889 132.421 109.889 133.859V136.917H108.371V126.577L109.933 126.379V127.017ZM126.409 129.415V127.809C125.984 127.589 125.346 127.479 124.495 127.479C122.324 127.479 121.239 129.114 121.239 132.385C121.239 134.775 121.965 135.971 123.417 135.971C124.033 135.971 124.546 135.765 124.957 135.355C125.382 134.929 125.698 134.357 125.903 133.639C126.24 132.392 126.409 130.984 126.409 129.415ZM123.263 137.181C121.987 137.181 121.056 136.741 120.469 135.861C119.882 134.981 119.589 133.734 119.589 132.121C119.589 130.493 120 129.121 120.821 128.007C121.657 126.877 122.882 126.313 124.495 126.313C125.067 126.313 125.632 126.371 126.189 126.489C126.761 126.606 127.326 126.775 127.883 126.995V132.583C127.883 134.079 128.015 135.025 128.279 135.421C128.528 135.817 128.946 136.015 129.533 136.015L129.577 137.005C129.342 137.063 129.049 137.093 128.697 137.093C127.92 137.093 127.362 136.821 127.025 136.279C126.776 135.883 126.651 135.413 126.651 134.871C126.651 134.695 126.666 134.504 126.695 134.299H126.563C126.314 135.179 125.91 135.883 125.353 136.411C124.81 136.924 124.114 137.181 123.263 137.181ZM132.09 135.025V120.791L133.674 120.527V134.123C133.674 134.9 133.733 135.406 133.85 135.641C133.968 135.861 134.305 135.971 134.862 135.971L134.906 136.939C134.672 137.041 134.276 137.093 133.718 137.093C133.161 137.093 132.75 136.931 132.486 136.609C132.222 136.286 132.09 135.758 132.09 135.025Z" fill="black"/>
<defs>
<filter id="filter0_d" x="485" y="31" width="76.6775" height="88.2269" filterUnits="userSpaceOnUse" color-interpolation-filters="sRGB">
<feFlood flood-opacity="0" result="BackgroundImageFix"/>
<feColorMatrix in="SourceAlpha" type="matrix" values="0 0 0 0 0 0 0 0 0 0 0 0 0 0 0 0 0 0 127 0"/>
<feOffset dy="4"/>
<feGaussianBlur stdDeviation="2"/>
<feColorMatrix type="matrix" values="0 0 0 0 0 0 0 0 0 0 0 0 0 0 0 0 0 0 0.25 0"/>
<feBlend mode="normal" in2="BackgroundImageFix" result="effect1_dropShadow"/>
<feBlend mode="normal" in="SourceGraphic" in2="effect1_dropShadow" result="shape"/>
</filter>
<filter id="filter1_d" x="267" y="0" width="73.3169" height="120.986" filterUnits="userSpaceOnUse" color-interpolation-filters="sRGB">
<feFlood flood-opacity="0" result="BackgroundImageFix"/>
<feColorMatrix in="SourceAlpha" type="matrix" values="0 0 0 0 0 0 0 0 0 0 0 0 0 0 0 0 0 0 127 0"/>
<feOffset dy="4"/>
<feGaussianBlur stdDeviation="2"/>
<feColorMatrix type="matrix" values="0 0 0 0 0 0 0 0 0 0 0 0 0 0 0 0 0 0 0.25 0"/>
<feBlend mode="normal" in2="BackgroundImageFix" result="effect1_dropShadow"/>
<feBlend mode="normal" in="SourceGraphic" in2="effect1_dropShadow" result="shape"/>
</filter>
<filter id="filter2_d" x="681" y="39" width="86.3304" height="67.4727" filterUnits="userSpaceOnUse" color-interpolation-filters="sRGB">
<feFlood flood-opacity="0" result="BackgroundImageFix"/>
<feColorMatrix in="SourceAlpha" type="matrix" values="0 0 0 0 0 0 0 0 0 0 0 0 0 0 0 0 0 0 127 0"/>
<feOffset dy="4"/>
<feGaussianBlur stdDeviation="2"/>
<feColorMatrix type="matrix" values="0 0 0 0 0 0 0 0 0 0 0 0 0 0 0 0 0 0 0.25 0"/>
<feBlend mode="normal" in2="BackgroundImageFix" result="effect1_dropShadow"/>
<feBlend mode="normal" in="SourceGraphic" in2="effect1_dropShadow" result="shape"/>
</filter>
</defs>
</svg>
