<svg width="150" height="62" viewBox="0 0 150 62" fill="none" xmlns="http://www.w3.org/2000/svg">
<rect width="150" height="61.31" fill="#EAE7DC"/>
<rect x="16.1073" y="22.9396" width="32.2148" height="4.15661" rx="2.07831" fill="black"/>
<rect x="16.1073" y="30.2137" width="20.1342" height="4.15661" rx="2.07831" fill="black"/>
<path d="M66.4026 22.9031C67.616 22.9031 68.596 23.2164 69.3426 23.8431C70.0893 24.4564 70.4626 25.3364 70.4626 26.4831C70.4626 29.0964 68.7626 30.4231 65.3626 30.4631L64.1626 30.4831V36.7831H62.6026L62.6626 23.1431C63.4893 22.9831 64.736 22.9031 66.4026 22.9031ZM66.1226 24.2031C65.1093 24.2031 64.456 24.2297 64.1626 24.2831V29.2431L65.4026 29.2231C67.7093 29.1831 68.8626 28.3031 68.8626 26.5831C68.8626 24.9964 67.9493 24.2031 66.1226 24.2031ZM73.7114 27.2031C73.9781 27.3097 74.1114 27.6564 74.1114 28.2431C74.1114 28.8164 74.0647 29.3497 73.9714 29.8431H74.0914C74.3847 28.8964 74.7247 28.2097 75.1114 27.7831C75.4981 27.3564 76.1047 27.1431 76.9314 27.1431L77.5514 27.2231L77.3714 28.6031C77.1981 28.5631 76.9847 28.5431 76.7314 28.5431C76.2114 28.5431 75.7647 28.7164 75.3914 29.0631C75.0314 29.3964 74.7647 29.8497 74.5914 30.4231C74.2581 31.4497 74.0914 32.6031 74.0914 33.8831V36.7831H72.7114V30.3231C72.7114 28.9764 72.6381 27.9831 72.4914 27.3431L73.7114 27.2031ZM83.1966 35.9631C83.8632 35.9631 84.4099 35.7564 84.8366 35.3431C85.2632 34.9297 85.5499 34.4297 85.6966 33.8431C85.8566 33.2564 85.9366 32.5831 85.9366 31.8231C85.9366 29.4364 85.0899 28.2431 83.3966 28.2431C82.7699 28.2431 82.2499 28.4431 81.8366 28.8431C81.0899 29.5497 80.7166 30.6764 80.7166 32.2231C80.7166 34.7164 81.5432 35.9631 83.1966 35.9631ZM87.4366 31.8431C87.4366 33.3097 87.0632 34.5431 86.3166 35.5431C85.5832 36.5297 84.5166 37.0231 83.1166 37.0231C81.7299 37.0231 80.7432 36.6231 80.1566 35.8231C79.5699 35.0097 79.2766 33.8231 79.2766 32.2631C79.2766 30.7031 79.6166 29.4631 80.2966 28.5431C80.9766 27.6097 82.0032 27.1431 83.3766 27.1431C84.7499 27.1431 85.7699 27.5631 86.4366 28.4031C87.1032 29.2297 87.4366 30.3764 87.4366 31.8431ZM92.9872 37.0231C91.8272 37.0231 90.9805 36.6231 90.4472 35.8231C89.9138 35.0231 89.6472 33.8897 89.6472 32.4231C89.6472 30.9431 90.0205 29.6964 90.7672 28.6831C91.5272 27.6564 92.6405 27.1431 94.1072 27.1431C94.6805 27.1431 95.2605 27.2631 95.8472 27.5031V22.1231L97.1872 21.8831V32.8431C97.1872 34.0297 97.2738 34.8497 97.4472 35.3031C97.6205 35.7431 98.0072 35.9631 98.6072 35.9631L98.6472 36.8631C98.4738 36.9164 98.2072 36.9431 97.8472 36.9431C97.1805 36.9431 96.7138 36.7431 96.4472 36.3431C96.1938 35.9431 96.0672 35.4831 96.0672 34.9631C96.0672 34.8297 96.0738 34.6831 96.0872 34.5231H95.9672C95.4338 36.1897 94.4405 37.0231 92.9872 37.0231ZM95.8472 30.5631V28.5031C95.4605 28.3031 94.8805 28.2031 94.1072 28.2031C92.1338 28.2031 91.1472 29.6897 91.1472 32.6631C91.1472 34.8364 91.8072 35.9231 93.1272 35.9231C93.6472 35.9231 94.0938 35.7564 94.4672 35.4231C94.8538 35.0764 95.1405 34.6231 95.3272 34.0631C95.6738 33.0097 95.8472 31.8431 95.8472 30.5631ZM100.972 28.7631C100.972 28.1231 100.892 27.6497 100.732 27.3431L101.872 27.1431C102.099 27.1964 102.239 27.3297 102.292 27.5431C102.359 27.7564 102.392 27.9764 102.392 28.2031C102.392 28.3631 102.366 29.2831 102.312 30.9631C102.259 32.6297 102.232 33.5564 102.232 33.7431C102.232 33.9297 102.239 34.1431 102.252 34.3831C102.279 34.6097 102.346 34.8497 102.452 35.1031C102.639 35.6231 103.092 35.8831 103.812 35.8831C104.346 35.8831 104.799 35.6964 105.172 35.3231C105.559 34.9364 105.839 34.4297 106.012 33.8031C106.346 32.6697 106.512 31.4297 106.512 30.0831V27.3831H107.852V32.8431C107.852 34.0297 107.939 34.8497 108.112 35.3031C108.286 35.7431 108.672 35.9631 109.272 35.9631L109.312 36.8631C109.099 36.9164 108.832 36.9431 108.512 36.9431C107.846 36.9431 107.379 36.7497 107.112 36.3631C106.859 35.9631 106.732 35.5031 106.732 34.9831C106.732 34.8364 106.739 34.6831 106.752 34.5231H106.632C106.419 35.3364 106.026 35.9564 105.452 36.3831C104.892 36.8097 104.152 37.0231 103.232 37.0231C102.326 37.0231 101.692 36.7431 101.332 36.1831C100.972 35.6231 100.792 34.8564 100.792 33.8831C100.792 33.7631 100.819 32.9031 100.872 31.3031C100.939 29.7031 100.972 28.8564 100.972 28.7631ZM114.656 37.0231C112.163 37.0231 110.916 35.4897 110.916 32.4231C110.916 30.9031 111.283 29.6431 112.016 28.6431C112.763 27.6431 113.823 27.1431 115.196 27.1431C115.983 27.1431 116.683 27.2764 117.296 27.5431L117.076 28.5831C116.53 28.3964 115.956 28.3031 115.356 28.3031C113.396 28.3031 112.416 29.6897 112.416 32.4631C112.416 34.7164 113.243 35.8431 114.896 35.8431C115.736 35.8431 116.523 35.6097 117.256 35.1431L117.476 35.9231C117.143 36.2564 116.71 36.5231 116.176 36.7231C115.656 36.9231 115.15 37.0231 114.656 37.0231ZM124.458 35.7831L124.658 36.6631C124.165 36.9031 123.572 37.0231 122.878 37.0231C121.892 37.0231 121.238 36.7564 120.918 36.2231C120.598 35.6897 120.438 34.8431 120.438 33.6831V28.4431H118.838V27.5831L120.438 27.3831V25.3031L121.878 25.0631V27.3831H124.458V28.4431H121.878V33.2431C121.878 34.4831 121.985 35.2364 122.198 35.5031C122.465 35.8097 122.825 35.9631 123.278 35.9631C123.732 35.9631 124.125 35.9031 124.458 35.7831ZM128.766 35.9231C129.353 35.9231 129.846 35.7897 130.246 35.5231C130.646 35.2431 130.846 34.8497 130.846 34.3431C130.846 33.8097 130.593 33.3897 130.086 33.0831C129.833 32.9364 129.526 32.7897 129.166 32.6431C128.806 32.4831 128.586 32.3831 128.506 32.3431C127.84 32.0497 127.32 31.7031 126.946 31.3031C126.586 30.9031 126.406 30.3364 126.406 29.6031C126.406 28.8564 126.706 28.2631 127.306 27.8231C127.906 27.3697 128.613 27.1431 129.426 27.1431C130.24 27.1431 130.973 27.3031 131.626 27.6231L131.406 28.5231C130.74 28.3364 130.146 28.2431 129.626 28.2431C129.12 28.2431 128.68 28.3631 128.306 28.6031C127.933 28.8297 127.746 29.1497 127.746 29.5631C127.746 29.9764 127.873 30.3031 128.126 30.5431C128.38 30.7697 128.64 30.9431 128.906 31.0631C129.186 31.1831 129.48 31.3097 129.786 31.4431C130.106 31.5631 130.313 31.6497 130.406 31.7031C130.5 31.7564 130.673 31.8564 130.926 32.0031C131.18 32.1364 131.353 32.2631 131.446 32.3831C131.553 32.5031 131.673 32.6631 131.806 32.8631C132.06 33.1964 132.186 33.6697 132.186 34.2831C132.186 35.1631 131.86 35.8431 131.206 36.3231C130.553 36.7897 129.72 37.0231 128.706 37.0231C127.706 37.0231 126.82 36.6897 126.046 36.0231L126.266 35.2231C127.026 35.6897 127.86 35.9231 128.766 35.9231Z" fill="black"/>
</svg>
