<svg width="150" height="68" viewBox="0 0 150 68" fill="none" xmlns="http://www.w3.org/2000/svg">
<rect width="150" height="67.78" fill="#EAE7DC"/>
<rect x="16.1073" y="27.3605" width="32.2148" height="4.59525" rx="2.29763" fill="black"/>
<rect x="16.1073" y="35.4022" width="20.1342" height="4.59525" rx="2.29763" fill="black"/>
<path d="M66.4026 26.8852C67.6159 26.8852 68.5959 27.1986 69.3426 27.8252C70.0893 28.4386 70.4626 29.3186 70.4626 30.4652C70.4626 33.0786 68.7626 34.4052 65.3626 34.4452L64.1626 34.4652V40.7652H62.6026L62.6626 27.1252C63.4893 26.9652 64.7359 26.8852 66.4026 26.8852ZM66.1226 28.1852C65.1093 28.1852 64.4559 28.2119 64.1626 28.2652V33.2252L65.4026 33.2052C67.7093 33.1652 68.8626 32.2852 68.8626 30.5652C68.8626 28.9786 67.9493 28.1852 66.1226 28.1852ZM73.7113 31.1852C73.978 31.2919 74.1113 31.6386 74.1113 32.2252C74.1113 32.7986 74.0647 33.3319 73.9713 33.8252H74.0913C74.3847 32.8786 74.7247 32.1919 75.1113 31.7652C75.498 31.3386 76.1047 31.1252 76.9313 31.1252L77.5513 31.2052L77.3713 32.5852C77.198 32.5452 76.9847 32.5252 76.7313 32.5252C76.2113 32.5252 75.7647 32.6986 75.3913 33.0452C75.0313 33.3786 74.7647 33.8319 74.5913 34.4052C74.258 35.4319 74.0913 36.5852 74.0913 37.8652V40.7652H72.7113V34.3052C72.7113 32.9586 72.638 31.9652 72.4913 31.3252L73.7113 31.1852ZM83.1965 39.9452C83.8632 39.9452 84.4098 39.7386 84.8365 39.3252C85.2632 38.9119 85.5498 38.4119 85.6965 37.8252C85.8565 37.2386 85.9365 36.5652 85.9365 35.8052C85.9365 33.4186 85.0898 32.2252 83.3965 32.2252C82.7698 32.2252 82.2498 32.4252 81.8365 32.8252C81.0898 33.5319 80.7165 34.6586 80.7165 36.2052C80.7165 38.6986 81.5432 39.9452 83.1965 39.9452ZM87.4365 35.8252C87.4365 37.2919 87.0632 38.5252 86.3165 39.5252C85.5832 40.5119 84.5165 41.0052 83.1165 41.0052C81.7298 41.0052 80.7432 40.6052 80.1565 39.8052C79.5698 38.9919 79.2765 37.8052 79.2765 36.2452C79.2765 34.6852 79.6165 33.4452 80.2965 32.5252C80.9765 31.5919 82.0032 31.1252 83.3765 31.1252C84.7498 31.1252 85.7698 31.5452 86.4365 32.3852C87.1032 33.2119 87.4365 34.3586 87.4365 35.8252ZM92.9871 41.0052C91.8271 41.0052 90.9805 40.6052 90.4471 39.8052C89.9138 39.0052 89.6471 37.8719 89.6471 36.4052C89.6471 34.9252 90.0205 33.6786 90.7671 32.6652C91.5271 31.6386 92.6405 31.1252 94.1071 31.1252C94.6805 31.1252 95.2605 31.2452 95.8471 31.4852V26.1052L97.1871 25.8652V36.8252C97.1871 38.0119 97.2738 38.8319 97.4471 39.2852C97.6205 39.7252 98.0071 39.9452 98.6071 39.9452L98.6471 40.8452C98.4738 40.8986 98.2071 40.9252 97.8471 40.9252C97.1805 40.9252 96.7138 40.7252 96.4471 40.3252C96.1938 39.9252 96.0671 39.4652 96.0671 38.9452C96.0671 38.8119 96.0738 38.6652 96.0871 38.5052H95.9671C95.4338 40.1719 94.4405 41.0052 92.9871 41.0052ZM95.8471 34.5452V32.4852C95.4605 32.2852 94.8805 32.1852 94.1071 32.1852C92.1338 32.1852 91.1471 33.6719 91.1471 36.6452C91.1471 38.8186 91.8071 39.9052 93.1271 39.9052C93.6471 39.9052 94.0938 39.7386 94.4671 39.4052C94.8538 39.0586 95.1405 38.6052 95.3271 38.0452C95.6738 36.9919 95.8471 35.8252 95.8471 34.5452ZM100.972 32.7452C100.972 32.1052 100.892 31.6319 100.732 31.3252L101.872 31.1252C102.099 31.1786 102.239 31.3119 102.292 31.5252C102.359 31.7386 102.392 31.9586 102.392 32.1852C102.392 32.3452 102.365 33.2652 102.312 34.9452C102.259 36.6119 102.232 37.5386 102.232 37.7252C102.232 37.9119 102.239 38.1252 102.252 38.3652C102.279 38.5919 102.345 38.8319 102.452 39.0852C102.639 39.6052 103.092 39.8652 103.812 39.8652C104.345 39.8652 104.799 39.6786 105.172 39.3052C105.559 38.9186 105.839 38.4119 106.012 37.7852C106.345 36.6519 106.512 35.4119 106.512 34.0652V31.3652H107.852V36.8252C107.852 38.0119 107.939 38.8319 108.112 39.2852C108.285 39.7252 108.672 39.9452 109.272 39.9452L109.312 40.8452C109.099 40.8986 108.832 40.9252 108.512 40.9252C107.845 40.9252 107.379 40.7319 107.112 40.3452C106.859 39.9452 106.732 39.4852 106.732 38.9652C106.732 38.8186 106.739 38.6652 106.752 38.5052H106.632C106.419 39.3186 106.025 39.9386 105.452 40.3652C104.892 40.7919 104.152 41.0052 103.232 41.0052C102.325 41.0052 101.692 40.7252 101.332 40.1652C100.972 39.6052 100.792 38.8386 100.792 37.8652C100.792 37.7452 100.819 36.8852 100.872 35.2852C100.939 33.6852 100.972 32.8386 100.972 32.7452ZM114.656 41.0052C112.163 41.0052 110.916 39.4719 110.916 36.4052C110.916 34.8852 111.283 33.6252 112.016 32.6252C112.763 31.6252 113.823 31.1252 115.196 31.1252C115.983 31.1252 116.683 31.2586 117.296 31.5252L117.076 32.5652C116.53 32.3786 115.956 32.2852 115.356 32.2852C113.396 32.2852 112.416 33.6719 112.416 36.4452C112.416 38.6986 113.243 39.8252 114.896 39.8252C115.736 39.8252 116.523 39.5919 117.256 39.1252L117.476 39.9052C117.143 40.2386 116.71 40.5052 116.176 40.7052C115.656 40.9052 115.15 41.0052 114.656 41.0052ZM124.458 39.7652L124.658 40.6452C124.165 40.8852 123.572 41.0052 122.878 41.0052C121.892 41.0052 121.238 40.7386 120.918 40.2052C120.598 39.6719 120.438 38.8252 120.438 37.6652V32.4252H118.838V31.5652L120.438 31.3652V29.2852L121.878 29.0452V31.3652H124.458V32.4252H121.878V37.2252C121.878 38.4652 121.985 39.2186 122.198 39.4852C122.465 39.7919 122.825 39.9452 123.278 39.9452C123.732 39.9452 124.125 39.8852 124.458 39.7652ZM128.766 39.9052C129.353 39.9052 129.846 39.7719 130.246 39.5052C130.646 39.2252 130.846 38.8319 130.846 38.3252C130.846 37.7919 130.593 37.3719 130.086 37.0652C129.833 36.9186 129.526 36.7719 129.166 36.6252C128.806 36.4652 128.586 36.3652 128.506 36.3252C127.84 36.0319 127.32 35.6852 126.946 35.2852C126.586 34.8852 126.406 34.3186 126.406 33.5852C126.406 32.8386 126.706 32.2452 127.306 31.8052C127.906 31.3519 128.613 31.1252 129.426 31.1252C130.24 31.1252 130.973 31.2852 131.626 31.6052L131.406 32.5052C130.74 32.3186 130.146 32.2252 129.626 32.2252C129.12 32.2252 128.68 32.3452 128.306 32.5852C127.933 32.8119 127.746 33.1319 127.746 33.5452C127.746 33.9586 127.873 34.2852 128.126 34.5252C128.38 34.7519 128.64 34.9252 128.906 35.0452C129.186 35.1652 129.48 35.2919 129.786 35.4252C130.106 35.5452 130.313 35.6319 130.406 35.6852C130.5 35.7386 130.673 35.8386 130.926 35.9852C131.18 36.1186 131.353 36.2452 131.446 36.3652C131.553 36.4852 131.673 36.6452 131.806 36.8452C132.06 37.1786 132.186 37.6519 132.186 38.2652C132.186 39.1452 131.86 39.8252 131.206 40.3052C130.553 40.7719 129.72 41.0052 128.706 41.0052C127.706 41.0052 126.82 40.6719 126.046 40.0052L126.266 39.2052C127.026 39.6719 127.86 39.9052 128.766 39.9052Z" fill="black"/>
</svg>
