<svg width="150" height="62" viewBox="0 0 150 62" fill="none" xmlns="http://www.w3.org/2000/svg">
<rect width="150" height="61.31" fill="black"/>
<rect x="16.1073" y="23.1717" width="32.2148" height="3.86195" rx="1.93098" fill="white"/>
<rect x="16.1073" y="29.9301" width="20.1342" height="3.86195" rx="1.93098" fill="white"/>
<path d="M66.4026 23.4298C67.616 23.4298 68.596 23.7431 69.3426 24.3698C70.0893 24.9831 70.4626 25.8631 70.4626 27.0098C70.4626 29.6231 68.7626 30.9498 65.3626 30.9898L64.1626 31.0098V37.3098H62.6026L62.6626 23.6698C63.4893 23.5098 64.736 23.4298 66.4026 23.4298ZM66.1226 24.7298C65.1093 24.7298 64.456 24.7564 64.1626 24.8098V29.7698L65.4026 29.7498C67.7093 29.7098 68.8626 28.8298 68.8626 27.1098C68.8626 25.5231 67.9493 24.7298 66.1226 24.7298ZM73.7114 27.7298C73.9781 27.8364 74.1114 28.1831 74.1114 28.7698C74.1114 29.3431 74.0647 29.8764 73.9714 30.3698H74.0914C74.3847 29.4231 74.7247 28.7364 75.1114 28.3098C75.4981 27.8831 76.1047 27.6698 76.9314 27.6698L77.5514 27.7498L77.3714 29.1298C77.1981 29.0898 76.9847 29.0698 76.7314 29.0698C76.2114 29.0698 75.7647 29.2431 75.3914 29.5898C75.0314 29.9231 74.7647 30.3764 74.5914 30.9498C74.2581 31.9764 74.0914 33.1298 74.0914 34.4098V37.3098H72.7114V30.8498C72.7114 29.5031 72.6381 28.5098 72.4914 27.8698L73.7114 27.7298ZM83.1966 36.4898C83.8632 36.4898 84.4099 36.2831 84.8366 35.8698C85.2632 35.4564 85.5499 34.9564 85.6966 34.3698C85.8566 33.7831 85.9366 33.1098 85.9366 32.3498C85.9366 29.9631 85.0899 28.7698 83.3966 28.7698C82.7699 28.7698 82.2499 28.9698 81.8366 29.3698C81.0899 30.0764 80.7166 31.2031 80.7166 32.7498C80.7166 35.2431 81.5432 36.4898 83.1966 36.4898ZM87.4366 32.3698C87.4366 33.8364 87.0632 35.0698 86.3166 36.0698C85.5832 37.0564 84.5166 37.5498 83.1166 37.5498C81.7299 37.5498 80.7432 37.1498 80.1566 36.3498C79.5699 35.5364 79.2766 34.3498 79.2766 32.7898C79.2766 31.2298 79.6166 29.9898 80.2966 29.0698C80.9766 28.1364 82.0032 27.6698 83.3766 27.6698C84.7499 27.6698 85.7699 28.0898 86.4366 28.9298C87.1032 29.7564 87.4366 30.9031 87.4366 32.3698ZM92.9872 37.5498C91.8272 37.5498 90.9805 37.1498 90.4472 36.3498C89.9138 35.5498 89.6472 34.4164 89.6472 32.9498C89.6472 31.4698 90.0205 30.2231 90.7672 29.2098C91.5272 28.1831 92.6405 27.6698 94.1072 27.6698C94.6805 27.6698 95.2605 27.7898 95.8472 28.0298V22.6498L97.1872 22.4098V33.3698C97.1872 34.5564 97.2738 35.3764 97.4472 35.8298C97.6205 36.2698 98.0072 36.4898 98.6072 36.4898L98.6472 37.3898C98.4738 37.4431 98.2072 37.4698 97.8472 37.4698C97.1805 37.4698 96.7138 37.2698 96.4472 36.8698C96.1938 36.4698 96.0672 36.0098 96.0672 35.4898C96.0672 35.3564 96.0738 35.2098 96.0872 35.0498H95.9672C95.4338 36.7164 94.4405 37.5498 92.9872 37.5498ZM95.8472 31.0898V29.0298C95.4605 28.8298 94.8805 28.7298 94.1072 28.7298C92.1338 28.7298 91.1472 30.2164 91.1472 33.1898C91.1472 35.3631 91.8072 36.4498 93.1272 36.4498C93.6472 36.4498 94.0938 36.2831 94.4672 35.9498C94.8538 35.6031 95.1405 35.1498 95.3272 34.5898C95.6738 33.5364 95.8472 32.3698 95.8472 31.0898ZM100.972 29.2898C100.972 28.6498 100.892 28.1764 100.732 27.8698L101.872 27.6698C102.099 27.7231 102.239 27.8564 102.292 28.0698C102.359 28.2831 102.392 28.5031 102.392 28.7298C102.392 28.8898 102.366 29.8098 102.312 31.4898C102.259 33.1564 102.232 34.0831 102.232 34.2698C102.232 34.4564 102.239 34.6698 102.252 34.9098C102.279 35.1364 102.346 35.3764 102.452 35.6298C102.639 36.1498 103.092 36.4098 103.812 36.4098C104.346 36.4098 104.799 36.2231 105.172 35.8498C105.559 35.4631 105.839 34.9564 106.012 34.3298C106.346 33.1964 106.512 31.9564 106.512 30.6098V27.9098H107.852V33.3698C107.852 34.5564 107.939 35.3764 108.112 35.8298C108.286 36.2698 108.672 36.4898 109.272 36.4898L109.312 37.3898C109.099 37.4431 108.832 37.4698 108.512 37.4698C107.846 37.4698 107.379 37.2764 107.112 36.8898C106.859 36.4898 106.732 36.0298 106.732 35.5098C106.732 35.3631 106.739 35.2098 106.752 35.0498H106.632C106.419 35.8631 106.026 36.4831 105.452 36.9098C104.892 37.3364 104.152 37.5498 103.232 37.5498C102.326 37.5498 101.692 37.2698 101.332 36.7098C100.972 36.1498 100.792 35.3831 100.792 34.4098C100.792 34.2898 100.819 33.4298 100.872 31.8298C100.939 30.2298 100.972 29.3831 100.972 29.2898ZM114.656 37.5498C112.163 37.5498 110.916 36.0164 110.916 32.9498C110.916 31.4298 111.283 30.1698 112.016 29.1698C112.763 28.1698 113.823 27.6698 115.196 27.6698C115.983 27.6698 116.683 27.8031 117.296 28.0698L117.076 29.1098C116.53 28.9231 115.956 28.8298 115.356 28.8298C113.396 28.8298 112.416 30.2164 112.416 32.9898C112.416 35.2431 113.243 36.3698 114.896 36.3698C115.736 36.3698 116.523 36.1364 117.256 35.6698L117.476 36.4498C117.143 36.7831 116.71 37.0498 116.176 37.2498C115.656 37.4498 115.15 37.5498 114.656 37.5498ZM124.458 36.3098L124.658 37.1898C124.165 37.4298 123.572 37.5498 122.878 37.5498C121.892 37.5498 121.238 37.2831 120.918 36.7498C120.598 36.2164 120.438 35.3698 120.438 34.2098V28.9698H118.838V28.1098L120.438 27.9098V25.8298L121.878 25.5898V27.9098H124.458V28.9698H121.878V33.7698C121.878 35.0098 121.985 35.7631 122.198 36.0298C122.465 36.3364 122.825 36.4898 123.278 36.4898C123.732 36.4898 124.125 36.4298 124.458 36.3098ZM128.766 36.4498C129.353 36.4498 129.846 36.3164 130.246 36.0498C130.646 35.7698 130.846 35.3764 130.846 34.8698C130.846 34.3364 130.593 33.9164 130.086 33.6098C129.833 33.4631 129.526 33.3164 129.166 33.1698C128.806 33.0098 128.586 32.9098 128.506 32.8698C127.84 32.5764 127.32 32.2298 126.946 31.8298C126.586 31.4298 126.406 30.8631 126.406 30.1298C126.406 29.3831 126.706 28.7898 127.306 28.3498C127.906 27.8964 128.613 27.6698 129.426 27.6698C130.24 27.6698 130.973 27.8298 131.626 28.1498L131.406 29.0498C130.74 28.8631 130.146 28.7698 129.626 28.7698C129.12 28.7698 128.68 28.8898 128.306 29.1298C127.933 29.3564 127.746 29.6764 127.746 30.0898C127.746 30.5031 127.873 30.8298 128.126 31.0698C128.38 31.2964 128.64 31.4698 128.906 31.5898C129.186 31.7098 129.48 31.8364 129.786 31.9698C130.106 32.0898 130.313 32.1764 130.406 32.2298C130.5 32.2831 130.673 32.3831 130.926 32.5298C131.18 32.6631 131.353 32.7898 131.446 32.9098C131.553 33.0298 131.673 33.1898 131.806 33.3898C132.06 33.7231 132.186 34.1964 132.186 34.8098C132.186 35.6898 131.86 36.3698 131.206 36.8498C130.553 37.3164 129.72 37.5498 128.706 37.5498C127.706 37.5498 126.82 37.2164 126.046 36.5498L126.266 35.7498C127.026 36.2164 127.86 36.4498 128.766 36.4498Z" fill="white"/>
</svg>
