<svg width="150" height="68" viewBox="0 0 150 68" fill="none" xmlns="http://www.w3.org/2000/svg">
<rect width="150" height="67.78" fill="black"/>
<rect x="16.1073" y="26.4059" width="32.2148" height="4.2695" rx="2.13475" fill="white"/>
<rect x="16.1073" y="34.8776" width="20.1342" height="4.2695" rx="2.13475" fill="white"/>
<path d="M66.4026 26.2565C67.6159 26.2565 68.5959 26.5698 69.3426 27.1965C70.0893 27.8098 70.4626 28.6898 70.4626 29.8365C70.4626 32.4498 68.7626 33.7765 65.3626 33.8165L64.1626 33.8365V40.1365H62.6026L62.6626 26.4965C63.4893 26.3365 64.7359 26.2565 66.4026 26.2565ZM66.1226 27.5565C65.1093 27.5565 64.4559 27.5831 64.1626 27.6365V32.5965L65.4026 32.5765C67.7093 32.5365 68.8626 31.6565 68.8626 29.9365C68.8626 28.3498 67.9493 27.5565 66.1226 27.5565ZM73.7113 30.5565C73.978 30.6631 74.1113 31.0098 74.1113 31.5965C74.1113 32.1698 74.0647 32.7031 73.9713 33.1965H74.0913C74.3847 32.2498 74.7247 31.5631 75.1113 31.1365C75.498 30.7098 76.1047 30.4965 76.9313 30.4965L77.5513 30.5765L77.3713 31.9565C77.198 31.9165 76.9847 31.8965 76.7313 31.8965C76.2113 31.8965 75.7647 32.0698 75.3913 32.4165C75.0313 32.7498 74.7647 33.2031 74.5913 33.7765C74.258 34.8031 74.0913 35.9565 74.0913 37.2365V40.1365H72.7113V33.6765C72.7113 32.3298 72.638 31.3365 72.4913 30.6965L73.7113 30.5565ZM83.1965 39.3165C83.8632 39.3165 84.4098 39.1098 84.8365 38.6965C85.2632 38.2831 85.5498 37.7831 85.6965 37.1965C85.8565 36.6098 85.9365 35.9365 85.9365 35.1765C85.9365 32.7898 85.0898 31.5965 83.3965 31.5965C82.7698 31.5965 82.2498 31.7965 81.8365 32.1965C81.0898 32.9031 80.7165 34.0298 80.7165 35.5765C80.7165 38.0698 81.5432 39.3165 83.1965 39.3165ZM87.4365 35.1965C87.4365 36.6631 87.0632 37.8965 86.3165 38.8965C85.5832 39.8831 84.5165 40.3765 83.1165 40.3765C81.7298 40.3765 80.7432 39.9765 80.1565 39.1765C79.5698 38.3631 79.2765 37.1765 79.2765 35.6165C79.2765 34.0565 79.6165 32.8165 80.2965 31.8965C80.9765 30.9631 82.0032 30.4965 83.3765 30.4965C84.7498 30.4965 85.7698 30.9165 86.4365 31.7565C87.1032 32.5831 87.4365 33.7298 87.4365 35.1965ZM92.9871 40.3765C91.8271 40.3765 90.9805 39.9765 90.4471 39.1765C89.9138 38.3765 89.6471 37.2431 89.6471 35.7765C89.6471 34.2965 90.0205 33.0498 90.7671 32.0365C91.5271 31.0098 92.6405 30.4965 94.1071 30.4965C94.6805 30.4965 95.2605 30.6165 95.8471 30.8565V25.4765L97.1871 25.2365V36.1965C97.1871 37.3831 97.2738 38.2031 97.4471 38.6565C97.6205 39.0965 98.0071 39.3165 98.6071 39.3165L98.6471 40.2165C98.4738 40.2698 98.2071 40.2965 97.8471 40.2965C97.1805 40.2965 96.7138 40.0965 96.4471 39.6965C96.1938 39.2965 96.0671 38.8365 96.0671 38.3165C96.0671 38.1831 96.0738 38.0365 96.0871 37.8765H95.9671C95.4338 39.5431 94.4405 40.3765 92.9871 40.3765ZM95.8471 33.9165V31.8565C95.4605 31.6565 94.8805 31.5565 94.1071 31.5565C92.1338 31.5565 91.1471 33.0431 91.1471 36.0165C91.1471 38.1898 91.8071 39.2765 93.1271 39.2765C93.6471 39.2765 94.0938 39.1098 94.4671 38.7765C94.8538 38.4298 95.1405 37.9765 95.3271 37.4165C95.6738 36.3631 95.8471 35.1965 95.8471 33.9165ZM100.972 32.1165C100.972 31.4765 100.892 31.0031 100.732 30.6965L101.872 30.4965C102.099 30.5498 102.239 30.6831 102.292 30.8965C102.359 31.1098 102.392 31.3298 102.392 31.5565C102.392 31.7165 102.365 32.6365 102.312 34.3165C102.259 35.9831 102.232 36.9098 102.232 37.0965C102.232 37.2831 102.239 37.4965 102.252 37.7365C102.279 37.9631 102.345 38.2031 102.452 38.4565C102.639 38.9765 103.092 39.2365 103.812 39.2365C104.345 39.2365 104.799 39.0498 105.172 38.6765C105.559 38.2898 105.839 37.7831 106.012 37.1565C106.345 36.0231 106.512 34.7831 106.512 33.4365V30.7365H107.852V36.1965C107.852 37.3831 107.939 38.2031 108.112 38.6565C108.285 39.0965 108.672 39.3165 109.272 39.3165L109.312 40.2165C109.099 40.2698 108.832 40.2965 108.512 40.2965C107.845 40.2965 107.379 40.1031 107.112 39.7165C106.859 39.3165 106.732 38.8565 106.732 38.3365C106.732 38.1898 106.739 38.0365 106.752 37.8765H106.632C106.419 38.6898 106.025 39.3098 105.452 39.7365C104.892 40.1631 104.152 40.3765 103.232 40.3765C102.325 40.3765 101.692 40.0965 101.332 39.5365C100.972 38.9765 100.792 38.2098 100.792 37.2365C100.792 37.1165 100.819 36.2565 100.872 34.6565C100.939 33.0565 100.972 32.2098 100.972 32.1165ZM114.656 40.3765C112.163 40.3765 110.916 38.8431 110.916 35.7765C110.916 34.2565 111.283 32.9965 112.016 31.9965C112.763 30.9965 113.823 30.4965 115.196 30.4965C115.983 30.4965 116.683 30.6298 117.296 30.8965L117.076 31.9365C116.53 31.7498 115.956 31.6565 115.356 31.6565C113.396 31.6565 112.416 33.0431 112.416 35.8165C112.416 38.0698 113.243 39.1965 114.896 39.1965C115.736 39.1965 116.523 38.9631 117.256 38.4965L117.476 39.2765C117.143 39.6098 116.71 39.8765 116.176 40.0765C115.656 40.2765 115.15 40.3765 114.656 40.3765ZM124.458 39.1365L124.658 40.0165C124.165 40.2565 123.572 40.3765 122.878 40.3765C121.892 40.3765 121.238 40.1098 120.918 39.5765C120.598 39.0431 120.438 38.1965 120.438 37.0365V31.7965H118.838V30.9365L120.438 30.7365V28.6565L121.878 28.4165V30.7365H124.458V31.7965H121.878V36.5965C121.878 37.8365 121.985 38.5898 122.198 38.8565C122.465 39.1631 122.825 39.3165 123.278 39.3165C123.732 39.3165 124.125 39.2565 124.458 39.1365ZM128.766 39.2765C129.353 39.2765 129.846 39.1431 130.246 38.8765C130.646 38.5965 130.846 38.2031 130.846 37.6965C130.846 37.1631 130.593 36.7431 130.086 36.4365C129.833 36.2898 129.526 36.1431 129.166 35.9965C128.806 35.8365 128.586 35.7365 128.506 35.6965C127.84 35.4031 127.32 35.0565 126.946 34.6565C126.586 34.2565 126.406 33.6898 126.406 32.9565C126.406 32.2098 126.706 31.6165 127.306 31.1765C127.906 30.7231 128.613 30.4965 129.426 30.4965C130.24 30.4965 130.973 30.6565 131.626 30.9765L131.406 31.8765C130.74 31.6898 130.146 31.5965 129.626 31.5965C129.12 31.5965 128.68 31.7165 128.306 31.9565C127.933 32.1831 127.746 32.5031 127.746 32.9165C127.746 33.3298 127.873 33.6565 128.126 33.8965C128.38 34.1231 128.64 34.2965 128.906 34.4165C129.186 34.5365 129.48 34.6631 129.786 34.7965C130.106 34.9165 130.313 35.0031 130.406 35.0565C130.5 35.1098 130.673 35.2098 130.926 35.3565C131.18 35.4898 131.353 35.6165 131.446 35.7365C131.553 35.8565 131.673 36.0165 131.806 36.2165C132.06 36.5498 132.186 37.0231 132.186 37.6365C132.186 38.5165 131.86 39.1965 131.206 39.6765C130.553 40.1431 129.72 40.3765 128.706 40.3765C127.706 40.3765 126.82 40.0431 126.046 39.3765L126.266 38.5765C127.026 39.0431 127.86 39.2765 128.766 39.2765Z" fill="white"/>
</svg>
