<svg width="141" height="106" viewBox="0 0 141 106" fill="none" xmlns="http://www.w3.org/2000/svg">
<path d="M99.5503 32.4678C99.5503 49.875 85.7591 63.9543 68.708 63.9543C51.657 63.9543 37.8657 49.875 37.8657 32.4678C37.8657 15.0606 51.657 0.981323 68.708 0.981323C85.7591 0.981323 99.5503 15.0606 99.5503 32.4678Z" fill="#E85A4F"/>
<path d="M71.0484 52.8187L47.6868 28.9265L56.5466 19.8816L71.0484 34.6436L98.8399 6.31421L107.7 15.4018L71.0484 52.8187Z" fill="white"/>
<path d="M71.0493 53.7147C70.7985 53.7147 70.5896 53.6294 70.4224 53.4587L47.0608 29.5666C46.7265 29.2253 46.7265 28.628 47.0608 28.2867L55.9625 19.1991C56.2968 18.8578 56.8819 18.8578 57.2162 19.1991L71.0911 33.3637L98.2139 5.67444C98.5482 5.33313 99.1333 5.33313 99.4677 5.67444L108.369 14.762C108.704 15.1033 108.704 15.7006 108.369 16.0419L71.7179 53.4587C71.509 53.6294 71.3 53.7147 71.0493 53.7147ZM48.9414 28.9266L71.0493 51.4962L106.405 15.3593L98.799 7.59435L71.6762 35.3263C71.3418 35.6676 70.7567 35.6676 70.4224 35.3263L56.5475 21.1617L48.9414 28.9266Z" fill="black"/>
<path d="M3.19 97V95.636H5.896L5.962 84.262L2.926 86.22L2.2 85.23L6.028 82.238L7.568 82.502V95.636H10.186V97H3.19ZM22.1057 94.668C21.7244 95.46 21.189 96.0907 20.4997 96.56C19.825 97.0293 19.0184 97.264 18.0797 97.264C17.141 97.264 16.3344 97.0733 15.6597 96.692C14.9997 96.3107 14.4937 95.768 14.1417 95.064C13.511 93.788 13.1957 92.0573 13.1957 89.872C13.1957 87.76 13.5477 86 14.2517 84.592C14.633 83.844 15.1684 83.2647 15.8577 82.854C16.5617 82.4433 17.383 82.238 18.3217 82.238C19.275 82.238 20.0744 82.4213 20.7197 82.788C21.3797 83.14 21.8857 83.6533 22.2377 84.328C22.8977 85.5893 23.2277 87.2467 23.2277 89.3C23.2277 91.3533 22.8537 93.1427 22.1057 94.668ZM16.4297 95.394C16.8844 95.7313 17.4417 95.9 18.1017 95.9C18.7617 95.9 19.3264 95.6947 19.7957 95.284C20.2797 94.8587 20.639 94.3013 20.8737 93.612C21.3137 92.3213 21.5337 90.884 21.5337 89.3C21.5337 87.7307 21.3577 86.44 21.0057 85.428C20.5804 84.2107 19.693 83.602 18.3437 83.602C17.669 83.602 17.0897 83.7927 16.6057 84.174C16.1217 84.5407 15.7624 85.0467 15.5277 85.692C15.1024 86.8653 14.8897 88.2587 14.8897 89.872C14.8897 92.7907 15.403 94.6313 16.4297 95.394ZM34.2014 94.668C33.8201 95.46 33.2847 96.0907 32.5954 96.56C31.9207 97.0293 31.1141 97.264 30.1754 97.264C29.2367 97.264 28.4301 97.0733 27.7554 96.692C27.0954 96.3107 26.5894 95.768 26.2374 95.064C25.6067 93.788 25.2914 92.0573 25.2914 89.872C25.2914 87.76 25.6434 86 26.3474 84.592C26.7287 83.844 27.2641 83.2647 27.9534 82.854C28.6574 82.4433 29.4787 82.238 30.4174 82.238C31.3707 82.238 32.1701 82.4213 32.8154 82.788C33.4754 83.14 33.9814 83.6533 34.3334 84.328C34.9934 85.5893 35.3234 87.2467 35.3234 89.3C35.3234 91.3533 34.9494 93.1427 34.2014 94.668ZM28.5254 95.394C28.9801 95.7313 29.5374 95.9 30.1974 95.9C30.8574 95.9 31.4221 95.6947 31.8914 95.284C32.3754 94.8587 32.7347 94.3013 32.9694 93.612C33.4094 92.3213 33.6294 90.884 33.6294 89.3C33.6294 87.7307 33.4534 86.44 33.1014 85.428C32.6761 84.2107 31.7887 83.602 30.4394 83.602C29.7647 83.602 29.1854 83.7927 28.7014 84.174C28.2174 84.5407 27.8581 85.0467 27.6234 85.692C27.1981 86.8653 26.9854 88.2587 26.9854 89.872C26.9854 92.7907 27.4987 94.6313 28.5254 95.394ZM40.8851 89.124C42.1024 89.124 42.7111 88.09 42.7111 86.022C42.7111 85.1567 42.5938 84.482 42.3591 83.998C42.1391 83.514 41.6918 83.272 41.0171 83.272C39.8878 83.272 39.3231 84.284 39.3231 86.308C39.3231 86.88 39.3451 87.3493 39.3891 87.716C39.4478 88.068 39.5944 88.3907 39.8291 88.684C40.0784 88.9773 40.4304 89.124 40.8851 89.124ZM43.9871 86.022C43.9871 87.166 43.7158 88.134 43.1731 88.926C42.6451 89.718 41.8604 90.114 40.8191 90.114C39.7924 90.114 39.0738 89.7913 38.6631 89.146C38.2524 88.5007 38.0471 87.5693 38.0471 86.352C38.0471 85.12 38.2818 84.1373 38.7511 83.404C39.2351 82.656 39.9904 82.282 41.0171 82.282C42.0438 82.282 42.7918 82.6193 43.2611 83.294C43.7451 83.9687 43.9871 84.878 43.9871 86.022ZM50.9171 82.238L41.3691 97.726C41.0464 97.6233 40.7971 97.4693 40.6211 97.264L50.1691 81.776C50.4918 81.8787 50.7411 82.0327 50.9171 82.238ZM50.4991 95.856C51.7164 95.856 52.3251 94.822 52.3251 92.754C52.3251 91.8887 52.2078 91.214 51.9731 90.73C51.7531 90.246 51.3058 90.004 50.6311 90.004C49.5018 90.004 48.9371 91.016 48.9371 93.04C48.9371 93.612 48.9591 94.0813 49.0031 94.448C49.0618 94.8 49.2084 95.1227 49.4431 95.416C49.6924 95.7093 50.0444 95.856 50.4991 95.856ZM53.6011 92.754C53.6011 93.898 53.3298 94.866 52.7871 95.658C52.2591 96.45 51.4744 96.846 50.4331 96.846C49.4064 96.846 48.6878 96.5233 48.2771 95.878C47.8664 95.2327 47.6611 94.3013 47.6611 93.084C47.6611 91.852 47.8958 90.8693 48.3651 90.136C48.8491 89.388 49.6044 89.014 50.6311 89.014C51.6578 89.014 52.4058 89.3513 52.8751 90.026C53.3591 90.7007 53.6011 91.61 53.6011 92.754ZM67.3984 95.878C68.2197 95.878 68.9237 95.6873 69.5104 95.306C70.1117 94.91 70.5737 94.3747 70.8964 93.7C71.527 92.4093 71.8424 90.8327 71.8424 88.97C71.8424 86.726 71.4244 85.12 70.5884 84.152C69.943 83.3893 68.9897 83.008 67.7284 83.008C66.9364 83.008 66.2397 83.1913 65.6384 83.558C65.0517 83.9247 64.5897 84.4233 64.2524 85.054C63.607 86.3007 63.2844 87.7967 63.2844 89.542C63.2844 93.766 64.6557 95.878 67.3984 95.878ZM67.2004 97.264C66.2324 97.264 65.3597 97.0807 64.5824 96.714C63.805 96.3473 63.1964 95.812 62.7564 95.108C61.935 93.7733 61.5244 91.918 61.5244 89.542C61.5244 86.3887 62.4264 84.1007 64.2304 82.678C65.1837 81.93 66.3497 81.556 67.7284 81.556C69.8257 81.556 71.3217 82.2013 72.2164 83.492C73.111 84.7827 73.5584 86.616 73.5584 88.992C73.5584 91.852 72.8544 94.052 71.4464 95.592C70.4344 96.7067 69.019 97.264 67.2004 97.264ZM78.2119 86.462C78.5052 86.5793 78.6519 86.9607 78.6519 87.606C78.6519 88.2367 78.6006 88.8233 78.4979 89.366H78.6299C78.9526 88.3247 79.3266 87.5693 79.7519 87.1C80.1772 86.6307 80.8446 86.396 81.7539 86.396L82.4359 86.484L82.2379 88.002C82.0472 87.958 81.8126 87.936 81.5339 87.936C80.9619 87.936 80.4706 88.1267 80.0599 88.508C79.6639 88.8747 79.3706 89.3733 79.1799 90.004C78.8132 91.1333 78.6299 92.402 78.6299 93.81V97H77.1119V89.894C77.1119 88.4127 77.0312 87.32 76.8699 86.616L78.2119 86.462ZM86.9296 97.176C86.2549 97.176 85.7856 97.0147 85.5216 96.692C85.2576 96.3693 85.1256 95.8413 85.1256 95.108V86.66H86.7096V94.206C86.7096 94.9833 86.7682 95.4893 86.8856 95.724C87.0029 95.944 87.3402 96.054 87.8976 96.054L87.9416 97.022C87.6042 97.1247 87.2669 97.176 86.9296 97.176ZM84.9716 83.206C84.9716 82.5167 85.3089 82.172 85.9836 82.172C86.5996 82.172 86.9076 82.5093 86.9076 83.184C86.9076 83.844 86.5849 84.174 85.9396 84.174C85.2942 84.174 84.9716 83.8513 84.9716 83.206ZM97.0863 96.34C97.0863 95.6507 97.1377 94.998 97.2403 94.382H97.1083C96.551 96.3033 95.451 97.264 93.8083 97.264C92.5617 97.264 91.6377 96.8167 91.0363 95.922C90.435 95.0127 90.1343 93.7587 90.1343 92.16C90.1343 90.5613 90.545 89.2047 91.3663 88.09C92.2023 86.9607 93.427 86.396 95.0403 86.396C95.6417 86.396 96.2357 86.462 96.8223 86.594C97.4237 86.7113 98.0103 86.8947 98.5823 87.144L98.6043 96.34C98.6043 98.2027 98.2597 99.6547 97.5703 100.696C96.8957 101.752 95.7517 102.28 94.1383 102.28C93.5517 102.28 92.9503 102.17 92.3343 101.95C91.7183 101.745 91.227 101.451 90.8603 101.07L91.1023 100.212C91.953 100.769 92.943 101.048 94.0723 101.048C95.2163 101.048 96.001 100.645 96.4263 99.838C96.8663 99.046 97.0863 97.88 97.0863 96.34ZM93.9623 96.054C96.0597 96.054 97.1083 93.3553 97.1083 87.958C96.639 87.694 95.9497 87.562 95.0403 87.562C92.8697 87.562 91.7843 89.1973 91.7843 92.468C91.7843 93.48 91.953 94.3307 92.2903 95.02C92.6277 95.7093 93.185 96.054 93.9623 96.054ZM104.418 97.176C103.743 97.176 103.274 97.0147 103.01 96.692C102.746 96.3693 102.614 95.8413 102.614 95.108V86.66H104.198V94.206C104.198 94.9833 104.257 95.4893 104.374 95.724C104.491 95.944 104.829 96.054 105.386 96.054L105.43 97.022C105.093 97.1247 104.755 97.176 104.418 97.176ZM102.46 83.206C102.46 82.5167 102.797 82.172 103.472 82.172C104.088 82.172 104.396 82.5093 104.396 83.184C104.396 83.844 104.073 84.174 103.428 84.174C102.783 84.174 102.46 83.8513 102.46 83.206ZM109.933 87.1C109.933 87.8773 109.874 88.53 109.757 89.058H109.889C110.094 88.2367 110.49 87.5913 111.077 87.122C111.678 86.638 112.404 86.396 113.255 86.396C114.413 86.396 115.213 86.6893 115.653 87.276C116.093 87.848 116.313 88.7133 116.313 89.872C116.313 89.916 116.298 90.664 116.269 92.116C116.254 93.568 116.247 94.492 116.247 94.888C116.247 95.284 116.291 95.5773 116.379 95.768C116.481 95.9587 116.797 96.054 117.325 96.054L117.369 97.044C117.163 97.132 116.863 97.176 116.467 97.176C115.763 97.176 115.279 97.0147 115.015 96.692C114.765 96.3693 114.641 95.856 114.641 95.152C114.641 95.1227 114.655 94.3307 114.685 92.776C114.714 91.2213 114.729 90.4147 114.729 90.356C114.729 89.5053 114.619 88.8453 114.399 88.376C114.179 87.892 113.739 87.65 113.079 87.65C112.433 87.65 111.891 87.8553 111.451 88.266C111.025 88.6767 110.703 89.212 110.483 89.872C110.087 91.148 109.889 92.5047 109.889 93.942V97H108.371V86.66L109.933 86.462V87.1ZM126.409 89.498V87.892C125.984 87.672 125.346 87.562 124.495 87.562C122.324 87.562 121.239 89.1973 121.239 92.468C121.239 94.8587 121.965 96.054 123.417 96.054C124.033 96.054 124.546 95.8487 124.957 95.438C125.382 95.0127 125.698 94.4407 125.903 93.722C126.24 92.4753 126.409 91.0673 126.409 89.498ZM123.263 97.264C121.987 97.264 121.056 96.824 120.469 95.944C119.882 95.064 119.589 93.8173 119.589 92.204C119.589 90.576 120 89.2047 120.821 88.09C121.657 86.9607 122.882 86.396 124.495 86.396C125.067 86.396 125.632 86.4547 126.189 86.572C126.761 86.6893 127.326 86.858 127.883 87.078V92.666C127.883 94.162 128.015 95.108 128.279 95.504C128.528 95.9 128.946 96.098 129.533 96.098L129.577 97.088C129.342 97.1467 129.049 97.176 128.697 97.176C127.92 97.176 127.362 96.9047 127.025 96.362C126.776 95.966 126.651 95.4967 126.651 94.954C126.651 94.778 126.666 94.5873 126.695 94.382H126.563C126.314 95.262 125.91 95.966 125.353 96.494C124.81 97.0073 124.114 97.264 123.263 97.264ZM132.09 95.108V80.874L133.674 80.61V94.206C133.674 94.9833 133.733 95.4893 133.85 95.724C133.968 95.944 134.305 96.054 134.862 96.054L134.906 97.022C134.672 97.1247 134.276 97.176 133.718 97.176C133.161 97.176 132.75 97.0147 132.486 96.692C132.222 96.3693 132.09 95.8413 132.09 95.108Z" fill="black"/>
</svg>
