<svg width="73" height="65" viewBox="0 0 73 65" fill="none" xmlns="http://www.w3.org/2000/svg">
<path d="M63.5503 32.4678C63.5503 49.875 49.7591 63.9543 32.708 63.9543C15.657 63.9543 1.86572 49.875 1.86572 32.4678C1.86572 15.0606 15.657 0.981323 32.708 0.981323C49.7591 0.981323 63.5503 15.0606 63.5503 32.4678Z" fill="#E85A4F"/>
<path d="M35.0484 52.8187L11.6868 28.9265L20.5466 19.8816L35.0484 34.6436L62.8399 6.31421L71.6997 15.4018L35.0484 52.8187Z" fill="white"/>
<path d="M35.0493 53.7147C34.7985 53.7147 34.5896 53.6294 34.4224 53.4587L11.0608 29.5666C10.7265 29.2253 10.7265 28.628 11.0608 28.2867L19.9625 19.1991C20.2968 18.8578 20.8819 18.8578 21.2162 19.1991L35.0911 33.3637L62.2139 5.67444C62.5482 5.33313 63.1333 5.33313 63.4677 5.67444L72.3693 14.762C72.7036 15.1033 72.7036 15.7006 72.3693 16.0419L35.7179 53.4587C35.509 53.6294 35.3 53.7147 35.0493 53.7147ZM12.9414 28.9266L35.0493 51.4962L70.4051 15.3593L62.799 7.59435L35.6762 35.3263C35.3418 35.6676 34.7567 35.6676 34.4224 35.3263L20.5475 21.1617L12.9414 28.9266Z" fill="black"/>
</svg>
