<svg width="155" height="104" viewBox="0 0 155 104" fill="none" xmlns="http://www.w3.org/2000/svg">
<g filter="url(#filter0_d)">
<path d="M105.276 1.27417C108.425 1.27417 111.183 4.55039 111.183 8.84894V11.7411H35.1166V8.84894C35.1166 4.552 37.873 1.27417 41.0535 1.27417H105.276Z" fill="#F1F2F2" stroke="black"/>
<path d="M34.7345 11.43V11.93H35.2345H111.037H111.537V11.43V8.84903C111.537 4.66564 108.827 1.08545 105.247 1.08545H41.0248C37.4451 1.08545 34.7345 4.66564 34.7345 8.84903V11.43ZM111.684 12.5154H34.6174H34.6172V12.5155C34.6172 12.5155 34.6173 12.5155 34.6173 12.5155L34.6165 12.5151L34.6129 12.5133C34.6059 12.5095 34.5907 12.4989 34.5722 12.475C34.5333 12.4246 34.5 12.3399 34.5 12.2412V8.84903C34.5 4.14652 37.5503 0.5 41.0541 0.5H105.276C108.78 0.5 111.83 4.14652 111.83 8.84903V12.2412C111.83 12.3265 111.798 12.4081 111.753 12.4627C111.732 12.4887 111.712 12.503 111.699 12.5097C111.698 12.5106 111.696 12.5114 111.695 12.5121C111.691 12.5137 111.688 12.5145 111.687 12.5149C111.685 12.5154 111.684 12.5154 111.684 12.5154Z" fill="black" stroke="black"/>
<path d="M41.0535 58.1986C37.873 58.1986 35.1166 54.9208 35.1166 50.6239V26.7522H111.183V50.6239C111.183 54.924 108.454 58.1986 105.276 58.1986H41.0535Z" fill="#F1F2F2" stroke="black"/>
<path d="M111.801 50.6267L111.801 50.6237L111.801 26.2521C111.801 26.1534 111.768 26.0687 111.729 26.0182C111.71 25.9944 111.695 25.9837 111.688 25.9799L111.684 25.9781L111.684 25.9778V25.9778L111.801 50.6267ZM111.801 50.6267C111.829 55.3621 108.781 58.9727 105.276 58.9727H41.0541C37.5503 58.9727 34.5 55.3262 34.5 50.6237V26.2521C34.5 26.1408 34.5369 26.0611 34.5733 26.0169C34.598 25.987 34.6156 25.9794 34.6208 25.9778L111.801 50.6267ZM35.2345 26.5632H34.7345V27.0632V50.6606C34.7345 54.844 37.4451 58.4241 41.0248 58.4241H105.247C108.827 58.4241 111.537 54.844 111.537 50.6606V27.0632V26.5632H111.037H35.2345Z" fill="black" stroke="black"/>
<path d="M35.0985 13.3945H110.737V24.9145H35.0985V13.3945Z" fill="#E8594F"/>
<path d="M110.737 25.5797H35.0979C34.7517 25.5797 34.4921 25.2774 34.4921 24.9448V13.4248C34.4921 13.0619 34.7805 12.7898 35.0979 12.7898H110.737C111.083 12.7898 111.342 13.0922 111.342 13.4248V24.9448C111.371 25.2774 111.083 25.5797 110.737 25.5797ZM35.7037 24.2796H110.102V14.0597H35.7037V24.2796Z" fill="#E8594F"/>
</g>
<path d="M83.1385 36.451H53.8315C53.4781 36.451 53.213 36.1466 53.213 35.8116C53.213 35.4766 53.5075 35.1721 53.8315 35.1721H83.1385C83.4919 35.1721 83.757 35.4766 83.757 35.8116C83.757 36.1466 83.4919 36.451 83.1385 36.451Z" fill="black"/>
<path d="M90.0397 36.451H81.9081C81.5571 36.451 81.2938 36.1466 81.2938 35.8116C81.2938 35.4766 81.5863 35.1721 81.9081 35.1721H90.0397C90.3907 35.1721 90.654 35.4766 90.654 35.8116C90.654 36.1466 90.3615 36.451 90.0397 36.451Z" fill="black"/>
<path d="M98.4042 47.3224H45.9554C45.5984 47.3224 45.3307 46.8656 45.3307 46.3632C45.3307 45.8607 45.6282 45.4039 45.9554 45.4039H98.4042C98.7612 45.4039 99.0289 45.8607 99.0289 46.3632C99.0289 46.8656 98.7612 47.3224 98.4042 47.3224Z" fill="black"/>
<path d="M105.049 28.9136C98.355 28.7664 92.8478 35.3207 92.7801 43.568C92.754 46.7382 93.5257 49.6636 94.8834 52.1252L104.689 72.7719L114.83 52.5636C116.208 50.186 117.047 47.2721 117.073 44.1019C117.141 35.8546 111.763 29.0611 105.049 28.9136ZM104.858 52.2252C101.423 52.1497 98.6767 48.6802 98.7113 44.4612C98.7459 40.2422 101.549 36.8947 104.983 36.9701C108.418 37.0456 111.164 40.5151 111.13 44.7341C111.095 48.9531 108.292 52.3007 104.858 52.2252Z" fill="#FF6C64"/>
<path d="M104.671 73.2818C104.516 73.2783 104.381 73.1798 104.324 73.0355L94.525 52.3814C93.0918 49.774 92.3416 46.7292 92.3686 43.5591C92.4412 35.0499 98.127 28.2659 105.054 28.4238C111.98 28.5817 117.548 35.6222 117.475 44.1313C117.448 47.3014 116.646 50.3108 115.169 52.8757L105.041 73.0519C104.963 73.1931 104.826 73.2853 104.671 73.2818ZM105.045 29.4487C98.5839 29.3015 93.2707 35.641 93.2029 43.5781C93.1777 46.5337 93.8714 49.3865 95.2284 51.8252L104.684 71.7802L114.456 52.2873C115.855 49.8637 116.616 47.0441 116.641 44.0885C116.709 36.1752 111.506 29.596 105.045 29.4487ZM104.846 52.7596C101.198 52.6765 98.2608 48.962 98.2991 44.481C98.3373 40 101.337 36.4208 104.985 36.504C108.632 36.5871 111.57 40.3016 111.532 44.7826C111.513 49.2402 108.513 52.8432 104.846 52.7596ZM104.976 37.505C101.794 37.4325 99.1669 40.5672 99.1336 44.4762C99.1 48.409 101.673 51.6384 104.855 51.7109C108.037 51.7834 110.664 48.6487 110.697 44.7397C110.75 40.8312 108.178 37.578 104.976 37.505Z" fill="black"/>
<path d="M7.73703 98.1807C5.65437 98.1807 4.21703 97.4181 3.42503 95.8927C2.6917 94.4994 2.32503 92.6807 2.32503 90.4367C2.32503 88.1927 2.8677 86.3374 3.95303 84.8707C5.03837 83.3894 6.54903 82.6487 8.48503 82.6487C9.4237 82.6487 10.3257 82.7954 11.191 83.0887L10.861 84.3207C10.113 84.1741 9.38703 84.1007 8.68303 84.1007C5.6177 84.1007 4.08503 86.2274 4.08503 90.4807C4.08503 93.5167 4.74503 95.4381 6.06503 96.2447C6.6077 96.5674 7.27503 96.7287 8.06703 96.7287C9.34303 96.7287 10.4944 96.3034 11.521 95.4527L11.873 96.5747C10.905 97.6454 9.52637 98.1807 7.73703 98.1807ZM20.3521 90.4147V88.8087C19.9268 88.5887 19.2888 88.4787 18.4381 88.4787C16.2675 88.4787 15.1821 90.1141 15.1821 93.3847C15.1821 95.7754 15.9081 96.9707 17.3601 96.9707C17.9761 96.9707 18.4895 96.7654 18.9001 96.3547C19.3255 95.9294 19.6408 95.3574 19.8461 94.6387C20.1835 93.3921 20.3521 91.9841 20.3521 90.4147ZM17.2061 98.1807C15.9301 98.1807 14.9988 97.7407 14.4121 96.8607C13.8255 95.9807 13.5321 94.7341 13.5321 93.1207C13.5321 91.4927 13.9428 90.1214 14.7641 89.0067C15.6001 87.8774 16.8248 87.3127 18.4381 87.3127C19.0101 87.3127 19.5748 87.3714 20.1321 87.4887C20.7041 87.6061 21.2688 87.7747 21.8261 87.9947V93.5827C21.8261 95.0787 21.9581 96.0247 22.2221 96.4207C22.4715 96.8167 22.8895 97.0147 23.4761 97.0147L23.5201 98.0047C23.2855 98.0634 22.9921 98.0927 22.6401 98.0927C21.8628 98.0927 21.3055 97.8214 20.9681 97.2787C20.7188 96.8827 20.5941 96.4134 20.5941 95.8707C20.5941 95.6947 20.6088 95.5041 20.6381 95.2987H20.5061C20.2568 96.1787 19.8535 96.8827 19.2961 97.4107C18.7535 97.9241 18.0568 98.1807 17.2061 98.1807ZM27.8816 96.9707C28.527 96.9707 29.0696 96.8241 29.5096 96.5307C29.9496 96.2227 30.1696 95.7901 30.1696 95.2327C30.1696 94.6461 29.891 94.1841 29.3336 93.8467C29.055 93.6854 28.7176 93.5241 28.3216 93.3627C27.9256 93.1867 27.6836 93.0767 27.5956 93.0327C26.8623 92.7101 26.2903 92.3287 25.8796 91.8887C25.4836 91.4487 25.2856 90.8254 25.2856 90.0187C25.2856 89.1974 25.6156 88.5447 26.2756 88.0607C26.9356 87.5621 27.713 87.3127 28.6076 87.3127C29.5023 87.3127 30.309 87.4887 31.0276 87.8407L30.7856 88.8307C30.0523 88.6254 29.3996 88.5227 28.8276 88.5227C28.2703 88.5227 27.7863 88.6547 27.3756 88.9187C26.965 89.1681 26.7596 89.5201 26.7596 89.9747C26.7596 90.4294 26.899 90.7887 27.1776 91.0527C27.4563 91.3021 27.7423 91.4927 28.0356 91.6247C28.3436 91.7567 28.6663 91.8961 29.0036 92.0427C29.3556 92.1747 29.583 92.2701 29.6856 92.3287C29.7883 92.3874 29.979 92.4974 30.2576 92.6587C30.5363 92.8054 30.727 92.9447 30.8296 93.0767C30.947 93.2087 31.079 93.3847 31.2256 93.6047C31.5043 93.9714 31.6436 94.4921 31.6436 95.1667C31.6436 96.1347 31.2843 96.8827 30.5656 97.4107C29.847 97.9241 28.9303 98.1807 27.8156 98.1807C26.7156 98.1807 25.7403 97.8141 24.8896 97.0807L25.1316 96.2007C25.9676 96.7141 26.8843 96.9707 27.8816 96.9707ZM35.8876 87.7967C35.8876 88.5741 35.8289 89.2267 35.7116 89.7547H35.8436C36.4449 88.1267 37.5669 87.3127 39.2096 87.3127C40.3682 87.3127 41.1676 87.6061 41.6076 88.1927C42.0476 88.7647 42.2676 89.6301 42.2676 90.7887C42.2676 90.8327 42.2529 91.5807 42.2236 93.0327C42.2089 94.4847 42.2016 95.4087 42.2016 95.8047C42.2016 96.2007 42.2456 96.4941 42.3336 96.6847C42.4362 96.8754 42.7516 96.9707 43.2796 96.9707L43.3236 97.9607C43.1182 98.0487 42.8176 98.0927 42.4216 98.0927C41.7176 98.0927 41.2336 97.9314 40.9696 97.6087C40.7202 97.2861 40.5956 96.7727 40.5956 96.0687C40.5956 96.0394 40.6102 95.2474 40.6396 93.6927C40.6689 92.1381 40.6836 91.3314 40.6836 91.2727C40.6836 90.4221 40.5736 89.7621 40.3536 89.2927C40.1336 88.8087 39.6496 88.5667 38.9016 88.5667C38.1536 88.5667 37.5302 88.8967 37.0316 89.5567C36.5476 90.2167 36.2249 90.9574 36.0636 91.7787C35.9169 92.5854 35.8436 93.4654 35.8436 94.4187V97.9167H34.3256V81.7907L35.8876 81.5267V87.7967ZM56.367 96.7947C57.1883 96.7947 57.8923 96.6041 58.479 96.2227C59.0803 95.8267 59.5423 95.2914 59.865 94.6167C60.4957 93.3261 60.811 91.7494 60.811 89.8867C60.811 87.6427 60.393 86.0367 59.557 85.0687C58.9117 84.3061 57.9583 83.9247 56.697 83.9247C55.905 83.9247 55.2083 84.1081 54.607 84.4747C54.0203 84.8414 53.5583 85.3401 53.221 85.9707C52.5757 87.2174 52.253 88.7134 52.253 90.4587C52.253 94.6827 53.6243 96.7947 56.367 96.7947ZM56.169 98.1807C55.201 98.1807 54.3283 97.9974 53.551 97.6307C52.7737 97.2641 52.165 96.7287 51.725 96.0247C50.9037 94.6901 50.493 92.8347 50.493 90.4587C50.493 87.3054 51.395 85.0174 53.199 83.5947C54.1523 82.8467 55.3183 82.4727 56.697 82.4727C58.7943 82.4727 60.2903 83.1181 61.185 84.4087C62.0797 85.6994 62.527 87.5327 62.527 89.9087C62.527 92.7687 61.823 94.9687 60.415 96.5087C59.403 97.6234 57.9877 98.1807 56.169 98.1807ZM67.5985 88.0167C67.5985 88.7941 67.5399 89.4467 67.4225 89.9747H67.5545C67.7599 89.1534 68.1559 88.5081 68.7425 88.0387C69.3439 87.5547 70.0699 87.3127 70.9205 87.3127C72.0792 87.3127 72.8785 87.6061 73.3185 88.1927C73.7585 88.7647 73.9785 89.6301 73.9785 90.7887C73.9785 90.8327 73.9639 91.5807 73.9345 93.0327C73.9199 94.4847 73.9125 95.4087 73.9125 95.8047C73.9125 96.2007 73.9565 96.4941 74.0445 96.6847C74.1472 96.8754 74.4625 96.9707 74.9905 96.9707L75.0345 97.9607C74.8292 98.0487 74.5285 98.0927 74.1325 98.0927C73.4285 98.0927 72.9445 97.9314 72.6805 97.6087C72.4312 97.2861 72.3065 96.7727 72.3065 96.0687C72.3065 96.0394 72.3212 95.2474 72.3505 93.6927C72.3799 92.1381 72.3945 91.3314 72.3945 91.2727C72.3945 90.4221 72.2845 89.7621 72.0645 89.2927C71.8445 88.8087 71.4045 88.5667 70.7445 88.5667C70.0992 88.5667 69.5565 88.7721 69.1165 89.1827C68.6912 89.5934 68.3685 90.1287 68.1485 90.7887C67.7525 92.0647 67.5545 93.4214 67.5545 94.8587V97.9167H66.0365V87.5767L67.5985 87.3787V88.0167ZM87.2639 82.6487C91.0479 82.6487 92.9399 85.1787 92.9399 90.2387C92.9399 92.4827 92.4413 94.3454 91.4439 95.8267C90.9599 96.5601 90.3073 97.1394 89.4859 97.5647C88.6793 97.9754 87.7553 98.1807 86.7139 98.1807C85.0566 98.1807 83.8466 98.0121 83.0839 97.6747L83.1499 82.9127C84.3526 82.7367 85.7239 82.6487 87.2639 82.6487ZM86.4939 96.7507C88.1219 96.7507 89.3099 96.1421 90.0579 94.9247C90.8059 93.6927 91.1799 92.1087 91.1799 90.1727C91.1799 86.1101 89.6986 84.0787 86.7359 84.0787L84.7999 84.1667V96.6407C85.2106 96.7141 85.7753 96.7507 86.4939 96.7507ZM101.695 89.8427C101.695 89.4174 101.563 89.0947 101.299 88.8747C101.035 88.6547 100.683 88.5447 100.243 88.5447C99.3634 88.5447 98.6741 88.9114 98.1754 89.6447C97.6768 90.3634 97.3908 91.2361 97.3174 92.2627C100.236 92.2627 101.695 91.4561 101.695 89.8427ZM99.8034 98.1807C97.0461 98.1807 95.6674 96.4207 95.6674 92.9007C95.6674 91.2874 96.0708 89.9527 96.8774 88.8967C97.6988 87.8407 98.8501 87.3127 100.331 87.3127C101.241 87.3127 101.959 87.5327 102.487 87.9727C103.03 88.3981 103.301 88.9921 103.301 89.7547C103.301 90.5027 103.118 91.1187 102.751 91.6027C102.399 92.0721 101.915 92.4314 101.299 92.6807C100.141 93.1501 98.7988 93.3847 97.2734 93.3847C97.2734 95.7167 98.2048 96.8827 100.067 96.8827C101.006 96.8827 101.893 96.6261 102.729 96.1127L102.971 96.9707C102.605 97.3374 102.121 97.6307 101.519 97.8507C100.933 98.0707 100.361 98.1807 99.8034 98.1807ZM105.977 96.0247V81.7907L107.561 81.5267V95.1227C107.561 95.9001 107.62 96.4061 107.737 96.6407C107.854 96.8607 108.192 96.9707 108.749 96.9707L108.793 97.9387C108.558 98.0414 108.162 98.0927 107.605 98.0927C107.048 98.0927 106.637 97.9314 106.373 97.6087C106.109 97.2861 105.977 96.7581 105.977 96.0247ZM113.582 98.0927C112.907 98.0927 112.438 97.9314 112.174 97.6087C111.91 97.2861 111.778 96.7581 111.778 96.0247V87.5767H113.362V95.1227C113.362 95.9001 113.42 96.4061 113.538 96.6407C113.655 96.8607 113.992 96.9707 114.55 96.9707L114.594 97.9387C114.256 98.0414 113.919 98.0927 113.582 98.0927ZM111.624 84.1227C111.624 83.4334 111.961 83.0887 112.636 83.0887C113.252 83.0887 113.56 83.4261 113.56 84.1007C113.56 84.7607 113.237 85.0907 112.592 85.0907C111.946 85.0907 111.624 84.7681 111.624 84.1227ZM122.551 90.4147C122.697 89.9307 122.771 89.4101 122.771 88.8527C122.771 88.2954 122.705 87.8334 122.573 87.4667L123.915 87.3127C124.223 87.4887 124.377 87.9067 124.377 88.5667C124.377 89.2121 124.274 89.8721 124.069 90.5467C123.863 91.2067 123.445 92.2481 122.815 93.6707L120.945 97.9167H119.559L117.403 90.7007C116.963 89.2341 116.567 88.1927 116.215 87.5767L117.359 87.3567C117.579 87.3567 117.755 87.4667 117.887 87.6867C118.033 87.9067 118.209 88.3467 118.415 89.0067L120.527 96.0027H120.659C120.615 95.8854 120.593 95.7314 120.593 95.5407C120.593 95.3354 120.659 95.0787 120.791 94.7707C121.832 92.3507 122.419 90.8987 122.551 90.4147ZM132.633 89.8427C132.633 89.4174 132.501 89.0947 132.237 88.8747C131.973 88.6547 131.621 88.5447 131.181 88.5447C130.301 88.5447 129.612 88.9114 129.113 89.6447C128.614 90.3634 128.328 91.2361 128.255 92.2627C131.174 92.2627 132.633 91.4561 132.633 89.8427ZM130.741 98.1807C127.984 98.1807 126.605 96.4207 126.605 92.9007C126.605 91.2874 127.008 89.9527 127.815 88.8967C128.636 87.8407 129.788 87.3127 131.269 87.3127C132.178 87.3127 132.897 87.5327 133.425 87.9727C133.968 88.3981 134.239 88.9921 134.239 89.7547C134.239 90.5027 134.056 91.1187 133.689 91.6027C133.337 92.0721 132.853 92.4314 132.237 92.6807C131.078 93.1501 129.736 93.3847 128.211 93.3847C128.211 95.7167 129.142 96.8827 131.005 96.8827C131.944 96.8827 132.831 96.6261 133.667 96.1127L133.909 96.9707C133.542 97.3374 133.058 97.6307 132.457 97.8507C131.87 98.0707 131.298 98.1807 130.741 98.1807ZM138.015 87.3787C138.308 87.4961 138.455 87.8774 138.455 88.5227C138.455 89.1534 138.403 89.7401 138.301 90.2827H138.433C138.755 89.2414 139.129 88.4861 139.555 88.0167C139.98 87.5474 140.647 87.3127 141.557 87.3127L142.239 87.4007L142.041 88.9187C141.85 88.8747 141.615 88.8527 141.337 88.8527C140.765 88.8527 140.273 89.0434 139.863 89.4247C139.467 89.7914 139.173 90.2901 138.983 90.9207C138.616 92.0501 138.433 93.3187 138.433 94.7267V97.9167H136.915V90.8107C136.915 89.3294 136.834 88.2367 136.673 87.5327L138.015 87.3787ZM144.906 89.0947C144.906 88.3907 144.818 87.8701 144.642 87.5327L145.896 87.3127C146.146 87.3714 146.3 87.5181 146.358 87.7527C146.432 87.9874 146.468 88.2294 146.468 88.4787C146.468 88.6547 146.439 89.6521 146.38 91.4707C146.322 93.2894 146.292 94.2501 146.292 94.3527C146.292 95.1301 146.402 95.7534 146.622 96.2227C146.842 96.6921 147.26 96.9267 147.876 96.9267C148.492 96.9267 148.998 96.7214 149.394 96.3107C149.79 95.9001 150.106 95.3647 150.34 94.7047C150.81 93.3554 151.044 91.8961 151.044 90.3267V87.5767H152.518L152.54 97.2567C152.54 99.1194 152.196 100.571 151.506 101.613C150.832 102.669 149.688 103.197 148.074 103.197C147.488 103.197 146.886 103.087 146.27 102.867C145.654 102.661 145.163 102.368 144.796 101.987L145.038 101.129C145.889 101.686 146.879 101.965 148.008 101.965C149.152 101.965 149.937 101.561 150.362 100.755C150.802 99.9627 151.022 98.7967 151.022 97.2567C151.022 96.4061 151.074 95.7534 151.176 95.2987H151.044C150.502 97.2201 149.336 98.1807 147.546 98.1807C146.417 98.1807 145.662 97.8947 145.28 97.3227C144.899 96.7507 144.708 95.9221 144.708 94.8367C144.708 94.7194 144.738 93.7587 144.796 91.9547C144.87 90.1507 144.906 89.1974 144.906 89.0947Z" fill="black"/>
<defs>
<filter id="filter0_d" x="30" y="0" width="86.3304" height="67.4727" filterUnits="userSpaceOnUse" color-interpolation-filters="sRGB">
<feFlood flood-opacity="0" result="BackgroundImageFix"/>
<feColorMatrix in="SourceAlpha" type="matrix" values="0 0 0 0 0 0 0 0 0 0 0 0 0 0 0 0 0 0 127 0"/>
<feOffset dy="4"/>
<feGaussianBlur stdDeviation="2"/>
<feColorMatrix type="matrix" values="0 0 0 0 0 0 0 0 0 0 0 0 0 0 0 0 0 0 0.25 0"/>
<feBlend mode="normal" in2="BackgroundImageFix" result="effect1_dropShadow"/>
<feBlend mode="normal" in="SourceGraphic" in2="effect1_dropShadow" result="shape"/>
</filter>
</defs>
</svg>
