<svg width="88" height="74" viewBox="0 0 88 74" fill="none" xmlns="http://www.w3.org/2000/svg">
<g filter="url(#filter0_d)">
<path d="M75.2756 1.27417C78.4255 1.27417 81.1831 4.55039 81.1831 8.84894V11.7411H5.11658V8.84894C5.11658 4.552 7.87296 1.27417 11.0535 1.27417H75.2756Z" fill="#F1F2F2" stroke="black"/>
<path d="M4.7345 11.43V11.93H5.2345H81.0371H81.5371V11.43V8.84903C81.5371 4.66564 78.8265 1.08545 75.2468 1.08545H11.0248C7.44507 1.08545 4.7345 4.66564 4.7345 8.84903V11.43ZM81.6837 12.5154H4.61742H4.61723V12.5155C4.61725 12.5155 4.61727 12.5155 4.61729 12.5155L4.61655 12.5151L4.61288 12.5133C4.6059 12.5095 4.59066 12.4989 4.57224 12.475C4.53334 12.4246 4.5 12.3399 4.5 12.2412V8.84903C4.5 4.14652 7.55029 0.5 11.0541 0.5H75.2762C78.7801 0.5 81.8304 4.14652 81.8304 8.84903V12.2412C81.8304 12.3265 81.7981 12.4081 81.7532 12.4627C81.7318 12.4887 81.7121 12.503 81.6994 12.5097C81.6976 12.5106 81.6961 12.5114 81.6947 12.5121C81.691 12.5137 81.6884 12.5145 81.6869 12.5149C81.6849 12.5154 81.684 12.5154 81.6837 12.5154Z" fill="black" stroke="black"/>
<path d="M11.0535 58.1986C7.87296 58.1986 5.11658 54.9208 5.11658 50.6239V26.7522H81.1831V50.6239C81.1831 54.924 78.4536 58.1986 75.2756 58.1986H11.0535Z" fill="#F1F2F2" stroke="black"/>
<path d="M81.801 50.6267L81.801 50.6237L81.801 26.2521C81.801 26.1534 81.7677 26.0687 81.7288 26.0182C81.7104 25.9944 81.6951 25.9837 81.6881 25.9799L81.6845 25.9781L81.6838 25.9778V25.9778L81.801 50.6267ZM81.801 50.6267C81.8294 55.3621 78.7811 58.9727 75.2763 58.9727H11.0541C7.5503 58.9727 4.5 55.3262 4.5 50.6237V26.2521C4.5 26.1408 4.5369 26.0611 4.5733 26.0169C4.59798 25.987 4.61561 25.9794 4.62075 25.9778L81.801 50.6267ZM5.2345 26.5632H4.7345V27.0632V50.6606C4.7345 54.844 7.44507 58.4241 11.0248 58.4241H75.2469C78.8266 58.4241 81.5371 54.844 81.5371 50.6606V27.0632V26.5632H81.0371H5.2345Z" fill="black" stroke="black"/>
<path d="M5.09851 13.3945H80.7372V24.9145H5.09851V13.3945Z" fill="#E8594F"/>
<path d="M80.7367 25.5797H5.09786C4.75169 25.5797 4.49207 25.2774 4.49207 24.9448V13.4248C4.49207 13.0619 4.78054 12.7898 5.09786 12.7898H80.7367C81.0828 12.7898 81.3425 13.0922 81.3425 13.4248V24.9448C81.3713 25.2774 81.0828 25.5797 80.7367 25.5797ZM5.70369 24.2796H80.102V14.0597H5.70369V24.2796Z" fill="#E8594F"/>
</g>
<path d="M53.1385 36.451H23.8315C23.4781 36.451 23.213 36.1466 23.213 35.8116C23.213 35.4766 23.5075 35.1721 23.8315 35.1721H53.1385C53.4919 35.1721 53.757 35.4766 53.757 35.8116C53.757 36.1466 53.4919 36.451 53.1385 36.451Z" fill="black"/>
<path d="M60.0397 36.451H51.9081C51.5571 36.451 51.2938 36.1466 51.2938 35.8116C51.2938 35.4766 51.5863 35.1721 51.9081 35.1721H60.0397C60.3907 35.1721 60.654 35.4766 60.654 35.8116C60.654 36.1466 60.3615 36.451 60.0397 36.451Z" fill="black"/>
<path d="M68.4042 47.3224H15.9554C15.5984 47.3224 15.3307 46.8656 15.3307 46.3632C15.3307 45.8607 15.6282 45.4039 15.9554 45.4039H68.4042C68.7612 45.4039 69.0289 45.8607 69.0289 46.3632C69.0289 46.8656 68.7612 47.3224 68.4042 47.3224Z" fill="black"/>
<path d="M75.0492 28.9136C68.355 28.7664 62.8478 35.3207 62.7801 43.568C62.754 46.7382 63.5257 49.6636 64.8834 52.1252L74.6891 72.7719L84.8303 52.5636C86.2083 50.186 87.0473 47.2721 87.0734 44.1019C87.1411 35.8546 81.7629 29.0611 75.0492 28.9136ZM74.8578 52.2252C71.4234 52.1497 68.6767 48.6802 68.7113 44.4612C68.7459 40.2422 71.5486 36.8947 74.9831 36.9701C78.4175 37.0456 81.1642 40.5151 81.1296 44.7341C81.095 48.9531 78.2923 52.3007 74.8578 52.2252Z" fill="#FF6C64"/>
<path d="M74.6708 73.2818C74.5155 73.2783 74.3805 73.1798 74.3236 73.0355L64.525 52.3814C63.0918 49.774 62.3416 46.7292 62.3686 43.5591C62.4412 35.0499 68.127 28.2659 75.0537 28.4238C81.9803 28.5817 87.5481 35.6222 87.4754 44.1313C87.4484 47.3014 86.6464 50.3108 85.1691 52.8757L75.0414 73.0519C74.9626 73.1931 74.826 73.2853 74.6708 73.2818ZM75.0449 29.4487C68.5839 29.3015 63.2707 35.641 63.2029 43.5781C63.1777 46.5337 63.8714 49.3865 65.2284 51.8252L74.6836 71.7802L84.4561 52.2873C85.8546 49.8637 86.6161 47.0441 86.6413 44.0885C86.7089 36.1752 81.5059 29.596 75.0449 29.4487ZM74.8459 52.7596C71.1983 52.6765 68.2608 48.962 68.2991 44.481C68.3373 40 71.337 36.4208 74.9847 36.504C78.6324 36.5871 81.5698 40.3016 81.5316 44.7826C81.5129 49.2402 78.513 52.8432 74.8459 52.7596ZM74.9761 37.505C71.7941 37.4325 69.1669 40.5672 69.1336 44.4762C69.1 48.409 71.6729 51.6384 74.8549 51.7109C78.0369 51.7834 80.6641 48.6487 80.6975 44.7397C80.7502 40.8312 78.1776 37.578 74.9761 37.505Z" fill="black"/>
<defs>
<filter id="filter0_d" x="0" y="0" width="86.3304" height="67.4727" filterUnits="userSpaceOnUse" color-interpolation-filters="sRGB">
<feFlood flood-opacity="0" result="BackgroundImageFix"/>
<feColorMatrix in="SourceAlpha" type="matrix" values="0 0 0 0 0 0 0 0 0 0 0 0 0 0 0 0 0 0 127 0"/>
<feOffset dy="4"/>
<feGaussianBlur stdDeviation="2"/>
<feColorMatrix type="matrix" values="0 0 0 0 0 0 0 0 0 0 0 0 0 0 0 0 0 0 0.25 0"/>
<feBlend mode="normal" in2="BackgroundImageFix" result="effect1_dropShadow"/>
<feBlend mode="normal" in="SourceGraphic" in2="effect1_dropShadow" result="shape"/>
</filter>
</defs>
</svg>
