<svg width="66" height="113" viewBox="0 0 66 113" fill="none" xmlns="http://www.w3.org/2000/svg">
<path d="M54.0447 54.0911H12.1609L20.5597 92.4274H53.9895C59.5703 92.4274 64.1013 87.4691 64.1013 81.3618V65.1566C64.1566 59.0494 59.6256 54.0911 54.0447 54.0911Z" fill="#FF6C64"/>
<path d="M54.0447 93.6971H20.5598C20.0072 93.6971 19.5099 93.2738 19.3994 92.7296L11.0005 54.3932C10.89 54.0304 11.0005 53.6071 11.2215 53.3048C11.4426 53.0024 11.7741 52.821 12.1609 52.821H54.0447C60.2886 52.821 65.3169 58.3841 65.3169 65.1564V81.3617C65.3169 88.1341 60.2886 93.6971 54.0447 93.6971ZM21.4991 91.097H54.0447C58.9625 91.097 62.9409 86.7433 62.9409 81.3617V65.1564C62.9409 59.7748 58.9625 55.4211 54.0447 55.4211H13.6528L21.4991 91.097Z" fill="black"/>
<path d="M21.266 112.986C17.0913 112.986 13.671 108.861 13.671 103.825C13.671 98.7898 17.0913 94.6643 21.266 94.6643C25.4407 94.6643 28.861 98.7898 28.861 103.825C28.861 108.861 25.491 112.986 21.266 112.986ZM21.266 97.2124C18.2481 97.2124 15.8338 100.125 15.8338 103.765C15.8338 107.405 18.2481 110.317 21.266 110.317C24.2839 110.317 26.6981 107.405 26.6981 103.765C26.6981 100.185 24.2839 97.2124 21.266 97.2124Z" fill="black"/>
<path d="M53.9244 112.986C49.3322 112.986 45.5699 108.861 45.5699 103.825C45.5699 98.7898 49.3322 94.6643 53.9244 94.6643C58.5166 94.6643 62.2789 98.7898 62.2789 103.825C62.2789 108.861 58.5166 112.986 53.9244 112.986ZM53.9244 97.2124C50.6048 97.2124 47.9491 100.125 47.9491 103.765C47.9491 107.405 50.6048 110.317 53.9244 110.317C57.2441 110.317 59.8999 107.405 59.8999 103.765C59.8999 100.185 57.1888 97.2124 53.9244 97.2124Z" fill="black"/>
<path d="M12.4657 54.9664C11.8426 54.9664 11.3328 54.5299 11.2762 53.9297C11.2195 53.6023 10.1434 47.3821 1.36409 48.2551C0.684401 48.3097 0.118051 47.8732 0.00477027 47.2185C-0.0518702 46.5637 0.401198 46.0181 1.08088 45.909C12.2957 44.7631 13.6551 53.4932 13.6551 53.5477C13.7684 54.2025 13.2586 54.8027 12.6356 54.8572C12.5789 54.9664 12.5223 54.9664 12.4657 54.9664Z" fill="black"/>
<path d="M45.9389 26.1744V0H26.9728V26.1744H18.2279L36.4559 42.7516L54.6839 26.1744H45.9389Z" fill="white"/>
<path d="M36.4559 42.7516C36.0833 42.7516 35.764 42.6371 35.5511 42.4462L18.4657 26.4907C18.1996 26.2617 18.1464 25.9181 18.3593 25.6128C18.5722 25.3456 18.9448 25.1547 19.3706 25.1547H26.4495V0.801592C26.4495 0.343539 26.9818 0 27.5673 0H45.3445C45.9832 0 46.4623 0.38171 46.4623 0.801592V25.1929H53.5412C53.967 25.1929 54.3928 25.3838 54.5525 25.651C54.7654 25.9182 54.7122 26.2617 54.446 26.5289L37.3607 42.4844C37.1478 42.6371 36.8285 42.7516 36.4559 42.7516ZM21.7125 26.7961L36.4559 40.5758L51.1993 26.7961H45.2913C44.6526 26.7961 44.1735 26.4144 44.1735 25.9945V1.60318H28.7382V25.9945C28.7382 26.4525 28.206 26.7961 27.6205 26.7961H21.7125Z" fill="black"/>
</svg>
