<svg width="162" height="111" viewBox="0 0 162 111" fill="none" xmlns="http://www.w3.org/2000/svg">
<path d="M69.5 74C66.4768 74 64 71.0728 64 67.5C64 63.9272 66.4768 61 69.5 61C72.5232 61 75 63.9272 75 67.5C75 71.0728 72.5596 74 69.5 74ZM69.5 62.808C67.3146 62.808 65.5662 64.8742 65.5662 67.457C65.5662 70.0397 67.3146 72.106 69.5 72.106C71.6854 72.106 73.4338 70.0397 73.4338 67.457C73.4338 64.9172 71.6854 62.808 69.5 62.808Z" fill="black"/>
<path d="M97 74C93.702 74 91 71.0728 91 67.5C91 63.9272 93.702 61 97 61C100.298 61 103 63.9272 103 67.5C103 71.0728 100.298 74 97 74ZM97 62.808C94.6159 62.808 92.7086 64.8742 92.7086 67.457C92.7086 70.0397 94.6159 72.106 97 72.106C99.3841 72.106 101.291 70.0397 101.291 67.457C101.291 64.9172 99.3444 62.808 97 62.808Z" fill="black"/>
<path d="M59.4657 29.9664C58.8426 29.9664 58.3328 29.5299 58.2762 28.9297C58.2195 28.6023 57.1434 22.3821 48.3641 23.2551C47.6844 23.3097 47.1181 22.8732 47.0048 22.2185C46.9481 21.5637 47.4012 21.0181 48.0809 20.909C59.2957 19.7631 60.6551 28.4932 60.6551 28.5477C60.7684 29.2025 60.2586 29.8027 59.6356 29.8572C59.5789 29.9664 59.5223 29.9664 59.4657 29.9664Z" fill="black"/>
<path d="M94.4524 27.1506H58.9767L66.0905 59.6216H94.4056C99.1326 59.6216 102.97 55.4219 102.97 50.2491V36.5232C103.017 31.3503 99.1794 27.1506 94.4524 27.1506Z" fill="#FF6C64"/>
<path d="M94.4524 60.6971H66.0906C65.6226 60.6971 65.2014 60.3386 65.1078 59.8776L57.9939 27.4066C57.9003 27.0993 57.9939 26.7408 58.1811 26.4847C58.3683 26.2286 58.6491 26.075 58.9768 26.075H94.4524C99.741 26.075 104 30.7868 104 36.523V50.249C104 55.9852 99.741 60.6971 94.4524 60.6971ZM66.8862 58.4948H94.4524C98.6178 58.4948 101.988 54.8072 101.988 50.249V36.523C101.988 31.9648 98.6178 28.2772 94.4524 28.2772H60.2404L66.8862 58.4948Z" fill="black"/>
<path d="M86.9626 14.6939V0H76.0374V14.6939H71L81.5 24L92 14.6939H86.9626Z" fill="white"/>
<path d="M81.5 24C81.2854 24 81.1014 23.9357 80.9788 23.8286L71.137 14.8714C70.9837 14.7429 70.953 14.55 71.0757 14.3786C71.1983 14.2286 71.4129 14.1214 71.6582 14.1214H75.7359V0.45C75.7359 0.192857 76.0426 0 76.3798 0H86.6202C86.9881 0 87.2641 0.214285 87.2641 0.45V14.1429H91.3418C91.5871 14.1429 91.8323 14.25 91.9243 14.4C92.047 14.55 92.0163 14.7429 91.863 14.8929L82.0212 23.85C81.8986 23.9357 81.7146 24 81.5 24ZM73.0073 15.0429L81.5 22.7786L89.9927 15.0429H86.5895C86.2216 15.0429 85.9457 14.8286 85.9457 14.5929V0.899999H77.0543V14.5929C77.0543 14.85 76.7477 15.0429 76.4105 15.0429H73.0073Z" fill="black"/>
<path d="M2.486 86.996C3.79133 86.82 5.13333 86.732 6.512 86.732C7.90533 86.732 9.01267 87.0767 9.834 87.766C10.6553 88.4553 11.066 89.4233 11.066 90.67C11.066 92.7967 9.988 94.1533 7.832 94.74L10.032 99.074C10.384 99.7927 10.7067 100.299 11 100.592C11.308 100.871 11.6747 101.01 12.1 101.01L12.166 102.066C12.1073 102.125 11.814 102.154 11.286 102.154C10.7727 102.154 10.3107 101.971 9.9 101.604C9.48933 101.223 9.086 100.636 8.69 99.844L6.226 95.004C6.006 95.048 5.74933 95.07 5.456 95.07H4.092V102H2.42L2.486 86.996ZM4.092 93.684H5.5C8.03733 93.684 9.306 92.7087 9.306 90.758C9.306 89.042 8.294 88.184 6.27 88.184C5.44867 88.184 4.72267 88.228 4.092 88.316V93.684ZM19.8284 93.926C19.8284 93.5007 19.6964 93.178 19.4324 92.958C19.1684 92.738 18.8164 92.628 18.3764 92.628C17.4964 92.628 16.807 92.9947 16.3084 93.728C15.8097 94.4467 15.5237 95.3193 15.4504 96.346C18.369 96.346 19.8284 95.5393 19.8284 93.926ZM17.9364 102.264C15.179 102.264 13.8004 100.504 13.8004 96.984C13.8004 95.3707 14.2037 94.036 15.0104 92.98C15.8317 91.924 16.983 91.396 18.4644 91.396C19.3737 91.396 20.0924 91.616 20.6204 92.056C21.163 92.4813 21.4344 93.0753 21.4344 93.838C21.4344 94.586 21.251 95.202 20.8844 95.686C20.5324 96.1553 20.0484 96.5147 19.4324 96.764C18.2737 97.2333 16.9317 97.468 15.4064 97.468C15.4064 99.8 16.3377 100.966 18.2004 100.966C19.139 100.966 20.0264 100.709 20.8624 100.196L21.1044 101.054C20.7377 101.421 20.2537 101.714 19.6524 101.934C19.0657 102.154 18.4937 102.264 17.9364 102.264ZM29.1039 100.9L29.3239 101.868C28.7813 102.132 28.1286 102.264 27.3659 102.264C26.2806 102.264 25.5619 101.971 25.2099 101.384C24.8579 100.797 24.6819 99.866 24.6819 98.59V92.826H22.9219V91.88L24.6819 91.66V89.372L26.2659 89.108V91.66H29.1039V92.826H26.2659V98.106C26.2659 99.47 26.3833 100.299 26.6179 100.592C26.9113 100.929 27.3073 101.098 27.8059 101.098C28.3046 101.098 28.7373 101.032 29.1039 100.9ZM31.9507 93.178C31.9507 92.474 31.8627 91.9533 31.6867 91.616L32.9407 91.396C33.19 91.4547 33.344 91.6013 33.4027 91.836C33.476 92.0707 33.5127 92.3127 33.5127 92.562C33.5127 92.738 33.4834 93.75 33.4247 95.598C33.366 97.4313 33.3367 98.4507 33.3367 98.656C33.3367 98.8613 33.344 99.096 33.3587 99.36C33.388 99.6093 33.4614 99.8733 33.5787 100.152C33.784 100.724 34.2827 101.01 35.0747 101.01C35.6614 101.01 36.16 100.805 36.5707 100.394C36.996 99.9687 37.304 99.4113 37.4947 98.722C37.8614 97.4753 38.0447 96.1113 38.0447 94.63V91.66H39.5187V97.666C39.5187 98.9713 39.614 99.8733 39.8047 100.372C39.9954 100.856 40.4207 101.098 41.0807 101.098L41.1247 102.088C40.89 102.147 40.5967 102.176 40.2447 102.176C39.5114 102.176 38.998 101.963 38.7047 101.538C38.426 101.098 38.2867 100.592 38.2867 100.02C38.2867 99.8587 38.294 99.69 38.3087 99.514H38.1767C37.942 100.409 37.5094 101.091 36.8787 101.56C36.2627 102.029 35.4487 102.264 34.4367 102.264C33.4394 102.264 32.7427 101.956 32.3467 101.34C31.9507 100.724 31.7527 99.8807 31.7527 98.81C31.7527 98.678 31.782 97.732 31.8407 95.972C31.914 94.212 31.9507 93.2807 31.9507 93.178ZM44.8252 91.462C45.1185 91.5793 45.2652 91.9607 45.2652 92.606C45.2652 93.2367 45.2138 93.8233 45.1112 94.366H45.2432C45.5658 93.3247 45.9398 92.5693 46.3652 92.1C46.7905 91.6307 47.4578 91.396 48.3672 91.396L49.0492 91.484L48.8512 93.002C48.6605 92.958 48.4258 92.936 48.1472 92.936C47.5752 92.936 47.0838 93.1267 46.6732 93.508C46.2772 93.8747 45.9838 94.3733 45.7932 95.004C45.4265 96.1333 45.2432 97.402 45.2432 98.81V102H43.7252V94.894C43.7252 93.4127 43.6445 92.32 43.4832 91.616L44.8252 91.462ZM53.2568 92.1C53.2568 92.8773 53.1982 93.53 53.0808 94.058H53.2128C53.4182 93.2367 53.8142 92.5913 54.4008 92.122C55.0022 91.638 55.7282 91.396 56.5788 91.396C57.7375 91.396 58.5368 91.6893 58.9768 92.276C59.4168 92.848 59.6368 93.7133 59.6368 94.872C59.6368 94.916 59.6222 95.664 59.5928 97.116C59.5782 98.568 59.5708 99.492 59.5708 99.888C59.5708 100.284 59.6148 100.577 59.7028 100.768C59.8055 100.959 60.1208 101.054 60.6488 101.054L60.6928 102.044C60.4875 102.132 60.1868 102.176 59.7908 102.176C59.0868 102.176 58.6028 102.015 58.3388 101.692C58.0895 101.369 57.9648 100.856 57.9648 100.152C57.9648 100.123 57.9795 99.3307 58.0088 97.776C58.0382 96.2213 58.0528 95.4147 58.0528 95.356C58.0528 94.5053 57.9428 93.8453 57.7228 93.376C57.5028 92.892 57.0628 92.65 56.4028 92.65C55.7575 92.65 55.2148 92.8553 54.7748 93.266C54.3495 93.6767 54.0268 94.212 53.8068 94.872C53.4108 96.148 53.2128 97.5047 53.2128 98.942V102H51.6948V91.66L53.2568 91.462V92.1ZM75.7603 95.554H73.8903V94.102H77.4103V101.208C76.4423 101.912 75.1223 102.264 73.4503 102.264C71.3383 102.264 69.8569 101.516 69.0063 100.02C68.2436 98.6707 67.8623 96.852 67.8623 94.564C67.8623 92.276 68.4123 90.3987 69.5123 88.932C70.6269 87.4653 72.2036 86.732 74.2423 86.732C75.2396 86.732 76.1856 86.8787 77.0803 87.172L76.7503 88.404C75.9436 88.2573 75.1736 88.184 74.4403 88.184C71.2283 88.184 69.6223 90.3107 69.6223 94.564C69.6223 97.6147 70.3116 99.536 71.6903 100.328C72.2476 100.651 72.9076 100.812 73.6703 100.812C74.4476 100.812 75.1443 100.702 75.7603 100.482V95.554ZM81.3218 93.178C81.3218 92.474 81.2338 91.9533 81.0578 91.616L82.3118 91.396C82.5611 91.4547 82.7151 91.6013 82.7738 91.836C82.8471 92.0707 82.8838 92.3127 82.8838 92.562C82.8838 92.738 82.8545 93.75 82.7958 95.598C82.7371 97.4313 82.7078 98.4507 82.7078 98.656C82.7078 98.8613 82.7151 99.096 82.7298 99.36C82.7591 99.6093 82.8325 99.8733 82.9498 100.152C83.1551 100.724 83.6538 101.01 84.4458 101.01C85.0325 101.01 85.5311 100.805 85.9418 100.394C86.3671 99.9687 86.6751 99.4113 86.8658 98.722C87.2325 97.4753 87.4158 96.1113 87.4158 94.63V91.66H88.8898V97.666C88.8898 98.9713 88.9851 99.8733 89.1758 100.372C89.3665 100.856 89.7918 101.098 90.4518 101.098L90.4958 102.088C90.2611 102.147 89.9678 102.176 89.6158 102.176C88.8825 102.176 88.3691 101.963 88.0758 101.538C87.7971 101.098 87.6578 100.592 87.6578 100.02C87.6578 99.8587 87.6651 99.69 87.6798 99.514H87.5478C87.3131 100.409 86.8805 101.091 86.2498 101.56C85.6338 102.029 84.8198 102.264 83.8078 102.264C82.8105 102.264 82.1138 101.956 81.7178 101.34C81.3218 100.724 81.1238 99.8807 81.1238 98.81C81.1238 98.678 81.1531 97.732 81.2118 95.972C81.2851 94.212 81.3218 93.2807 81.3218 93.178ZM99.1023 94.498V92.892C98.6769 92.672 98.0389 92.562 97.1883 92.562C95.0176 92.562 93.9323 94.1973 93.9323 97.468C93.9323 99.8587 94.6583 101.054 96.1103 101.054C96.7263 101.054 97.2396 100.849 97.6503 100.438C98.0756 100.013 98.3909 99.4407 98.5963 98.722C98.9336 97.4753 99.1023 96.0673 99.1023 94.498ZM95.9563 102.264C94.6803 102.264 93.7489 101.824 93.1623 100.944C92.5756 100.064 92.2823 98.8173 92.2823 97.204C92.2823 95.576 92.6929 94.2047 93.5143 93.09C94.3503 91.9607 95.5749 91.396 97.1883 91.396C97.7603 91.396 98.3249 91.4547 98.8823 91.572C99.4543 91.6893 100.019 91.858 100.576 92.078V97.666C100.576 99.162 100.708 100.108 100.972 100.504C101.222 100.9 101.64 101.098 102.226 101.098L102.27 102.088C102.036 102.147 101.742 102.176 101.39 102.176C100.613 102.176 100.056 101.905 99.7183 101.362C99.4689 100.966 99.3443 100.497 99.3443 99.954C99.3443 99.778 99.3589 99.5873 99.3883 99.382H99.2563C99.0069 100.262 98.6036 100.966 98.0463 101.494C97.5036 102.007 96.8069 102.264 95.9563 102.264ZM105.884 91.462C106.177 91.5793 106.324 91.9607 106.324 92.606C106.324 93.2367 106.272 93.8233 106.17 94.366H106.302C106.624 93.3247 106.998 92.5693 107.424 92.1C107.849 91.6307 108.516 91.396 109.426 91.396L110.108 91.484L109.91 93.002C109.719 92.958 109.484 92.936 109.206 92.936C108.634 92.936 108.142 93.1267 107.732 93.508C107.336 93.8747 107.042 94.3733 106.852 95.004C106.485 96.1333 106.302 97.402 106.302 98.81V102H104.784V94.894C104.784 93.4127 104.703 92.32 104.542 91.616L105.884 91.462ZM118.803 94.498V92.892C118.378 92.672 117.74 92.562 116.889 92.562C114.719 92.562 113.633 94.1973 113.633 97.468C113.633 99.8587 114.359 101.054 115.811 101.054C116.427 101.054 116.941 100.849 117.351 100.438C117.777 100.013 118.092 99.4407 118.297 98.722C118.635 97.4753 118.803 96.0673 118.803 94.498ZM115.657 102.264C114.381 102.264 113.45 101.824 112.863 100.944C112.277 100.064 111.983 98.8173 111.983 97.204C111.983 95.576 112.394 94.2047 113.215 93.09C114.051 91.9607 115.276 91.396 116.889 91.396C117.461 91.396 118.026 91.4547 118.583 91.572C119.155 91.6893 119.72 91.858 120.277 92.078V97.666C120.277 99.162 120.409 100.108 120.673 100.504C120.923 100.9 121.341 101.098 121.927 101.098L121.971 102.088C121.737 102.147 121.443 102.176 121.091 102.176C120.314 102.176 119.757 101.905 119.419 101.362C119.17 100.966 119.045 100.497 119.045 99.954C119.045 99.778 119.06 99.5873 119.089 99.382H118.957C118.708 100.262 118.305 100.966 117.747 101.494C117.205 102.007 116.508 102.264 115.657 102.264ZM126.003 92.1C126.003 92.8773 125.944 93.53 125.827 94.058H125.959C126.164 93.2367 126.56 92.5913 127.147 92.122C127.748 91.638 128.474 91.396 129.325 91.396C130.484 91.396 131.283 91.6893 131.723 92.276C132.163 92.848 132.383 93.7133 132.383 94.872C132.383 94.916 132.368 95.664 132.339 97.116C132.324 98.568 132.317 99.492 132.317 99.888C132.317 100.284 132.361 100.577 132.449 100.768C132.552 100.959 132.867 101.054 133.395 101.054L133.439 102.044C133.234 102.132 132.933 102.176 132.537 102.176C131.833 102.176 131.349 102.015 131.085 101.692C130.836 101.369 130.711 100.856 130.711 100.152C130.711 100.123 130.726 99.3307 130.755 97.776C130.784 96.2213 130.799 95.4147 130.799 95.356C130.799 94.5053 130.689 93.8453 130.469 93.376C130.249 92.892 129.809 92.65 129.149 92.65C128.504 92.65 127.961 92.8553 127.521 93.266C127.096 93.6767 126.773 94.212 126.553 94.872C126.157 96.148 125.959 97.5047 125.959 98.942V102H124.441V91.66L126.003 91.462V92.1ZM141.467 100.9L141.687 101.868C141.145 102.132 140.492 102.264 139.729 102.264C138.644 102.264 137.925 101.971 137.573 101.384C137.221 100.797 137.045 99.866 137.045 98.59V92.826H135.285V91.88L137.045 91.66V89.372L138.629 89.108V91.66H141.467V92.826H138.629V98.106C138.629 99.47 138.747 100.299 138.981 100.592C139.275 100.929 139.671 101.098 140.169 101.098C140.668 101.098 141.101 101.032 141.467 100.9ZM149.594 93.926C149.594 93.5007 149.462 93.178 149.198 92.958C148.934 92.738 148.582 92.628 148.142 92.628C147.262 92.628 146.573 92.9947 146.074 93.728C145.575 94.4467 145.289 95.3193 145.216 96.346C148.135 96.346 149.594 95.5393 149.594 93.926ZM147.702 102.264C144.945 102.264 143.566 100.504 143.566 96.984C143.566 95.3707 143.969 94.036 144.776 92.98C145.597 91.924 146.749 91.396 148.23 91.396C149.139 91.396 149.858 91.616 150.386 92.056C150.929 92.4813 151.2 93.0753 151.2 93.838C151.2 94.586 151.017 95.202 150.65 95.686C150.298 96.1553 149.814 96.5147 149.198 96.764C148.039 97.2333 146.697 97.468 145.172 97.468C145.172 99.8 146.103 100.966 147.966 100.966C148.905 100.966 149.792 100.709 150.628 100.196L150.87 101.054C150.503 101.421 150.019 101.714 149.418 101.934C148.831 102.154 148.259 102.264 147.702 102.264ZM159.112 93.926C159.112 93.5007 158.98 93.178 158.716 92.958C158.452 92.738 158.1 92.628 157.66 92.628C156.78 92.628 156.09 92.9947 155.592 93.728C155.093 94.4467 154.807 95.3193 154.734 96.346C157.652 96.346 159.112 95.5393 159.112 93.926ZM157.22 102.264C154.462 102.264 153.084 100.504 153.084 96.984C153.084 95.3707 153.487 94.036 154.294 92.98C155.115 91.924 156.266 91.396 157.748 91.396C158.657 91.396 159.376 91.616 159.904 92.056C160.446 92.4813 160.718 93.0753 160.718 93.838C160.718 94.586 160.534 95.202 160.168 95.686C159.816 96.1553 159.332 96.5147 158.716 96.764C157.557 97.2333 156.215 97.468 154.69 97.468C154.69 99.8 155.621 100.966 157.484 100.966C158.422 100.966 159.31 100.709 160.146 100.196L160.388 101.054C160.021 101.421 159.537 101.714 158.936 101.934C158.349 102.154 157.777 102.264 157.22 102.264Z" fill="black"/>
</svg>
